<?xml version="1.0" encoding="UTF-8" standalone="no"?>
<!DOCTYPE svg PUBLIC "-//W3C//DTD SVG 1.1//EN"
 "http://www.w3.org/Graphics/SVG/1.1/DTD/svg11.dtd">
<!-- Generated by graphviz version 2.40.1 (20161225.0304)
 -->
<!-- Title: %0 Pages: 1 -->
<svg width="855pt" height="745pt"
 viewBox="0.00 0.00 855.07 745.10" xmlns="http://www.w3.org/2000/svg" xmlns:xlink="http://www.w3.org/1999/xlink">
<g id="graph0" class="graph" transform="scale(1 1) rotate(0) translate(4 741.0989)">
<title>%0</title>
<polygon fill="#ffffff" stroke="transparent" points="-4,4 -4,-741.0989 851.0746,-741.0989 851.0746,4 -4,4"/>
<!-- Master UFO -->
<g id="node1" class="node">
<title>Master UFO</title>
<polygon fill="#add8e6" stroke="#000000" points="392.0686,-700.5989 392.0686,-736.5989 484.286,-736.5989 484.286,-700.5989 392.0686,-700.5989"/>
<text text-anchor="middle" x="438.1773" y="-714.3989" font-family="Arial" font-size="14.00" fill="#000000">Master UFO</text>
</g>
<!-- Basic Character Set -->
<g id="node2" class="node">
<title>Basic Character Set</title>
<polygon fill="none" stroke="#000000" points="591.9445,-627.5989 591.9445,-663.5989 732.4101,-663.5989 732.4101,-627.5989 591.9445,-627.5989"/>
<text text-anchor="middle" x="662.1773" y="-641.3989" font-family="Arial" font-size="14.00" fill="#000000">Basic Character Set</text>
</g>
<!-- Master UFO&#45;&gt;Basic Character Set -->
<g id="edge1" class="edge">
<title>Master UFO&#45;&gt;Basic Character Set</title>
<path fill="none" stroke="#000000" d="M484.3187,-703.5618C516.746,-692.9939 560.597,-678.7032 596.6429,-666.9561"/>
<polygon fill="#000000" stroke="#000000" points="598.1635,-670.1418 606.5868,-663.7155 595.9944,-663.4863 598.1635,-670.1418"/>
</g>
<!-- Character Glyph -->
<g id="node13" class="node">
<title>Character Glyph</title>
<polygon fill="#ffff00" stroke="#000000" points="242.2264,-554.5989 242.2264,-590.5989 360.1282,-590.5989 360.1282,-554.5989 242.2264,-554.5989"/>
<text text-anchor="middle" x="301.1773" y="-568.3989" font-family="Arial" font-size="14.00" fill="#000000">Character Glyph</text>
</g>
<!-- Master UFO&#45;&gt;Character Glyph -->
<g id="edge11" class="edge">
<title>Master UFO&#45;&gt;Character Glyph</title>
<path fill="none" stroke="#000000" d="M392.0096,-713.5027C360.6626,-707.3706 321.3683,-693.861 301.1773,-664.0989 288.704,-645.7128 289.86,-620.1052 293.476,-600.6549"/>
<polygon fill="#000000" stroke="#000000" points="296.9052,-601.3562 295.5992,-590.8422 290.0635,-599.8758 296.9052,-601.3562"/>
</g>
<!-- Selection to DeepComponent -->
<g id="node4" class="node">
<title>Selection to DeepComponent</title>
<ellipse fill="#00ff00" stroke="#000000" cx="691.1773" cy="-572.5989" rx="137.3029" ry="18"/>
<text text-anchor="middle" x="691.1773" y="-568.3989" font-family="Arial" font-size="14.00" fill="#000000">Selection to DeepComponent</text>
</g>
<!-- Basic Character Set&#45;&gt;Selection to DeepComponent -->
<g id="edge2" class="edge">
<title>Basic Character Set&#45;&gt;Selection to DeepComponent</title>
<path fill="none" stroke="#000000" d="M669.3459,-627.554C672.6224,-619.3063 676.5766,-609.3525 680.2145,-600.1951"/>
<polygon fill="#000000" stroke="#000000" points="683.5515,-601.275 683.9907,-590.6893 677.046,-598.6906 683.5515,-601.275"/>
</g>
<!-- Deep Components Editor Tool -->
<g id="node3" class="node">
<title>Deep Components Editor Tool</title>
<ellipse fill="#00ff00" stroke="#000000" cx="706.1773" cy="-500.0989" rx="140.7947" ry="18"/>
<text text-anchor="middle" x="706.1773" y="-495.8989" font-family="Arial" font-size="14.00" fill="#000000">Deep Components Editor Tool</text>
</g>
<!-- DeepComponent Storage UFO -->
<g id="node5" class="node">
<title>DeepComponent Storage UFO</title>
<polygon fill="#add8e6" stroke="#000000" points="602.0988,-351.0494 602.0988,-387.0494 810.2558,-387.0494 810.2558,-351.0494 602.0988,-351.0494"/>
<text text-anchor="middle" x="706.1773" y="-364.8494" font-family="Arial" font-size="14.00" fill="#000000">DeepComponent Storage UFO</text>
</g>
<!-- Deep Components Editor Tool&#45;&gt;DeepComponent Storage UFO -->
<g id="edge4" class="edge">
<title>Deep Components Editor Tool&#45;&gt;DeepComponent Storage UFO</title>
<path fill="none" stroke="#000000" d="M706.1773,-481.877C706.1773,-459.9693 706.1773,-422.9559 706.1773,-397.3264"/>
<polygon fill="#000000" stroke="#000000" points="709.6774,-397.1165 706.1773,-387.1166 702.6774,-397.1166 709.6774,-397.1165"/>
</g>
<!-- Selection to DeepComponent&#45;&gt;Deep Components Editor Tool -->
<g id="edge3" class="edge">
<title>Selection to DeepComponent&#45;&gt;Deep Components Editor Tool</title>
<path fill="none" stroke="#000000" d="M697.0148,-544.3844C698.1276,-539.006 699.2918,-533.379 700.4026,-528.0101"/>
<polygon fill="#000000" stroke="#000000" points="693.5612,-543.8023 694.9625,-554.3041 700.416,-545.2206 693.5612,-543.8023"/>
<polygon fill="#000000" stroke="#000000" points="703.8466,-528.6385 702.4454,-518.1367 696.9918,-527.2202 703.8466,-528.6385"/>
</g>
<!-- {DeepComponentGlyph:{}} -->
<g id="node6" class="node">
<title>{DeepComponentGlyph:{}}</title>
<polygon fill="none" stroke="#000000" points="445.6977,-219.5 445.6977,-255.5 626.6569,-255.5 626.6569,-219.5 445.6977,-219.5"/>
<text text-anchor="middle" x="536.1773" y="-233.3" font-family="Arial" font-size="14.00" fill="#000000">{DeepComponentGlyph:{}}</text>
</g>
<!-- DeepComponent Storage UFO&#45;&gt;{DeepComponentGlyph:{}} -->
<g id="edge5" class="edge">
<title>DeepComponent Storage UFO&#45;&gt;{DeepComponentGlyph:{}}</title>
<path fill="none" stroke="#000000" d="M682.896,-351.0339C652.9684,-327.8753 600.8939,-287.579 567.5096,-261.7455"/>
<polygon fill="#000000" stroke="#000000" points="569.5003,-258.8605 559.4496,-255.5086 565.2163,-264.3965 569.5003,-258.8605"/>
</g>
<!-- DeepComponent Glyph -->
<g id="node8" class="node">
<title>DeepComponent Glyph</title>
<polygon fill="#ffff00" stroke="#000000" points="645.0469,-219.5 645.0469,-255.5 807.3077,-255.5 807.3077,-219.5 645.0469,-219.5"/>
<text text-anchor="middle" x="726.1773" y="-233.3" font-family="Arial" font-size="14.00" fill="#000000">DeepComponent Glyph</text>
</g>
<!-- DeepComponent Storage UFO&#45;&gt;DeepComponent Glyph -->
<g id="edge7" class="edge">
<title>DeepComponent Storage UFO&#45;&gt;DeepComponent Glyph</title>
<path fill="none" stroke="#000000" d="M708.9163,-351.0339C712.2637,-329.0166 717.9661,-291.509 721.8951,-265.6664"/>
<polygon fill="#000000" stroke="#000000" points="725.3643,-266.1326 723.4072,-255.7201 718.4439,-265.0804 725.3643,-266.1326"/>
</g>
<!-- Storage FontLib -->
<g id="node7" class="node">
<title>Storage FontLib</title>
<polygon fill="#add8e6" stroke="#000000" points="478.3828,-146.5 478.3828,-182.5 593.9718,-182.5 593.9718,-146.5 478.3828,-146.5"/>
<text text-anchor="middle" x="536.1773" y="-160.3" font-family="Arial" font-size="14.00" fill="#000000">Storage FontLib</text>
</g>
<!-- {DeepComponentGlyph:{}}&#45;&gt;Storage FontLib -->
<g id="edge6" class="edge">
<title>{DeepComponentGlyph:{}}&#45;&gt;Storage FontLib</title>
<path fill="none" stroke="#000000" d="M536.1773,-209.3688C536.1773,-203.8894 536.1773,-198.1439 536.1773,-192.6634"/>
<polygon fill="#000000" stroke="#000000" points="532.6774,-209.455 536.1773,-219.4551 539.6774,-209.4551 532.6774,-209.455"/>
<polygon fill="#000000" stroke="#000000" points="539.6774,-192.5903 536.1773,-182.5904 532.6774,-192.5904 539.6774,-192.5903"/>
</g>
<!-- Master Layers -->
<g id="node9" class="node">
<title>Master Layers</title>
<polygon fill="#ffff00" stroke="#000000" points="642.8393,-146.5 642.8393,-182.5 747.5153,-182.5 747.5153,-146.5 642.8393,-146.5"/>
<text text-anchor="middle" x="695.1773" y="-160.3" font-family="Arial" font-size="14.00" fill="#000000">Master Layers</text>
</g>
<!-- DeepComponent Glyph&#45;&gt;Master Layers -->
<g id="edge8" class="edge">
<title>DeepComponent Glyph&#45;&gt;Master Layers</title>
<path fill="none" stroke="#000000" d="M714.6038,-210.2461C712.0916,-204.3304 709.4321,-198.0677 706.9137,-192.1373"/>
<polygon fill="#000000" stroke="#000000" points="711.384,-211.6187 718.5144,-219.4551 717.8272,-208.8825 711.384,-211.6187"/>
<polygon fill="#000000" stroke="#000000" points="709.9899,-190.4267 702.8595,-182.5904 703.5468,-193.1629 709.9899,-190.4267"/>
</g>
<!-- [LayerNames] -->
<g id="node10" class="node">
<title>[LayerNames]</title>
<polygon fill="none" stroke="#000000" points="349.6163,-73.5 349.6163,-109.5 452.7383,-109.5 452.7383,-73.5 349.6163,-73.5"/>
<text text-anchor="middle" x="401.1773" y="-87.3" font-family="Arial" font-size="14.00" fill="#000000">[LayerNames]</text>
</g>
<!-- Master Layers&#45;&gt;[LayerNames] -->
<g id="edge9" class="edge">
<title>Master Layers&#45;&gt;[LayerNames]</title>
<path fill="none" stroke="#000000" d="M642.616,-151.4491C592.1873,-138.9276 516.0445,-120.0214 462.789,-106.7981"/>
<polygon fill="#000000" stroke="#000000" points="463.3392,-103.3285 452.7904,-104.3155 461.6523,-110.1222 463.3392,-103.3285"/>
</g>
<!-- Storage GlyphLib -->
<g id="node11" class="node">
<title>Storage GlyphLib</title>
<polygon fill="#ffff00" stroke="#000000" points="339.1058,-.5 339.1058,-36.5 463.2488,-36.5 463.2488,-.5 339.1058,-.5"/>
<text text-anchor="middle" x="401.1773" y="-14.3" font-family="Arial" font-size="14.00" fill="#000000">Storage GlyphLib</text>
</g>
<!-- [LayerNames]&#45;&gt;Storage GlyphLib -->
<g id="edge10" class="edge">
<title>[LayerNames]&#45;&gt;Storage GlyphLib</title>
<path fill="none" stroke="#000000" d="M401.1773,-63.3688C401.1773,-57.8894 401.1773,-52.1439 401.1773,-46.6634"/>
<polygon fill="#000000" stroke="#000000" points="397.6774,-63.455 401.1773,-73.4551 404.6774,-63.4551 397.6774,-63.455"/>
<polygon fill="#000000" stroke="#000000" points="404.6774,-46.5903 401.1773,-36.5904 397.6774,-46.5904 404.6774,-46.5903"/>
</g>
<!-- Deep Components Instantiator Tool -->
<g id="node12" class="node">
<title>Deep Components Instantiator Tool</title>
<ellipse fill="#00ff00" stroke="#000000" cx="384.1773" cy="-500.0989" rx="163.3829" ry="18"/>
<text text-anchor="middle" x="384.1773" y="-495.8989" font-family="Arial" font-size="14.00" fill="#000000">Deep Components Instantiator Tool</text>
</g>
<!-- Select Instance -->
<g id="node15" class="node">
<title>Select Instance</title>
<ellipse fill="none" stroke="#000000" cx="459.1773" cy="-369.0494" rx="77.0989" ry="77.0989"/>
<text text-anchor="middle" x="459.1773" y="-364.8494" font-family="Arial" font-size="14.00" fill="#000000">Select Instance</text>
</g>
<!-- Deep Components Instantiator Tool&#45;&gt;Select Instance -->
<g id="edge15" class="edge">
<title>Deep Components Instantiator Tool&#45;&gt;Select Instance</title>
<path fill="none" stroke="#000000" d="M399.719,-472.9425C404.5275,-464.5405 410.0796,-454.8391 415.8195,-444.8096"/>
<polygon fill="#000000" stroke="#000000" points="396.5352,-471.4594 394.6058,-481.877 402.6106,-474.9364 396.5352,-471.4594"/>
<polygon fill="#000000" stroke="#000000" points="418.9686,-446.3535 420.898,-435.9359 412.8932,-442.8765 418.9686,-446.3535"/>
</g>
<!-- Add Instance -->
<g id="node16" class="node">
<title>Add Instance</title>
<ellipse fill="none" stroke="#000000" cx="297.1773" cy="-369.0494" rx="67.289" ry="67.289"/>
<text text-anchor="middle" x="297.1773" y="-364.8494" font-family="Arial" font-size="14.00" fill="#000000">Add Instance</text>
</g>
<!-- Deep Components Instantiator Tool&#45;&gt;Add Instance -->
<g id="edge17" class="edge">
<title>Deep Components Instantiator Tool&#45;&gt;Add Instance</title>
<path fill="none" stroke="#000000" d="M366.4136,-473.3411C358.7991,-461.8712 349.5416,-447.9266 340.3065,-434.0156"/>
<polygon fill="#000000" stroke="#000000" points="363.6335,-475.4816 372.0803,-481.877 369.4654,-471.61 363.6335,-475.4816"/>
<polygon fill="#000000" stroke="#000000" points="343.021,-431.7762 334.5741,-425.3808 337.1891,-435.6479 343.021,-431.7762"/>
</g>
<!-- Character Glyph&#45;&gt;Deep Components Instantiator Tool -->
<g id="edge12" class="edge">
<title>Character Glyph&#45;&gt;Deep Components Instantiator Tool</title>
<path fill="none" stroke="#000000" d="M322.1217,-554.3041C332.3237,-545.3927 344.743,-534.5445 355.7833,-524.9009"/>
<polygon fill="#000000" stroke="#000000" points="358.2983,-527.3514 363.5271,-518.1367 353.6932,-522.0794 358.2983,-527.3514"/>
</g>
<!-- Visual Feedback (UI) -->
<g id="node18" class="node">
<title>Visual Feedback (UI)</title>
<ellipse fill="#00ff00" stroke="#000000" cx="101.1773" cy="-500.0989" rx="101.355" ry="18"/>
<text text-anchor="middle" x="101.1773" y="-495.8989" font-family="Arial" font-size="14.00" fill="#000000">Visual Feedback (UI)</text>
</g>
<!-- Character Glyph&#45;&gt;Visual Feedback (UI) -->
<g id="edge20" class="edge">
<title>Character Glyph&#45;&gt;Visual Feedback (UI)</title>
<path fill="none" stroke="#000000" d="M241.7384,-551.0523C214.3653,-541.1295 182.1101,-529.437 155.407,-519.7571"/>
<polygon fill="#000000" stroke="#000000" points="240.888,-554.4668 251.4822,-554.5844 243.2736,-547.8859 240.888,-554.4668"/>
<polygon fill="#000000" stroke="#000000" points="156.4337,-516.4065 145.8395,-516.2889 154.048,-522.9875 156.4337,-516.4065"/>
</g>
<!-- GlyphsCompositionRules DB -->
<g id="node14" class="node">
<title>GlyphsCompositionRules DB</title>
<polygon fill="#ffc0cb" stroke="#000000" points="309.948,-627.5989 309.948,-663.5989 506.4066,-663.5989 506.4066,-627.5989 309.948,-627.5989"/>
<text text-anchor="middle" x="408.1773" y="-641.3989" font-family="Arial" font-size="14.00" fill="#000000">GlyphsCompositionRules DB</text>
</g>
<!-- GlyphsCompositionRules DB&#45;&gt;Deep Components Instantiator Tool -->
<g id="edge14" class="edge">
<title>GlyphsCompositionRules DB&#45;&gt;Deep Components Instantiator Tool</title>
<path fill="none" stroke="#000000" d="M403.5387,-617.4774C399.304,-591.8045 393.0762,-554.0484 388.8354,-528.3385"/>
<polygon fill="#000000" stroke="#000000" points="400.1053,-618.1684 405.1862,-627.4654 407.012,-617.0291 400.1053,-618.1684"/>
<polygon fill="#000000" stroke="#000000" points="392.287,-527.7579 387.2061,-518.4609 385.3804,-528.8972 392.287,-527.7579"/>
</g>
<!-- GlyphsCompositionRules DB&#45;&gt;Character Glyph -->
<g id="edge13" class="edge">
<title>GlyphsCompositionRules DB&#45;&gt;Character Glyph</title>
<path fill="none" stroke="#000000" d="M373.2921,-621.7987C361.363,-613.6602 348.0234,-604.5593 336.092,-596.4192"/>
<polygon fill="#000000" stroke="#000000" points="371.4947,-624.8094 381.7279,-627.554 375.4398,-619.0269 371.4947,-624.8094"/>
<polygon fill="#000000" stroke="#000000" points="337.9265,-593.4338 327.6933,-590.6893 333.9815,-599.2163 337.9265,-593.4338"/>
</g>
<!-- Select Instance&#45;&gt;{DeepComponentGlyph:{}} -->
<g id="edge16" class="edge">
<title>Select Instance&#45;&gt;{DeepComponentGlyph:{}}</title>
<path fill="none" stroke="#000000" d="M498.1285,-302.5039C506.0551,-288.9619 513.9562,-275.4634 520.4875,-264.305"/>
<polygon fill="#000000" stroke="#000000" points="523.5912,-265.9311 525.6222,-255.5328 517.55,-262.395 523.5912,-265.9311"/>
</g>
<!-- {DeepComponentGlyph:(UUID, Offset)} -->
<g id="node19" class="node">
<title>{DeepComponentGlyph:(UUID, Offset)}</title>
<polygon fill="none" stroke="#000000" points="167.0434,-219.5 167.0434,-255.5 427.3112,-255.5 427.3112,-219.5 167.0434,-219.5"/>
<text text-anchor="middle" x="297.1773" y="-233.3" font-family="Arial" font-size="14.00" fill="#000000">{DeepComponentGlyph:(UUID, Offset)}</text>
</g>
<!-- Select Instance&#45;&gt;{DeepComponentGlyph:(UUID, Offset)} -->
<g id="edge23" class="edge">
<title>Select Instance&#45;&gt;{DeepComponentGlyph:(UUID, Offset)}</title>
<path fill="none" stroke="#000000" d="M402.5661,-316.772C392.9123,-308.3103 382.8701,-299.7796 373.1773,-292 360.1936,-281.579 345.4179,-270.7624 332.3688,-261.539"/>
<polygon fill="#000000" stroke="#000000" points="334.2768,-258.6022 324.0792,-255.7282 330.2587,-264.3342 334.2768,-258.6022"/>
</g>
<!-- Add Instance&#45;&gt;{DeepComponentGlyph:{}} -->
<g id="edge19" class="edge">
<title>Add Instance&#45;&gt;{DeepComponentGlyph:{}}</title>
<path fill="none" stroke="#000000" d="M341.1465,-317.5493C350.9698,-308.1268 361.8568,-299.0574 373.1773,-292 395.9667,-277.7926 422.879,-266.8388 448.1984,-258.6068"/>
<polygon fill="#000000" stroke="#000000" points="449.3227,-261.9223 457.8124,-255.5839 447.223,-255.2446 449.3227,-261.9223"/>
</g>
<!-- Add Instance&#45;&gt;[LayerNames] -->
<g id="edge18" class="edge">
<title>Add Instance&#45;&gt;[LayerNames]</title>
<path fill="none" stroke="#000000" d="M228.8617,-331.8049C201.5785,-312.9956 173.1317,-287.4384 158.1773,-256 151.1136,-241.15 154.8976,-235.1141 158.1773,-219 165.2075,-184.4595 162.4558,-168.9875 189.1773,-146 211.62,-126.6935 285.2699,-110.7002 339.4844,-101.1385"/>
<polygon fill="#000000" stroke="#000000" points="227.0157,-334.7808 237.2754,-337.4247 230.9037,-328.9599 227.0157,-334.7808"/>
<polygon fill="#000000" stroke="#000000" points="340.1079,-104.5827 349.3645,-99.4286 338.9141,-97.6852 340.1079,-104.5827"/>
</g>
<!-- Add Instance&#45;&gt;{DeepComponentGlyph:(UUID, Offset)} -->
<g id="edge22" class="edge">
<title>Add Instance&#45;&gt;{DeepComponentGlyph:(UUID, Offset)}</title>
<path fill="none" stroke="#000000" d="M297.1773,-301.348C297.1773,-288.8259 297.1773,-276.3971 297.1773,-265.8789"/>
<polygon fill="#000000" stroke="#000000" points="300.6774,-265.6856 297.1773,-255.6856 293.6774,-265.6856 300.6774,-265.6856"/>
</g>
<!-- Character GlyphLib -->
<g id="node17" class="node">
<title>Character GlyphLib</title>
<polygon fill="#ffff00" stroke="#000000" points="197.8905,-146.5 197.8905,-182.5 334.4641,-182.5 334.4641,-146.5 197.8905,-146.5"/>
<text text-anchor="middle" x="266.1773" y="-160.3" font-family="Arial" font-size="14.00" fill="#000000">Character GlyphLib</text>
</g>
<!-- Visual Feedback (UI)&#45;&gt;Character GlyphLib -->
<g id="edge21" class="edge">
<title>Visual Feedback (UI)&#45;&gt;Character GlyphLib</title>
<path fill="none" stroke="#000000" d="M99.2629,-471.7927C97.071,-417.1198 99.7025,-295.64 158.1773,-219 168.5606,-205.3912 183.2794,-194.9236 198.5207,-186.9764"/>
<polygon fill="#000000" stroke="#000000" points="95.7681,-471.9856 99.7505,-481.8034 102.7598,-471.645 95.7681,-471.9856"/>
<polygon fill="#000000" stroke="#000000" points="200.0728,-190.1136 207.5261,-182.5837 197.0039,-183.8221 200.0728,-190.1136"/>
</g>
<!-- {DeepComponentGlyph:(UUID, Offset)}&#45;&gt;Character GlyphLib -->
<g id="edge24" class="edge">
<title>{DeepComponentGlyph:(UUID, Offset)}&#45;&gt;Character GlyphLib</title>
<path fill="none" stroke="#000000" d="M289.5144,-219.4551C285.9747,-211.1196 281.695,-201.0416 277.7723,-191.8042"/>
<polygon fill="#000000" stroke="#000000" points="280.9899,-190.4267 273.8595,-182.5904 274.5468,-193.1629 280.9899,-190.4267"/>
</g>
</g>
</svg>
