<?xml version="1.0" encoding="UTF-8" standalone="no"?>
<!DOCTYPE svg PUBLIC "-//W3C//DTD SVG 1.1//EN"
 "http://www.w3.org/Graphics/SVG/1.1/DTD/svg11.dtd">
<!-- Generated by graphviz version 2.43.0 (0)
 -->
<!-- Title: Deep Component Binary Structure Pages: 1 -->
<svg width="800pt" height="220pt"
 viewBox="0.00 0.00 799.75 220.05" xmlns="http://www.w3.org/2000/svg" xmlns:xlink="http://www.w3.org/1999/xlink">
<g id="graph0" class="graph" transform="scale(1 1) rotate(0) translate(4 216.05)">
<title>Deep Component Binary Structure</title>
<polygon fill="white" stroke="transparent" points="-4,4 -4,-216.05 795.75,-216.05 795.75,4 -4,4"/>
<!-- GLYF -->
<g id="node1" class="node">
<title>GLYF</title>
<ellipse fill="cyan" stroke="cyan" cx="185.07" cy="-106.02" rx="32.14" ry="32.14"/>
<text text-anchor="middle" x="185.07" y="-101.82" font-family="Times,serif" font-size="14.00">GLYF</text>
</g>
<!-- GVAR -->
<g id="node2" class="node">
<title>GVAR</title>
<ellipse fill="pink" stroke="pink" cx="415.07" cy="-106.02" rx="34.05" ry="34.05"/>
<text text-anchor="middle" x="415.07" y="-101.82" font-family="Times,serif" font-size="14.00">GVAR</text>
</g>
<!-- FVAR -->
<g id="node3" class="node">
<title>FVAR</title>
<ellipse fill="yellow" stroke="yellow" cx="690.07" cy="-106.02" rx="32.61" ry="32.61"/>
<text text-anchor="middle" x="690.07" y="-101.82" font-family="Times,serif" font-size="14.00">FVAR</text>
</g>
<!-- faev -->
<g id="node13" class="node">
<title>faev</title>
<polygon fill="yellow" stroke="yellow" points="362.45,-30 223.69,-30 223.69,-6 362.45,-6 374.45,-18 362.45,-30"/>
<text text-anchor="middle" x="299.07" y="-13.8" font-family="Times,serif" font-size="14.00"> &lt;AxisAtomicElement&gt;</text>
</g>
<!-- FVAR&#45;&#45;faev -->
<g id="edge16" class="edge">
<title>FVAR&#45;&#45;faev</title>
<path fill="none" stroke="black" d="M666.57,-83.16C660.87,-78.85 654.54,-74.8 648.07,-72 600.27,-51.31 462.05,-34.72 374.58,-25.92"/>
</g>
<!-- fdcv -->
<g id="node14" class="node">
<title>fdcv</title>
<polygon fill="yellow" stroke="yellow" points="638.18,-30 493.96,-30 493.96,-6 638.18,-6 650.18,-18 638.18,-30"/>
<text text-anchor="middle" x="572.07" y="-13.8" font-family="Times,serif" font-size="14.00"> &lt;AxisDeepComponent&gt;</text>
</g>
<!-- FVAR&#45;&#45;fdcv -->
<g id="edge17" class="edge">
<title>FVAR&#45;&#45;fdcv</title>
<path fill="none" stroke="black" d="M664.93,-84.88C659.42,-80.57 653.59,-76.09 648.07,-72 631.4,-59.65 612.23,-46.29 597.32,-36.07"/>
</g>
<!-- fcgv -->
<g id="node15" class="node">
<title>fcgv</title>
<polygon fill="yellow" stroke="yellow" points="743.81,-30 694.33,-30 694.33,-6 743.81,-6 755.81,-18 743.81,-30"/>
<text text-anchor="middle" x="725.07" y="-13.8" font-family="Times,serif" font-size="14.00"> &lt;Axis&gt;</text>
</g>
<!-- FVAR&#45;&#45;fcgv -->
<g id="edge18" class="edge">
<title>FVAR&#45;&#45;fcgv</title>
<path fill="none" stroke="black" d="M702.12,-75.42C707.45,-62.3 713.55,-47.33 718.11,-36.1"/>
</g>
<!-- ae -->
<g id="node4" class="node">
<title>ae</title>
<path fill="cyan" stroke="black" d="M108.21,-208.78C108.21,-210.58 83.95,-212.05 54.07,-212.05 24.2,-212.05 -0.07,-210.58 -0.07,-208.78 -0.07,-208.78 -0.07,-179.32 -0.07,-179.32 -0.07,-177.52 24.2,-176.05 54.07,-176.05 83.95,-176.05 108.21,-177.52 108.21,-179.32 108.21,-179.32 108.21,-208.78 108.21,-208.78"/>
<path fill="none" stroke="black" d="M108.21,-208.78C108.21,-206.97 83.95,-205.5 54.07,-205.5 24.2,-205.5 -0.07,-206.97 -0.07,-208.78"/>
<text text-anchor="middle" x="54.07" y="-189.85" font-family="Times,serif" font-size="14.00">Atomic Element</text>
</g>
<!-- ae&#45;&#45;GLYF -->
<g id="edge1" class="edge">
<title>ae&#45;&#45;GLYF</title>
<path fill="none" stroke="black" d="M80.27,-175.85C102.96,-160.94 135.66,-139.47 158.47,-124.49"/>
</g>
<!-- aelg -->
<g id="node7" class="node">
<title>aelg</title>
<polygon fill="cyan" stroke="cyan" points="84.63,-118.02 11.51,-118.02 11.51,-94.02 84.63,-94.02 96.63,-106.02 84.63,-118.02"/>
<text text-anchor="middle" x="54.07" y="-101.82" font-family="Times,serif" font-size="14.00">n &lt;contour&gt;</text>
</g>
<!-- ae&#45;&#45;aelg -->
<g id="edge4" class="edge">
<title>ae&#45;&#45;aelg</title>
<path fill="none" stroke="black" d="M54.07,-175.64C54.07,-160.62 54.07,-139.04 54.07,-124.11"/>
</g>
<!-- dc -->
<g id="node5" class="node">
<title>dc</title>
<path fill="cyan" stroke="black" d="M320.44,-208.78C320.44,-210.58 294.73,-212.05 263.07,-212.05 231.42,-212.05 205.7,-210.58 205.7,-208.78 205.7,-208.78 205.7,-179.32 205.7,-179.32 205.7,-177.52 231.42,-176.05 263.07,-176.05 294.73,-176.05 320.44,-177.52 320.44,-179.32 320.44,-179.32 320.44,-208.78 320.44,-208.78"/>
<path fill="none" stroke="black" d="M320.44,-208.78C320.44,-206.97 294.73,-205.5 263.07,-205.5 231.42,-205.5 205.7,-206.97 205.7,-208.78"/>
<text text-anchor="middle" x="263.07" y="-189.85" font-family="Times,serif" font-size="14.00">Deep Component</text>
</g>
<!-- dc&#45;&#45;GLYF -->
<g id="edge2" class="edge">
<title>dc&#45;&#45;GLYF</title>
<path fill="none" stroke="black" d="M247.29,-175.64C235.53,-162.68 219.36,-144.84 206.45,-130.6"/>
</g>
<!-- dcog -->
<g id="node8" class="node">
<title>dcog</title>
<polygon fill="cyan" stroke="cyan" points="350.61,-118.02 235.53,-118.02 235.53,-94.02 350.61,-94.02 362.61,-106.02 350.61,-118.02"/>
<text text-anchor="middle" x="299.07" y="-101.82" font-family="Times,serif" font-size="14.00">n &lt;atomicElement&gt;</text>
</g>
<!-- dc&#45;&#45;dcog -->
<g id="edge5" class="edge">
<title>dc&#45;&#45;dcog</title>
<path fill="none" stroke="black" d="M270.36,-175.64C276.64,-160.62 285.67,-139.04 291.92,-124.11"/>
</g>
<!-- cg -->
<g id="node6" class="node">
<title>cg</title>
<path fill="cyan" stroke="black" d="M616.48,-208.78C616.48,-210.58 592.09,-212.05 562.07,-212.05 532.05,-212.05 507.66,-210.58 507.66,-208.78 507.66,-208.78 507.66,-179.32 507.66,-179.32 507.66,-177.52 532.05,-176.05 562.07,-176.05 592.09,-176.05 616.48,-177.52 616.48,-179.32 616.48,-179.32 616.48,-208.78 616.48,-208.78"/>
<path fill="none" stroke="black" d="M616.48,-208.78C616.48,-206.97 592.09,-205.5 562.07,-205.5 532.05,-205.5 507.66,-206.97 507.66,-208.78"/>
<text text-anchor="middle" x="562.07" y="-189.85" font-family="Times,serif" font-size="14.00">Character Glyph</text>
</g>
<!-- cg&#45;&#45;GLYF -->
<g id="edge3" class="edge">
<title>cg&#45;&#45;GLYF</title>
<path fill="none" stroke="black" d="M507.54,-177.86C504.68,-177.21 501.85,-176.6 499.07,-176.05 379.06,-152.06 338.57,-188.23 226.07,-140.05 219.69,-137.32 213.48,-133.29 207.9,-128.99"/>
</g>
<!-- cglg -->
<g id="node9" class="node">
<title>cglg</title>
<polygon fill="cyan" stroke="cyan" points="627.12,-118.02 505.02,-118.02 505.02,-94.02 627.12,-94.02 639.12,-106.02 627.12,-118.02"/>
<text text-anchor="middle" x="572.07" y="-101.82" font-family="Times,serif" font-size="14.00">n &lt;deepComponent&gt;</text>
</g>
<!-- cg&#45;&#45;cglg -->
<g id="edge6" class="edge">
<title>cg&#45;&#45;cglg</title>
<path fill="none" stroke="black" d="M564.09,-175.64C565.84,-160.62 568.35,-139.04 570.08,-124.11"/>
</g>
<!-- dcog&#45;&#45;faev -->
<g id="edge20" class="edge">
<title>dcog&#45;&#45;faev</title>
<path fill="none" stroke="black" d="M299.07,-87.62C299.07,-72.59 299.07,-51.02 299.07,-36.09"/>
</g>
<!-- cglg&#45;&#45;fdcv -->
<g id="edge19" class="edge">
<title>cglg&#45;&#45;fdcv</title>
<path fill="none" stroke="black" d="M572.07,-87.62C572.07,-72.59 572.07,-51.02 572.07,-36.09"/>
</g>
<!-- aelv -->
<g id="node10" class="node">
<title>aelv</title>
<polygon fill="pink" stroke="pink" points="176.57,-206.05 125.57,-206.05 125.57,-182.05 176.57,-182.05 188.57,-194.05 176.57,-206.05"/>
<text text-anchor="middle" x="157.07" y="-189.85" font-family="Times,serif" font-size="14.00"> &lt;delta&gt;</text>
</g>
<!-- aelv&#45;&#45;GVAR -->
<g id="edge10" class="edge">
<title>aelv&#45;&#45;GVAR</title>
<path fill="none" stroke="black" d="M188.73,-178.92C191.53,-177.88 194.33,-176.9 197.07,-176.05 272.87,-152.4 299.86,-173.07 372.07,-140.05 378.23,-137.23 384.33,-133.39 389.91,-129.31"/>
</g>
<!-- aelv&#45;&#45;aelg -->
<g id="edge7" class="edge">
<title>aelv&#45;&#45;aelg</title>
<path fill="none" stroke="black" d="M136.23,-175.64C118.24,-160.62 92.41,-139.04 74.53,-124.11"/>
</g>
<!-- aelv&#45;&#45;faev -->
<g id="edge13" class="edge">
<title>aelv&#45;&#45;faev</title>
<path fill="none" stroke="black" d="M148.65,-175.98C137.53,-150.75 121.82,-103.12 144.07,-72 162.35,-46.44 193.72,-33.07 223.49,-26.13"/>
</g>
<!-- dcov -->
<g id="node11" class="node">
<title>dcov</title>
<polygon fill="pink" stroke="pink" points="477.71,-206.05 338.43,-206.05 338.43,-182.05 477.71,-182.05 489.71,-194.05 477.71,-206.05"/>
<text text-anchor="middle" x="414.07" y="-189.85" font-family="Times,serif" font-size="14.00"> &lt;deltaAtomicElement&gt;</text>
</g>
<!-- dcov&#45;&#45;GVAR -->
<g id="edge11" class="edge">
<title>dcov&#45;&#45;GVAR</title>
<path fill="none" stroke="black" d="M414.27,-175.64C414.39,-165.43 414.55,-152.19 414.69,-140.07"/>
</g>
<!-- dcov&#45;&#45;dcog -->
<g id="edge8" class="edge">
<title>dcov&#45;&#45;dcog</title>
<path fill="none" stroke="black" d="M391.08,-175.85C371.02,-160.84 342.07,-139.19 322.03,-124.2"/>
</g>
<!-- dcov&#45;&#45;fdcv -->
<g id="edge14" class="edge">
<title>dcov&#45;&#45;fdcv</title>
<path fill="none" stroke="black" d="M429.58,-176.02C438.41,-165.92 449.41,-152.67 458.07,-140.05 477.66,-111.48 472.83,-97.68 496.07,-72 508.92,-57.81 526.24,-45.36 541.11,-36.1"/>
</g>
<!-- cglv -->
<g id="node12" class="node">
<title>cglv</title>
<polygon fill="pink" stroke="pink" points="779.94,-206.05 634.2,-206.05 634.2,-182.05 779.94,-182.05 791.94,-194.05 779.94,-206.05"/>
<text text-anchor="middle" x="713.07" y="-189.85" font-family="Times,serif" font-size="14.00"> &lt;deltaDeepComponent&gt;</text>
</g>
<!-- cglv&#45;&#45;GVAR -->
<g id="edge12" class="edge">
<title>cglv&#45;&#45;GVAR</title>
<path fill="none" stroke="black" d="M634.2,-176.73C592.68,-167.41 541.17,-154.66 496.07,-140.05 479.17,-134.57 460.8,-127.2 445.83,-120.82"/>
</g>
<!-- cglv&#45;&#45;cglg -->
<g id="edge9" class="edge">
<title>cglv&#45;&#45;cglg</title>
<path fill="none" stroke="black" d="M684.88,-175.85C660.28,-160.84 624.79,-139.19 600.22,-124.2"/>
</g>
<!-- cglv&#45;&#45;fcgv -->
<g id="edge15" class="edge">
<title>cglv&#45;&#45;fcgv</title>
<path fill="none" stroke="black" d="M720.96,-175.79C725.18,-165.63 729.93,-152.38 732.07,-140.05 738.42,-103.55 732.73,-60.02 728.55,-36.38"/>
</g>
</g>
</svg>
