<?xml version="1.0" encoding="UTF-8" standalone="no"?>
<!DOCTYPE svg PUBLIC "-//W3C//DTD SVG 1.1//EN"
 "http://www.w3.org/Graphics/SVG/1.1/DTD/svg11.dtd">
<!-- Generated by graphviz version 2.40.1 (20161225.0304)
 -->
<!-- Title: %0 Pages: 1 -->
<svg width="2118pt" height="407pt"
 viewBox="0.00 0.00 2118.29 406.89" xmlns="http://www.w3.org/2000/svg" xmlns:xlink="http://www.w3.org/1999/xlink">
<g id="graph0" class="graph" transform="scale(1 1) rotate(0) translate(4 402.8944)">
<title>%0</title>
<polygon fill="#ffffff" stroke="transparent" points="-4,4 -4,-402.8944 2114.2927,-402.8944 2114.2927,4 -4,4"/>
<!-- Master UFO -->
<g id="node1" class="node">
<title>Master UFO</title>
<polygon fill="#add8e6" stroke="#000000" points="52.1206,-49.5 52.1206,-85.5 144.338,-85.5 144.338,-49.5 52.1206,-49.5"/>
<text text-anchor="middle" x="98.2293" y="-63.4" font-family="Arial" font-size="14.00" fill="#000000">Master UFO</text>
</g>
<!-- Basic Character Set -->
<g id="node2" class="node">
<title>Basic Character Set</title>
<polygon fill="none" stroke="#000000" points="232.4586,-24.5 232.4586,-60.5 372.9242,-60.5 372.9242,-24.5 232.4586,-24.5"/>
<text text-anchor="middle" x="302.6914" y="-38.4" font-family="Arial" font-size="14.00" fill="#000000">Basic Character Set</text>
</g>
<!-- Master UFO&#45;&gt;Basic Character Set -->
<g id="edge1" class="edge">
<title>Master UFO&#45;&gt;Basic Character Set</title>
<path fill="none" stroke="#000000" d="M144.3695,-61.8583C167.3461,-59.049 195.7975,-55.5701 222.2164,-52.3398"/>
<polygon fill="#000000" stroke="#000000" points="222.7253,-55.8038 232.2265,-51.1159 221.8756,-48.8555 222.7253,-55.8038"/>
</g>
<!-- Character Glyph -->
<g id="node13" class="node">
<title>Character Glyph</title>
<polygon fill="#ffff00" stroke="#000000" points="243.7405,-80.5 243.7405,-116.5 361.6423,-116.5 361.6423,-80.5 243.7405,-80.5"/>
<text text-anchor="middle" x="302.6914" y="-94.4" font-family="Arial" font-size="14.00" fill="#000000">Character Glyph</text>
</g>
<!-- Master UFO&#45;&gt;Character Glyph -->
<g id="edge11" class="edge">
<title>Master UFO&#45;&gt;Character Glyph</title>
<path fill="none" stroke="#000000" d="M144.3695,-74.4957C170.6039,-78.4732 203.9759,-83.533 233.3102,-87.9806"/>
<polygon fill="#000000" stroke="#000000" points="233.0877,-91.4868 243.4994,-89.5255 234.1371,-84.5659 233.0877,-91.4868"/>
</g>
<!-- Selection to DeepComponent -->
<g id="node4" class="node">
<title>Selection to DeepComponent</title>
<ellipse fill="#00ff00" stroke="#000000" cx="572.3656" cy="-39.5" rx="137.3029" ry="18"/>
<text text-anchor="middle" x="572.3656" y="-35.3" font-family="Arial" font-size="14.00" fill="#000000">Selection to DeepComponent</text>
</g>
<!-- Basic Character Set&#45;&gt;Selection to DeepComponent -->
<g id="edge2" class="edge">
<title>Basic Character Set&#45;&gt;Selection to DeepComponent</title>
<path fill="none" stroke="#000000" d="M373.1929,-41.7157C389.4547,-41.5348 407.3472,-41.3358 425.533,-41.1334"/>
<polygon fill="#000000" stroke="#000000" points="425.6976,-44.6319 435.658,-41.0208 425.6196,-37.6324 425.6976,-44.6319"/>
</g>
<!-- Deep Components Editor Tool -->
<g id="node3" class="node">
<title>Deep Components Editor Tool</title>
<ellipse fill="#00ff00" stroke="#000000" cx="912.7044" cy="-18.5" rx="140.7947" ry="18"/>
<text text-anchor="middle" x="912.7044" y="-14.3" font-family="Arial" font-size="14.00" fill="#000000">Deep Components Editor Tool</text>
</g>
<!-- DeepComponent Storage UFO -->
<g id="node5" class="node">
<title>DeepComponent Storage UFO</title>
<polygon fill="#add8e6" stroke="#000000" points="1161.9621,-.5 1161.9621,-36.5 1370.1191,-36.5 1370.1191,-.5 1161.9621,-.5"/>
<text text-anchor="middle" x="1266.0406" y="-14.4" font-family="Arial" font-size="14.00" fill="#000000">DeepComponent Storage UFO</text>
</g>
<!-- Deep Components Editor Tool&#45;&gt;DeepComponent Storage UFO -->
<g id="edge4" class="edge">
<title>Deep Components Editor Tool&#45;&gt;DeepComponent Storage UFO</title>
<path fill="none" stroke="#000000" d="M1053.6215,-18.5C1086.2495,-18.5 1120.5755,-18.5 1151.8923,-18.5"/>
<polygon fill="#000000" stroke="#000000" points="1151.9485,-22.0001 1161.9485,-18.5 1151.9484,-15.0001 1151.9485,-22.0001"/>
</g>
<!-- Selection to DeepComponent&#45;&gt;Deep Components Editor Tool -->
<g id="edge3" class="edge">
<title>Selection to DeepComponent&#45;&gt;Deep Components Editor Tool</title>
<path fill="none" stroke="#000000" d="M706.9338,-31.1967C729.5086,-29.8038 752.9585,-28.3568 775.5965,-26.96"/>
<polygon fill="#000000" stroke="#000000" points="706.4458,-27.7201 696.6804,-31.8294 706.877,-34.7068 706.4458,-27.7201"/>
<polygon fill="#000000" stroke="#000000" points="775.8223,-30.4528 785.5877,-26.3435 775.3911,-23.4661 775.8223,-30.4528"/>
</g>
<!-- {DeepComponentGlyph:{}} -->
<g id="node6" class="node">
<title>{DeepComponentGlyph:{}}</title>
<polygon fill="none" stroke="#000000" points="1478.4795,-103.5 1478.4795,-139.5 1659.4387,-139.5 1659.4387,-103.5 1478.4795,-103.5"/>
<text text-anchor="middle" x="1568.9591" y="-117.4" font-family="Arial" font-size="14.00" fill="#000000">{DeepComponentGlyph:{}}</text>
</g>
<!-- DeepComponent Storage UFO&#45;&gt;{DeepComponentGlyph:{}} -->
<g id="edge5" class="edge">
<title>DeepComponent Storage UFO&#45;&gt;{DeepComponentGlyph:{}}</title>
<path fill="none" stroke="#000000" d="M1370.1472,-32.2469C1394.2918,-36.9986 1419.6063,-43.275 1442.4795,-51.5 1474.8709,-63.1476 1508.8593,-82.4077 1533.4356,-97.7797"/>
<polygon fill="#000000" stroke="#000000" points="1531.7258,-100.84 1542.0438,-103.2459 1535.4782,-94.9307 1531.7258,-100.84"/>
</g>
<!-- DeepComponent Glyph -->
<g id="node8" class="node">
<title>DeepComponent Glyph</title>
<polygon fill="#ffff00" stroke="#000000" points="1487.8287,-18.5 1487.8287,-54.5 1650.0895,-54.5 1650.0895,-18.5 1487.8287,-18.5"/>
<text text-anchor="middle" x="1568.9591" y="-32.4" font-family="Arial" font-size="14.00" fill="#000000">DeepComponent Glyph</text>
</g>
<!-- DeepComponent Storage UFO&#45;&gt;DeepComponent Glyph -->
<g id="edge7" class="edge">
<title>DeepComponent Storage UFO&#45;&gt;DeepComponent Glyph</title>
<path fill="none" stroke="#000000" d="M1370.288,-24.6946C1405.0293,-26.759 1443.4529,-29.0422 1477.1776,-31.0462"/>
<polygon fill="#000000" stroke="#000000" points="1477.2937,-34.5591 1487.4837,-31.6586 1477.7089,-27.5715 1477.2937,-34.5591"/>
</g>
<!-- Storage FontLib -->
<g id="node7" class="node">
<title>Storage FontLib</title>
<polygon fill="#add8e6" stroke="#000000" points="1695.4387,-103.5 1695.4387,-139.5 1811.0277,-139.5 1811.0277,-103.5 1695.4387,-103.5"/>
<text text-anchor="middle" x="1753.2332" y="-117.4" font-family="Arial" font-size="14.00" fill="#000000">Storage FontLib</text>
</g>
<!-- {DeepComponentGlyph:{}}&#45;&gt;Storage FontLib -->
<g id="edge6" class="edge">
<title>{DeepComponentGlyph:{}}&#45;&gt;Storage FontLib</title>
<path fill="none" stroke="#000000" d="M1669.7575,-121.5C1674.9427,-121.5 1680.091,-121.5 1685.1359,-121.5"/>
<polygon fill="#000000" stroke="#000000" points="1669.4767,-118.0001 1659.4766,-121.5 1669.4766,-125.0001 1669.4767,-118.0001"/>
<polygon fill="#000000" stroke="#000000" points="1685.3248,-125.0001 1695.3248,-121.5 1685.3247,-118.0001 1685.3248,-125.0001"/>
</g>
<!-- Master Layers -->
<g id="node9" class="node">
<title>Master Layers</title>
<polygon fill="#ffff00" stroke="#000000" points="1700.8952,-38.5 1700.8952,-74.5 1805.5712,-74.5 1805.5712,-38.5 1700.8952,-38.5"/>
<text text-anchor="middle" x="1753.2332" y="-52.4" font-family="Arial" font-size="14.00" fill="#000000">Master Layers</text>
</g>
<!-- DeepComponent Glyph&#45;&gt;Master Layers -->
<g id="edge8" class="edge">
<title>DeepComponent Glyph&#45;&gt;Master Layers</title>
<path fill="none" stroke="#000000" d="M1660.3595,-46.4201C1670.6138,-47.533 1680.8803,-48.6472 1690.6508,-49.7077"/>
<polygon fill="#000000" stroke="#000000" points="1660.6401,-42.93 1650.3208,-45.3305 1659.8847,-49.8892 1660.6401,-42.93"/>
<polygon fill="#000000" stroke="#000000" points="1690.3126,-53.1914 1700.6319,-50.791 1691.0679,-46.2323 1690.3126,-53.1914"/>
</g>
<!-- [LayerNames] -->
<g id="node10" class="node">
<title>[LayerNames]</title>
<polygon fill="none" stroke="#000000" points="1847.0277,-166.5 1847.0277,-202.5 1950.1497,-202.5 1950.1497,-166.5 1847.0277,-166.5"/>
<text text-anchor="middle" x="1898.5887" y="-180.4" font-family="Arial" font-size="14.00" fill="#000000">[LayerNames]</text>
</g>
<!-- Master Layers&#45;&gt;[LayerNames] -->
<g id="edge9" class="edge">
<title>Master Layers&#45;&gt;[LayerNames]</title>
<path fill="none" stroke="#000000" d="M1784.4632,-74.6076C1793.3471,-80.2536 1802.8301,-86.7747 1811.0277,-93.5 1835.2029,-113.3333 1859.619,-139.3129 1876.5038,-158.4342"/>
<polygon fill="#000000" stroke="#000000" points="1874.0438,-160.9384 1883.2563,-166.1712 1879.3177,-156.3356 1874.0438,-160.9384"/>
</g>
<!-- Storage GlyphLib -->
<g id="node11" class="node">
<title>Storage GlyphLib</title>
<polygon fill="#ffff00" stroke="#000000" points="1986.1497,-166.5 1986.1497,-202.5 2110.2927,-202.5 2110.2927,-166.5 1986.1497,-166.5"/>
<text text-anchor="middle" x="2048.2212" y="-180.4" font-family="Arial" font-size="14.00" fill="#000000">Storage GlyphLib</text>
</g>
<!-- [LayerNames]&#45;&gt;Storage GlyphLib -->
<g id="edge10" class="edge">
<title>[LayerNames]&#45;&gt;Storage GlyphLib</title>
<path fill="none" stroke="#000000" d="M1960.6277,-184.5C1965.6243,-184.5 1970.6992,-184.5 1975.7598,-184.5"/>
<polygon fill="#000000" stroke="#000000" points="1960.503,-181.0001 1950.5029,-184.5 1960.5029,-188.0001 1960.503,-181.0001"/>
<polygon fill="#000000" stroke="#000000" points="1976.0973,-188.0001 1986.0973,-184.5 1976.0973,-181.0001 1976.0973,-188.0001"/>
</g>
<!-- Deep Components Instantiator Tool -->
<g id="node12" class="node">
<title>Deep Components Instantiator Tool</title>
<ellipse fill="#00ff00" stroke="#000000" cx="572.3656" cy="-159.5" rx="163.3829" ry="18"/>
<text text-anchor="middle" x="572.3656" y="-155.3" font-family="Arial" font-size="14.00" fill="#000000">Deep Components Instantiator Tool</text>
</g>
<!-- Select Instance -->
<g id="node15" class="node">
<title>Select Instance</title>
<ellipse fill="none" stroke="#000000" cx="912.7044" cy="-169.5" rx="77.0989" ry="77.0989"/>
<text text-anchor="middle" x="912.7044" y="-165.3" font-family="Arial" font-size="14.00" fill="#000000">Select Instance</text>
</g>
<!-- Deep Components Instantiator Tool&#45;&gt;Select Instance -->
<g id="edge15" class="edge">
<title>Deep Components Instantiator Tool&#45;&gt;Select Instance</title>
<path fill="none" stroke="#000000" d="M740.8452,-164.4503C770.0727,-165.3091 799.3668,-166.1699 825.278,-166.9312"/>
<polygon fill="#000000" stroke="#000000" points="740.6773,-160.944 730.5787,-164.1487 740.4716,-167.941 740.6773,-160.944"/>
<polygon fill="#000000" stroke="#000000" points="825.3113,-170.4336 835.4098,-167.2289 825.5169,-163.4366 825.3113,-170.4336"/>
</g>
<!-- Add Instance -->
<g id="node16" class="node">
<title>Add Instance</title>
<ellipse fill="none" stroke="#000000" cx="912.7044" cy="-331.5" rx="67.289" ry="67.289"/>
<text text-anchor="middle" x="912.7044" y="-327.3" font-family="Arial" font-size="14.00" fill="#000000">Add Instance</text>
</g>
<!-- Deep Components Instantiator Tool&#45;&gt;Add Instance -->
<g id="edge17" class="edge">
<title>Deep Components Instantiator Tool&#45;&gt;Add Instance</title>
<path fill="none" stroke="#000000" d="M616.4148,-181.7615C673.9647,-210.846 775.3814,-262.0999 843.3097,-296.4294"/>
<polygon fill="#000000" stroke="#000000" points="617.6921,-178.4855 607.1884,-177.0987 614.5348,-184.733 617.6921,-178.4855"/>
<polygon fill="#000000" stroke="#000000" points="841.746,-299.5607 852.2497,-300.9475 844.9034,-293.3132 841.746,-299.5607"/>
</g>
<!-- Character Glyph&#45;&gt;Deep Components Instantiator Tool -->
<g id="edge12" class="edge">
<title>Character Glyph&#45;&gt;Deep Components Instantiator Tool</title>
<path fill="none" stroke="#000000" d="M361.8726,-111.8867C399.623,-120.4258 449.0713,-131.611 490.5545,-140.9944"/>
<polygon fill="#000000" stroke="#000000" points="489.842,-144.4216 500.3678,-143.2142 491.3864,-137.5941 489.842,-144.4216"/>
</g>
<!-- Visual Feedback (UI) -->
<g id="node19" class="node">
<title>Visual Feedback (UI)</title>
<ellipse fill="#00ff00" stroke="#000000" cx="572.3656" cy="-95.5" rx="101.355" ry="18"/>
<text text-anchor="middle" x="572.3656" y="-91.3" font-family="Arial" font-size="14.00" fill="#000000">Visual Feedback (UI)</text>
</g>
<!-- Character Glyph&#45;&gt;Visual Feedback (UI) -->
<g id="edge21" class="edge">
<title>Character Glyph&#45;&gt;Visual Feedback (UI)</title>
<path fill="none" stroke="#000000" d="M371.8755,-97.7304C398.9989,-97.4286 430.8108,-97.0747 461.0027,-96.7389"/>
<polygon fill="#000000" stroke="#000000" points="371.833,-94.2305 361.8726,-97.8416 371.9109,-101.2301 371.833,-94.2305"/>
<polygon fill="#000000" stroke="#000000" points="461.21,-100.2369 471.1704,-96.6257 461.1321,-93.2373 461.21,-100.2369"/>
</g>
<!-- GlyphsCompositionRules DB -->
<g id="node14" class="node">
<title>GlyphsCompositionRules DB</title>
<polygon fill="#ffc0cb" stroke="#000000" points="0,-104.5 0,-140.5 196.4586,-140.5 196.4586,-104.5 0,-104.5"/>
<text text-anchor="middle" x="98.2293" y="-118.4" font-family="Arial" font-size="14.00" fill="#000000">GlyphsCompositionRules DB</text>
</g>
<!-- GlyphsCompositionRules DB&#45;&gt;Deep Components Instantiator Tool -->
<g id="edge14" class="edge">
<title>GlyphsCompositionRules DB&#45;&gt;Deep Components Instantiator Tool</title>
<path fill="none" stroke="#000000" d="M206.4913,-130.9484C272.368,-136.0892 357.2994,-142.717 428.7479,-148.2926"/>
<polygon fill="#000000" stroke="#000000" points="206.7127,-127.4551 196.4707,-130.1664 206.168,-134.4339 206.7127,-127.4551"/>
<polygon fill="#000000" stroke="#000000" points="428.4947,-151.7834 438.7367,-149.0721 429.0394,-144.8046 428.4947,-151.7834"/>
</g>
<!-- GlyphsCompositionRules DB&#45;&gt;Character Glyph -->
<g id="edge13" class="edge">
<title>GlyphsCompositionRules DB&#45;&gt;Character Glyph</title>
<path fill="none" stroke="#000000" d="M206.7339,-109.7636C215.8337,-108.6955 224.867,-107.6351 233.5439,-106.6166"/>
<polygon fill="#000000" stroke="#000000" points="206.0914,-106.3149 196.5676,-110.9569 206.9075,-113.2672 206.0914,-106.3149"/>
<polygon fill="#000000" stroke="#000000" points="234.025,-110.0843 243.5487,-105.4422 233.2089,-103.132 234.025,-110.0843"/>
</g>
<!-- Select Instance&#45;&gt;{DeepComponentGlyph:{}} -->
<g id="edge16" class="edge">
<title>Select Instance&#45;&gt;{DeepComponentGlyph:{}}</title>
<path fill="none" stroke="#000000" d="M989.2382,-159.93C1020.3425,-156.28 1056.6519,-152.3229 1089.6017,-149.5 1220.1604,-138.3147 1371.113,-130.3089 1468.1931,-125.7951"/>
<polygon fill="#000000" stroke="#000000" points="1468.4662,-129.2863 1478.2942,-125.329 1468.1435,-122.2938 1468.4662,-129.2863"/>
</g>
<!-- {DeepComponentGlyph:(UUID, Offset)} -->
<g id="node20" class="node">
<title>{DeepComponentGlyph:(UUID, Offset)}</title>
<polygon fill="none" stroke="#000000" points="1135.9067,-158.5 1135.9067,-194.5 1396.1745,-194.5 1396.1745,-158.5 1135.9067,-158.5"/>
<text text-anchor="middle" x="1266.0406" y="-172.4" font-family="Arial" font-size="14.00" fill="#000000">{DeepComponentGlyph:(UUID, Offset)}</text>
</g>
<!-- Select Instance&#45;&gt;{DeepComponentGlyph:(UUID, Offset)} -->
<g id="edge24" class="edge">
<title>Select Instance&#45;&gt;{DeepComponentGlyph:(UUID, Offset)}</title>
<path fill="none" stroke="#000000" d="M989.8089,-171.0275C1029.536,-171.8146 1079.236,-172.7992 1125.4865,-173.7155"/>
<polygon fill="#000000" stroke="#000000" points="1125.539,-177.2171 1135.6064,-173.9159 1125.6777,-170.2185 1125.539,-177.2171"/>
</g>
<!-- Add Instance&#45;&gt;[LayerNames] -->
<g id="edge18" class="edge">
<title>Add Instance&#45;&gt;[LayerNames]</title>
<path fill="none" stroke="#000000" d="M990.4581,-328.9168C1094.0914,-324.658 1282.9653,-314.0472 1442.4795,-289.5 1585.3487,-267.5142 1749.9066,-225.3814 1837.021,-201.7184"/>
<polygon fill="#000000" stroke="#000000" points="990.2443,-325.4224 980.393,-329.3214 990.5255,-332.4168 990.2443,-325.4224"/>
<polygon fill="#000000" stroke="#000000" points="1838.0156,-205.075 1846.7423,-199.067 1836.1737,-198.3217 1838.0156,-205.075"/>
</g>
<!-- {UUID:{Instance DeepCompo&#45;DesignSpace Location}} -->
<g id="node17" class="node">
<title>{UUID:{Instance DeepCompo&#45;DesignSpace Location}}</title>
<polygon fill="none" stroke="#000000" points="1089.6017,-243.5 1089.6017,-279.5 1442.4795,-279.5 1442.4795,-243.5 1089.6017,-243.5"/>
<text text-anchor="middle" x="1266.0406" y="-257.4" font-family="Arial" font-size="14.00" fill="#000000">{UUID:{Instance DeepCompo&#45;DesignSpace Location}}</text>
</g>
<!-- Add Instance&#45;&gt;{UUID:{Instance DeepCompo&#45;DesignSpace Location}} -->
<g id="edge19" class="edge">
<title>Add Instance&#45;&gt;{UUID:{Instance DeepCompo&#45;DesignSpace Location}}</title>
<path fill="none" stroke="#000000" d="M979.1642,-318.3335C1031.5239,-307.9605 1105.3872,-293.3273 1165.051,-281.5072"/>
<polygon fill="#000000" stroke="#000000" points="1165.7481,-284.9372 1174.8773,-279.5605 1164.3877,-278.0707 1165.7481,-284.9372"/>
</g>
<!-- Add Instance&#45;&gt;{DeepComponentGlyph:(UUID, Offset)} -->
<g id="edge23" class="edge">
<title>Add Instance&#45;&gt;{DeepComponentGlyph:(UUID, Offset)}</title>
<path fill="none" stroke="#000000" d="M972.5906,-299.7661C997.718,-286.3039 1027.1828,-270.3253 1053.6017,-255.5 1069.7553,-246.4352 1072.7098,-242.101 1089.6017,-234.5 1121.8456,-219.9909 1158.8394,-207.2698 1190.5978,-197.4671"/>
<polygon fill="#000000" stroke="#000000" points="1191.7283,-200.7816 1200.2747,-194.5198 1189.6888,-194.0853 1191.7283,-200.7816"/>
</g>
<!-- {UUID:{Instance DeepCompo&#45;DesignSpace Location}}&#45;&gt;{DeepComponentGlyph:{}} -->
<g id="edge20" class="edge">
<title>{UUID:{Instance DeepCompo&#45;DesignSpace Location}}&#45;&gt;{DeepComponentGlyph:{}}</title>
<path fill="none" stroke="#000000" d="M1361.5101,-243.4139C1389.5279,-234.8811 1418.9365,-222.4664 1442.4795,-204.5 1465.7045,-186.7763 1455.1454,-167.0799 1478.4795,-149.5 1480.8188,-147.7375 1483.2707,-146.0848 1485.808,-144.535"/>
<polygon fill="#000000" stroke="#000000" points="1487.6348,-147.5252 1494.7253,-139.6527 1484.2731,-141.3852 1487.6348,-147.5252"/>
</g>
<!-- Character GlyphLib -->
<g id="node18" class="node">
<title>Character GlyphLib</title>
<polygon fill="#ffff00" stroke="#000000" points="1500.6723,-158.5 1500.6723,-194.5 1637.2459,-194.5 1637.2459,-158.5 1500.6723,-158.5"/>
<text text-anchor="middle" x="1568.9591" y="-172.4" font-family="Arial" font-size="14.00" fill="#000000">Character GlyphLib</text>
</g>
<!-- Visual Feedback (UI)&#45;&gt;Character GlyphLib -->
<g id="edge22" class="edge">
<title>Visual Feedback (UI)&#45;&gt;Character GlyphLib</title>
<path fill="none" stroke="#000000" d="M676.4495,-88.0516C707.1441,-86.1759 740.812,-84.4316 771.8071,-83.5 896.9926,-79.7373 928.8019,-72.9847 1053.6017,-83.5 1228.2888,-98.2186 1270.3023,-116.5267 1442.4795,-149.5 1458.0935,-152.4902 1474.7458,-155.8918 1490.6675,-159.2484"/>
<polygon fill="#000000" stroke="#000000" points="675.9255,-84.5773 666.1622,-88.6918 676.3603,-91.5638 675.9255,-84.5773"/>
<polygon fill="#000000" stroke="#000000" points="1489.9621,-162.6766 1500.4709,-161.3285 1491.4151,-155.829 1489.9621,-162.6766"/>
</g>
<!-- {DeepComponentGlyph:(UUID, Offset)}&#45;&gt;Character GlyphLib -->
<g id="edge25" class="edge">
<title>{DeepComponentGlyph:(UUID, Offset)}&#45;&gt;Character GlyphLib</title>
<path fill="none" stroke="#000000" d="M1396.2633,-176.5C1428.2539,-176.5 1461.5341,-176.5 1490.2418,-176.5"/>
<polygon fill="#000000" stroke="#000000" points="1490.6006,-180.0001 1500.6006,-176.5 1490.6005,-173.0001 1490.6006,-180.0001"/>
</g>
</g>
</svg>
