<?xml version="1.0" encoding="UTF-8" standalone="no"?>
<!DOCTYPE svg PUBLIC "-//W3C//DTD SVG 1.1//EN"
 "http://www.w3.org/Graphics/SVG/1.1/DTD/svg11.dtd">
<!-- Generated by graphviz version 2.40.1 (20161225.0304)
 -->
<!-- Title: %0 Pages: 1 -->
<svg width="942pt" height="483pt"
 viewBox="0.00 0.00 942.46 483.00" xmlns="http://www.w3.org/2000/svg" xmlns:xlink="http://www.w3.org/1999/xlink">
<g id="graph0" class="graph" transform="scale(1 1) rotate(0) translate(4 479)">
<title>%0</title>
<polygon fill="#ffffff" stroke="transparent" points="-4,4 -4,-479 938.4648,-479 938.4648,4 -4,4"/>
<!-- Data Base Decomposition -->
<g id="node1" class="node">
<title>Data Base Decomposition</title>
<polygon fill="#ffc0cb" stroke="#000000" points="391.5799,-438.5 391.5799,-474.5 569.3919,-474.5 569.3919,-438.5 391.5799,-438.5"/>
<text text-anchor="middle" x="480.4859" y="-452.3" font-family="Arial" font-size="14.00" fill="#000000">Data Base Decomposition</text>
</g>
<!-- JSON Glyph 2 Components -->
<g id="node8" class="node">
<title>JSON Glyph 2 Components</title>
<polygon fill="none" stroke="#000000" points="174.1339,-365.5 174.1339,-401.5 362.8379,-401.5 362.8379,-365.5 174.1339,-365.5"/>
<text text-anchor="middle" x="268.4859" y="-379.3" font-family="Arial" font-size="14.00" fill="#000000">JSON Glyph 2 Components</text>
</g>
<!-- Data Base Decomposition&#45;&gt;JSON Glyph 2 Components -->
<g id="edge4" class="edge">
<title>Data Base Decomposition&#45;&gt;JSON Glyph 2 Components</title>
<path fill="none" stroke="#000000" d="M428.0814,-438.4551C398.6508,-428.3209 361.7398,-415.611 330.83,-404.9675"/>
<polygon fill="#000000" stroke="#000000" points="331.617,-401.5369 321.0223,-401.5904 329.3379,-408.1555 331.617,-401.5369"/>
</g>
<!-- Deep Components Alternates -->
<g id="node9" class="node">
<title>Deep Components Alternates</title>
<polygon fill="#add8e6" stroke="#000000" points="380.6837,-365.5 380.6837,-401.5 580.2881,-401.5 580.2881,-365.5 380.6837,-365.5"/>
<text text-anchor="middle" x="480.4859" y="-379.3" font-family="Arial" font-size="14.00" fill="#000000">Deep Components Alternates</text>
</g>
<!-- Data Base Decomposition&#45;&gt;Deep Components Alternates -->
<g id="edge6" class="edge">
<title>Data Base Decomposition&#45;&gt;Deep Components Alternates</title>
<path fill="none" stroke="#000000" d="M480.4859,-438.4551C480.4859,-430.3828 480.4859,-420.6764 480.4859,-411.6817"/>
<polygon fill="#000000" stroke="#000000" points="483.986,-411.5903 480.4859,-401.5904 476.986,-411.5904 483.986,-411.5903"/>
</g>
<!-- Deep Components Instantiator -->
<g id="node2" class="node">
<title>Deep Components Instantiator</title>
<ellipse fill="#00ff00" stroke="#000000" cx="792.4859" cy="-91.5" rx="141.9578" ry="18"/>
<text text-anchor="middle" x="792.4859" y="-87.3" font-family="Arial" font-size="14.00" fill="#000000">Deep Components Instantiator</text>
</g>
<!-- Current Glyph -->
<g id="node4" class="node">
<title>Current Glyph</title>
<polygon fill="#ffffe0" stroke="#000000" points="551.9263,-.5 551.9263,-36.5 655.0455,-36.5 655.0455,-.5 551.9263,-.5"/>
<text text-anchor="middle" x="603.4859" y="-14.3" font-family="Arial" font-size="14.00" fill="#000000">Current Glyph</text>
</g>
<!-- Deep Components Instantiator&#45;&gt;Current Glyph -->
<g id="edge2" class="edge">
<title>Deep Components Instantiator&#45;&gt;Current Glyph</title>
<path fill="none" stroke="#000000" d="M748.1738,-74.3847C721.7069,-64.1621 687.8408,-51.0815 659.5278,-40.1458"/>
<polygon fill="#000000" stroke="#000000" points="660.7471,-36.8648 650.1576,-36.5266 658.2249,-43.3947 660.7471,-36.8648"/>
</g>
<!-- Deep Components Editor -->
<g id="node3" class="node">
<title>Deep Components Editor</title>
<ellipse fill="#00ff00" stroke="#000000" cx="136.4859" cy="-237.5" rx="119.3695" ry="18"/>
<text text-anchor="middle" x="136.4859" y="-233.3" font-family="Arial" font-size="14.00" fill="#000000">Deep Components Editor</text>
</g>
<!-- Font Lib {DeepCompoName:Values} -->
<g id="node7" class="node">
<title>Font Lib {DeepCompoName:Values}</title>
<polygon fill="#c0c0c0" stroke="#000000" points="36.2889,-146.5 36.2889,-182.5 278.6829,-182.5 278.6829,-146.5 36.2889,-146.5"/>
<text text-anchor="middle" x="157.4859" y="-160.3" font-family="Arial" font-size="14.00" fill="#000000">Font Lib {DeepCompoName:Values}</text>
</g>
<!-- Deep Components Editor&#45;&gt;Font Lib {DeepCompoName:Values} -->
<g id="edge5" class="edge">
<title>Deep Components Editor&#45;&gt;Font Lib {DeepCompoName:Values}</title>
<path fill="none" stroke="#000000" d="M141.6769,-219.4551C144.0243,-211.2951 146.8521,-201.4652 149.4631,-192.3887"/>
<polygon fill="#000000" stroke="#000000" points="152.8808,-193.1683 152.2818,-182.5904 146.1536,-191.233 152.8808,-193.1683"/>
</g>
<!-- Current Glyph&#45;&gt;Data Base Decomposition -->
<g id="edge3" class="edge">
<title>Current Glyph&#45;&gt;Data Base Decomposition</title>
<path fill="none" stroke="#000000" d="M607.4227,-36.8383C612.9879,-64.407 622.4859,-118.2347 622.4859,-164.5 622.4859,-310.5 622.4859,-310.5 622.4859,-310.5 622.4859,-353.7306 618.2068,-369.689 589.4859,-402 577.5596,-415.4171 561.5653,-425.9271 545.5096,-433.9833"/>
<polygon fill="#000000" stroke="#000000" points="543.6209,-431.005 536.0795,-438.4466 546.6156,-437.3321 543.6209,-431.005"/>
</g>
<!-- Glyph Lib {DeepCompoName:[Index,Offsets]} -->
<g id="node5" class="node">
<title>Glyph Lib {DeepCompoName:[Index,Offsets]}</title>
<polygon fill="#ffffe0" stroke="#000000" points="296.2798,-146.5 296.2798,-182.5 594.692,-182.5 594.692,-146.5 296.2798,-146.5"/>
<text text-anchor="middle" x="445.4859" y="-160.3" font-family="Arial" font-size="14.00" fill="#000000">Glyph Lib {DeepCompoName:[Index,Offsets]}</text>
</g>
<!-- Current Glyph&#45;&gt;Glyph Lib {DeepCompoName:[Index,Offsets]} -->
<g id="edge1" class="edge">
<title>Current Glyph&#45;&gt;Glyph Lib {DeepCompoName:[Index,Offsets]}</title>
<path fill="none" stroke="#000000" d="M600.1445,-36.5035C595.5474,-56.7099 585.4632,-89.3588 565.4859,-110 552.2608,-123.6647 534.9752,-134.201 517.6595,-142.2"/>
<polygon fill="#000000" stroke="#000000" points="515.8285,-139.1801 508.0621,-146.3866 518.6274,-145.5962 515.8285,-139.1801"/>
</g>
<!-- Display Deep Component in Glyph View -->
<g id="node13" class="node">
<title>Display Deep Component in Glyph View</title>
<polygon fill="#0000ff" stroke="#000000" points="292.021,-73.5 292.021,-109.5 556.9508,-109.5 556.9508,-73.5 292.021,-73.5"/>
<text text-anchor="middle" x="424.4859" y="-87.3" font-family="Arial" font-size="14.00" fill="#ffffff">Display Deep Component in Glyph View</text>
</g>
<!-- Glyph Lib {DeepCompoName:[Index,Offsets]}&#45;&gt;Display Deep Component in Glyph View -->
<g id="edge17" class="edge">
<title>Glyph Lib {DeepCompoName:[Index,Offsets]}&#45;&gt;Display Deep Component in Glyph View</title>
<path fill="none" stroke="#000000" d="M440.2949,-146.4551C437.9475,-138.2951 435.1197,-128.4652 432.5087,-119.3887"/>
<polygon fill="#000000" stroke="#000000" points="435.8182,-118.233 429.69,-109.5904 429.0911,-120.1683 435.8182,-118.233"/>
</g>
<!-- Current Font -->
<g id="node6" class="node">
<title>Current Font</title>
<polygon fill="#c0c0c0" stroke="#000000" points="274.2033,-219.5 274.2033,-255.5 368.7685,-255.5 368.7685,-219.5 274.2033,-219.5"/>
<text text-anchor="middle" x="321.4859" y="-233.3" font-family="Arial" font-size="14.00" fill="#000000">Current Font</text>
</g>
<!-- Current Font&#45;&gt;Font Lib {DeepCompoName:Values} -->
<g id="edge10" class="edge">
<title>Current Font&#45;&gt;Font Lib {DeepCompoName:Values}</title>
<path fill="none" stroke="#000000" d="M280.9466,-219.4551C258.6723,-209.5403 230.8591,-197.16 207.2735,-186.6615"/>
<polygon fill="#000000" stroke="#000000" points="208.6864,-183.4594 198.1273,-182.5904 205.8398,-189.8545 208.6864,-183.4594"/>
</g>
<!-- Existing Settings -->
<g id="node10" class="node">
<title>Existing Settings</title>
<polygon fill="#add8e6" stroke="#000000" points="293.7517,-292.5 293.7517,-328.5 413.2201,-328.5 413.2201,-292.5 293.7517,-292.5"/>
<text text-anchor="middle" x="353.4859" y="-306.3" font-family="Arial" font-size="14.00" fill="#000000">Existing Settings</text>
</g>
<!-- Font Lib {DeepCompoName:Values}&#45;&gt;Existing Settings -->
<g id="edge9" class="edge">
<title>Font Lib {DeepCompoName:Values}&#45;&gt;Existing Settings</title>
<path fill="none" stroke="#000000" d="M80.8357,-182.5532C30.9602,-197.8831 -19.9594,-222.7084 8.4859,-256 26.1112,-276.6282 187.724,-295.0516 283.3758,-304.2703"/>
<polygon fill="#000000" stroke="#000000" points="283.2718,-307.7762 293.5588,-305.241 283.9361,-300.8078 283.2718,-307.7762"/>
</g>
<!-- Font Lib {DeepCompoName:Values}&#45;&gt;Display Deep Component in Glyph View -->
<g id="edge16" class="edge">
<title>Font Lib {DeepCompoName:Values}&#45;&gt;Display Deep Component in Glyph View</title>
<path fill="none" stroke="#000000" d="M223.4859,-146.4551C261.3542,-136.1016 309.0556,-123.0596 348.4847,-112.2794"/>
<polygon fill="#000000" stroke="#000000" points="349.5969,-115.6038 358.3198,-109.5904 347.7508,-108.8516 349.5969,-115.6038"/>
</g>
<!-- Deep Components Alternates&#45;&gt;Existing Settings -->
<g id="edge7" class="edge">
<title>Deep Components Alternates&#45;&gt;Existing Settings</title>
<path fill="none" stroke="#000000" d="M449.0926,-365.4551C432.4542,-355.8912 411.8249,-344.0334 393.9925,-333.7833"/>
<polygon fill="#000000" stroke="#000000" points="395.3722,-330.5394 384.9582,-328.5904 391.8838,-336.6083 395.3722,-330.5394"/>
</g>
<!-- New Settings -->
<g id="node11" class="node">
<title>New Settings</title>
<polygon fill="#add8e6" stroke="#000000" points="431.2566,-292.5 431.2566,-328.5 529.7152,-328.5 529.7152,-292.5 431.2566,-292.5"/>
<text text-anchor="middle" x="480.4859" y="-306.3" font-family="Arial" font-size="14.00" fill="#000000">New Settings</text>
</g>
<!-- Deep Components Alternates&#45;&gt;New Settings -->
<g id="edge8" class="edge">
<title>Deep Components Alternates&#45;&gt;New Settings</title>
<path fill="none" stroke="#000000" d="M480.4859,-365.4551C480.4859,-357.3828 480.4859,-347.6764 480.4859,-338.6817"/>
<polygon fill="#000000" stroke="#000000" points="483.986,-338.5903 480.4859,-328.5904 476.986,-338.5904 483.986,-338.5903"/>
</g>
<!-- Add Deep Components -->
<g id="node12" class="node">
<title>Add Deep Components</title>
<polygon fill="#ff0000" stroke="#000000" points="386.7405,-219.5 386.7405,-255.5 548.2313,-255.5 548.2313,-219.5 386.7405,-219.5"/>
<text text-anchor="middle" x="467.4859" y="-233.3" font-family="Arial" font-size="14.00" fill="#ffffff">Add Deep Components</text>
</g>
<!-- Existing Settings&#45;&gt;Add Deep Components -->
<g id="edge11" class="edge">
<title>Existing Settings&#45;&gt;Add Deep Components</title>
<path fill="none" stroke="#000000" d="M381.6657,-292.4551C396.464,-282.979 414.7792,-271.2508 430.6845,-261.0658"/>
<polygon fill="#000000" stroke="#000000" points="432.7013,-263.9305 439.2352,-255.5904 428.9264,-258.0356 432.7013,-263.9305"/>
</g>
<!-- New Settings&#45;&gt;Add Deep Components -->
<g id="edge12" class="edge">
<title>New Settings&#45;&gt;Add Deep Components</title>
<path fill="none" stroke="#000000" d="M477.2724,-292.4551C475.8349,-284.3828 474.1064,-274.6764 472.5046,-265.6817"/>
<polygon fill="#000000" stroke="#000000" points="475.9066,-264.8218 470.7075,-255.5904 469.015,-266.0491 475.9066,-264.8218"/>
</g>
<!-- Add Deep Components&#45;&gt;Glyph Lib {DeepCompoName:[Index,Offsets]} -->
<g id="edge13" class="edge">
<title>Add Deep Components&#45;&gt;Glyph Lib {DeepCompoName:[Index,Offsets]}</title>
<path fill="none" stroke="#000000" d="M462.0477,-219.4551C459.5885,-211.2951 456.6261,-201.4652 453.8907,-192.3887"/>
<polygon fill="#000000" stroke="#000000" points="457.1745,-191.1551 450.9378,-182.5904 450.4723,-193.175 457.1745,-191.1551"/>
</g>
<!-- Add Deep Components&#45;&gt;Font Lib {DeepCompoName:Values} -->
<g id="edge14" class="edge">
<title>Add Deep Components&#45;&gt;Font Lib {DeepCompoName:Values}</title>
<path fill="none" stroke="#000000" d="M390.8567,-219.4551C346.3405,-208.9722 290.1205,-195.7333 244.0158,-184.8764"/>
<polygon fill="#000000" stroke="#000000" points="244.575,-181.4124 234.039,-182.527 242.9705,-188.226 244.575,-181.4124"/>
</g>
<!-- Display Deep Component in Glyph View&#45;&gt;Current Glyph -->
<g id="edge15" class="edge">
<title>Display Deep Component in Glyph View&#45;&gt;Current Glyph</title>
<path fill="none" stroke="#000000" d="M468.7331,-73.4551C493.2599,-63.4525 523.9395,-50.9407 549.827,-40.3833"/>
<polygon fill="#000000" stroke="#000000" points="551.1895,-43.6075 559.1274,-36.5904 548.5461,-37.1258 551.1895,-43.6075"/>
</g>
</g>
</svg>
