<?xml version="1.0" encoding="UTF-8" standalone="no"?>
<!DOCTYPE svg PUBLIC "-//W3C//DTD SVG 1.1//EN"
 "http://www.w3.org/Graphics/SVG/1.1/DTD/svg11.dtd">
<!-- Generated by graphviz version 2.40.1 (20161225.0304)
 -->
<!-- Title: %0 Pages: 1 -->
<svg width="936pt" height="483pt"
 viewBox="0.00 0.00 935.70 483.00" xmlns="http://www.w3.org/2000/svg" xmlns:xlink="http://www.w3.org/1999/xlink">
<g id="graph0" class="graph" transform="scale(1 1) rotate(0) translate(4 479)">
<title>%0</title>
<polygon fill="#ffffff" stroke="transparent" points="-4,4 -4,-479 931.7037,-479 931.7037,4 -4,4"/>
<!-- Data Base Decomposition -->
<g id="node1" class="node">
<title>Data Base Decomposition</title>
<polygon fill="#ffc0cb" stroke="#000000" points="385.8188,-438.5 385.8188,-474.5 563.6308,-474.5 563.6308,-438.5 385.8188,-438.5"/>
<text text-anchor="middle" x="474.7248" y="-452.3" font-family="Arial" font-size="14.00" fill="#000000">Data Base Decomposition</text>
</g>
<!-- JSON Glyph 2 Components -->
<g id="node8" class="node">
<title>JSON Glyph 2 Components</title>
<polygon fill="none" stroke="#000000" points="168.3728,-365.5 168.3728,-401.5 357.0768,-401.5 357.0768,-365.5 168.3728,-365.5"/>
<text text-anchor="middle" x="262.7248" y="-379.3" font-family="Arial" font-size="14.00" fill="#000000">JSON Glyph 2 Components</text>
</g>
<!-- Data Base Decomposition&#45;&gt;JSON Glyph 2 Components -->
<g id="edge4" class="edge">
<title>Data Base Decomposition&#45;&gt;JSON Glyph 2 Components</title>
<path fill="none" stroke="#000000" d="M422.3203,-438.4551C392.8897,-428.3209 355.9787,-415.611 325.0689,-404.9675"/>
<polygon fill="#000000" stroke="#000000" points="325.8559,-401.5369 315.2612,-401.5904 323.5768,-408.1555 325.8559,-401.5369"/>
</g>
<!-- Deep Components Alternates -->
<g id="node9" class="node">
<title>Deep Components Alternates</title>
<polygon fill="#add8e6" stroke="#000000" points="374.9226,-365.5 374.9226,-401.5 574.527,-401.5 574.527,-365.5 374.9226,-365.5"/>
<text text-anchor="middle" x="474.7248" y="-379.3" font-family="Arial" font-size="14.00" fill="#000000">Deep Components Alternates</text>
</g>
<!-- Data Base Decomposition&#45;&gt;Deep Components Alternates -->
<g id="edge6" class="edge">
<title>Data Base Decomposition&#45;&gt;Deep Components Alternates</title>
<path fill="none" stroke="#000000" d="M474.7248,-438.4551C474.7248,-430.3828 474.7248,-420.6764 474.7248,-411.6817"/>
<polygon fill="#000000" stroke="#000000" points="478.2249,-411.5903 474.7248,-401.5904 471.2249,-411.5904 478.2249,-411.5903"/>
</g>
<!-- Deep Components Instantiator -->
<g id="node2" class="node">
<title>Deep Components Instantiator</title>
<ellipse fill="#00ff00" stroke="#000000" cx="785.7248" cy="-91.5" rx="141.9578" ry="18"/>
<text text-anchor="middle" x="785.7248" y="-87.3" font-family="Arial" font-size="14.00" fill="#000000">Deep Components Instantiator</text>
</g>
<!-- Current Glyph -->
<g id="node4" class="node">
<title>Current Glyph</title>
<polygon fill="#ffffe0" stroke="#000000" points="545.1652,-.5 545.1652,-36.5 648.2844,-36.5 648.2844,-.5 545.1652,-.5"/>
<text text-anchor="middle" x="596.7248" y="-14.3" font-family="Arial" font-size="14.00" fill="#000000">Current Glyph</text>
</g>
<!-- Deep Components Instantiator&#45;&gt;Current Glyph -->
<g id="edge2" class="edge">
<title>Deep Components Instantiator&#45;&gt;Current Glyph</title>
<path fill="none" stroke="#000000" d="M741.4127,-74.3847C714.9458,-64.1621 681.0797,-51.0815 652.7667,-40.1458"/>
<polygon fill="#000000" stroke="#000000" points="653.986,-36.8648 643.3966,-36.5266 651.4638,-43.3947 653.986,-36.8648"/>
</g>
<!-- Deep Components Editor -->
<g id="node3" class="node">
<title>Deep Components Editor</title>
<ellipse fill="#00ff00" stroke="#000000" cx="137.7248" cy="-237.5" rx="119.3695" ry="18"/>
<text text-anchor="middle" x="137.7248" y="-233.3" font-family="Arial" font-size="14.00" fill="#000000">Deep Components Editor</text>
</g>
<!-- Font Lib {DeepCompoName:Values} -->
<g id="node7" class="node">
<title>Font Lib {DeepCompoName:Values}</title>
<polygon fill="#c0c0c0" stroke="#000000" points="75.5278,-146.5 75.5278,-182.5 317.9218,-182.5 317.9218,-146.5 75.5278,-146.5"/>
<text text-anchor="middle" x="196.7248" y="-160.3" font-family="Arial" font-size="14.00" fill="#000000">Font Lib {DeepCompoName:Values}</text>
</g>
<!-- Deep Components Editor&#45;&gt;Font Lib {DeepCompoName:Values} -->
<g id="edge5" class="edge">
<title>Deep Components Editor&#45;&gt;Font Lib {DeepCompoName:Values}</title>
<path fill="none" stroke="#000000" d="M152.3091,-219.4551C159.3296,-210.7686 167.8796,-200.1898 175.5963,-190.642"/>
<polygon fill="#000000" stroke="#000000" points="178.5401,-192.5678 182.1038,-182.5904 173.0959,-188.1677 178.5401,-192.5678"/>
</g>
<!-- Current Glyph&#45;&gt;Data Base Decomposition -->
<g id="edge3" class="edge">
<title>Current Glyph&#45;&gt;Data Base Decomposition</title>
<path fill="none" stroke="#000000" d="M600.6616,-36.8383C606.2269,-64.407 615.7248,-118.2347 615.7248,-164.5 615.7248,-310.5 615.7248,-310.5 615.7248,-310.5 615.7248,-353.5819 612.1903,-369.6617 583.7248,-402 571.9222,-415.4084 556.0487,-425.9005 540.0733,-433.9415"/>
<polygon fill="#000000" stroke="#000000" points="538.2195,-430.9471 530.6854,-438.3962 541.2204,-437.2712 538.2195,-430.9471"/>
</g>
<!-- Glyph Lib {DeepCompoName:Offsets} -->
<g id="node5" class="node">
<title>Glyph Lib {DeepCompoName:Offsets}</title>
<polygon fill="#ffffe0" stroke="#000000" points="335.4738,-146.5 335.4738,-182.5 587.9758,-182.5 587.9758,-146.5 335.4738,-146.5"/>
<text text-anchor="middle" x="461.7248" y="-160.3" font-family="Arial" font-size="14.00" fill="#000000">Glyph Lib {DeepCompoName:Offsets}</text>
</g>
<!-- Current Glyph&#45;&gt;Glyph Lib {DeepCompoName:Offsets} -->
<g id="edge1" class="edge">
<title>Current Glyph&#45;&gt;Glyph Lib {DeepCompoName:Offsets}</title>
<path fill="none" stroke="#000000" d="M592.968,-36.5598C588.0352,-56.5163 577.6866,-88.6517 558.7248,-110 547.3584,-122.797 532.2393,-133.2646 517.3271,-141.4822"/>
<polygon fill="#000000" stroke="#000000" points="515.3415,-138.571 508.1043,-146.3087 518.5873,-144.773 515.3415,-138.571"/>
</g>
<!-- Display Deep Component in Glyph View -->
<g id="node13" class="node">
<title>Display Deep Component in Glyph View</title>
<polygon fill="#0000ff" stroke="#000000" points="285.2599,-73.5 285.2599,-109.5 550.1897,-109.5 550.1897,-73.5 285.2599,-73.5"/>
<text text-anchor="middle" x="417.7248" y="-87.3" font-family="Arial" font-size="14.00" fill="#ffffff">Display Deep Component in Glyph View</text>
</g>
<!-- Glyph Lib {DeepCompoName:Offsets}&#45;&gt;Display Deep Component in Glyph View -->
<g id="edge17" class="edge">
<title>Glyph Lib {DeepCompoName:Offsets}&#45;&gt;Display Deep Component in Glyph View</title>
<path fill="none" stroke="#000000" d="M450.8484,-146.4551C445.7185,-137.9441 439.4937,-127.6165 433.8312,-118.2219"/>
<polygon fill="#000000" stroke="#000000" points="436.7884,-116.3481 428.6286,-109.5904 430.7932,-119.9617 436.7884,-116.3481"/>
</g>
<!-- Current Font -->
<g id="node6" class="node">
<title>Current Font</title>
<polygon fill="#c0c0c0" stroke="#000000" points="275.4422,-219.5 275.4422,-255.5 370.0074,-255.5 370.0074,-219.5 275.4422,-219.5"/>
<text text-anchor="middle" x="322.7248" y="-233.3" font-family="Arial" font-size="14.00" fill="#000000">Current Font</text>
</g>
<!-- Current Font&#45;&gt;Font Lib {DeepCompoName:Values} -->
<g id="edge10" class="edge">
<title>Current Font&#45;&gt;Font Lib {DeepCompoName:Values}</title>
<path fill="none" stroke="#000000" d="M291.5787,-219.4551C275.0713,-209.8912 254.6044,-198.0334 236.9124,-187.7833"/>
<polygon fill="#000000" stroke="#000000" points="238.3566,-184.575 227.9493,-182.5904 234.8474,-190.6319 238.3566,-184.575"/>
</g>
<!-- Existing Settings -->
<g id="node10" class="node">
<title>Existing Settings</title>
<polygon fill="#add8e6" stroke="#000000" points="287.9906,-292.5 287.9906,-328.5 407.459,-328.5 407.459,-292.5 287.9906,-292.5"/>
<text text-anchor="middle" x="347.7248" y="-306.3" font-family="Arial" font-size="14.00" fill="#000000">Existing Settings</text>
</g>
<!-- Font Lib {DeepCompoName:Values}&#45;&gt;Existing Settings -->
<g id="edge9" class="edge">
<title>Font Lib {DeepCompoName:Values}&#45;&gt;Existing Settings</title>
<path fill="none" stroke="#000000" d="M85.833,-182.541C29.475,-196.4865 -21.2092,-219.6785 9.7248,-256 26.8993,-276.1656 184.0339,-294.6723 277.891,-304.0531"/>
<polygon fill="#000000" stroke="#000000" points="277.5929,-307.5406 287.8888,-305.0419 278.2818,-300.5746 277.5929,-307.5406"/>
</g>
<!-- Font Lib {DeepCompoName:Values}&#45;&gt;Display Deep Component in Glyph View -->
<g id="edge16" class="edge">
<title>Font Lib {DeepCompoName:Values}&#45;&gt;Display Deep Component in Glyph View</title>
<path fill="none" stroke="#000000" d="M251.354,-146.4551C282.1669,-136.277 320.8453,-123.5009 353.1522,-112.8294"/>
<polygon fill="#000000" stroke="#000000" points="354.5605,-116.0503 362.9581,-109.5904 352.3649,-109.4035 354.5605,-116.0503"/>
</g>
<!-- Deep Components Alternates&#45;&gt;Existing Settings -->
<g id="edge7" class="edge">
<title>Deep Components Alternates&#45;&gt;Existing Settings</title>
<path fill="none" stroke="#000000" d="M443.3316,-365.4551C426.6931,-355.8912 406.0638,-344.0334 388.2314,-333.7833"/>
<polygon fill="#000000" stroke="#000000" points="389.6111,-330.5394 379.1971,-328.5904 386.1227,-336.6083 389.6111,-330.5394"/>
</g>
<!-- New Settings -->
<g id="node11" class="node">
<title>New Settings</title>
<polygon fill="#add8e6" stroke="#000000" points="425.4955,-292.5 425.4955,-328.5 523.9541,-328.5 523.9541,-292.5 425.4955,-292.5"/>
<text text-anchor="middle" x="474.7248" y="-306.3" font-family="Arial" font-size="14.00" fill="#000000">New Settings</text>
</g>
<!-- Deep Components Alternates&#45;&gt;New Settings -->
<g id="edge8" class="edge">
<title>Deep Components Alternates&#45;&gt;New Settings</title>
<path fill="none" stroke="#000000" d="M474.7248,-365.4551C474.7248,-357.3828 474.7248,-347.6764 474.7248,-338.6817"/>
<polygon fill="#000000" stroke="#000000" points="478.2249,-338.5903 474.7248,-328.5904 471.2249,-338.5904 478.2249,-338.5903"/>
</g>
<!-- Add Deep Components -->
<g id="node12" class="node">
<title>Add Deep Components</title>
<polygon fill="#ff0000" stroke="#000000" points="387.9794,-219.5 387.9794,-255.5 549.4702,-255.5 549.4702,-219.5 387.9794,-219.5"/>
<text text-anchor="middle" x="468.7248" y="-233.3" font-family="Arial" font-size="14.00" fill="#ffffff">Add Deep Components</text>
</g>
<!-- Existing Settings&#45;&gt;Add Deep Components -->
<g id="edge11" class="edge">
<title>Existing Settings&#45;&gt;Add Deep Components</title>
<path fill="none" stroke="#000000" d="M377.6349,-292.4551C393.4873,-282.8912 413.1421,-271.0334 430.132,-260.7833"/>
<polygon fill="#000000" stroke="#000000" points="431.985,-263.753 438.7394,-255.5904 428.369,-257.7593 431.985,-263.753"/>
</g>
<!-- New Settings&#45;&gt;Add Deep Components -->
<g id="edge12" class="edge">
<title>New Settings&#45;&gt;Add Deep Components</title>
<path fill="none" stroke="#000000" d="M473.2417,-292.4551C472.5782,-284.3828 471.7804,-274.6764 471.0411,-265.6817"/>
<polygon fill="#000000" stroke="#000000" points="474.5192,-265.27 470.2117,-255.5904 467.5427,-265.8435 474.5192,-265.27"/>
</g>
<!-- Add Deep Components&#45;&gt;Glyph Lib {DeepCompoName:Offsets} -->
<g id="edge13" class="edge">
<title>Add Deep Components&#45;&gt;Glyph Lib {DeepCompoName:Offsets}</title>
<path fill="none" stroke="#000000" d="M466.9945,-219.4551C466.2204,-211.3828 465.2897,-201.6764 464.4272,-192.6817"/>
<polygon fill="#000000" stroke="#000000" points="467.8981,-192.2106 463.4595,-182.5904 460.9301,-192.8788 467.8981,-192.2106"/>
</g>
<!-- Add Deep Components&#45;&gt;Font Lib {DeepCompoName:Values} -->
<g id="edge14" class="edge">
<title>Add Deep Components&#45;&gt;Font Lib {DeepCompoName:Values}</title>
<path fill="none" stroke="#000000" d="M401.4888,-219.4551C362.8297,-209.0796 314.1108,-196.0043 273.8941,-185.2109"/>
<polygon fill="#000000" stroke="#000000" points="274.6955,-181.8022 264.13,-182.5904 272.881,-188.5629 274.6955,-181.8022"/>
</g>
<!-- Display Deep Component in Glyph View&#45;&gt;Current Glyph -->
<g id="edge15" class="edge">
<title>Display Deep Component in Glyph View&#45;&gt;Current Glyph</title>
<path fill="none" stroke="#000000" d="M461.972,-73.4551C486.4988,-63.4525 517.1784,-50.9407 543.0659,-40.3833"/>
<polygon fill="#000000" stroke="#000000" points="544.4284,-43.6075 552.3663,-36.5904 541.785,-37.1258 544.4284,-43.6075"/>
</g>
</g>
</svg>
