<?xml version="1.0" encoding="UTF-8" standalone="no"?>
<!DOCTYPE svg PUBLIC "-//W3C//DTD SVG 1.1//EN"
 "http://www.w3.org/Graphics/SVG/1.1/DTD/svg11.dtd">
<!-- Generated by graphviz version 2.40.1 (20161225.0304)
 -->
<!-- Title: %0 Pages: 1 -->
<svg width="1095pt" height="745pt"
 viewBox="0.00 0.00 1095.06 745.10" xmlns="http://www.w3.org/2000/svg" xmlns:xlink="http://www.w3.org/1999/xlink">
<g id="graph0" class="graph" transform="scale(1 1) rotate(0) translate(4 741.0989)">
<title>%0</title>
<polygon fill="#ffffff" stroke="transparent" points="-4,4 -4,-741.0989 1091.0648,-741.0989 1091.0648,4 -4,4"/>
<!-- Master UFO -->
<g id="node1" class="node">
<title>Master UFO</title>
<polygon fill="#add8e6" stroke="#000000" points="742.8047,-700.5989 742.8047,-736.5989 835.0221,-736.5989 835.0221,-700.5989 742.8047,-700.5989"/>
<text text-anchor="middle" x="788.9134" y="-714.3989" font-family="Arial" font-size="14.00" fill="#000000">Master UFO</text>
</g>
<!-- Basic Character Set -->
<g id="node2" class="node">
<title>Basic Character Set</title>
<polygon fill="none" stroke="#000000" points="800.6806,-627.5989 800.6806,-663.5989 941.1462,-663.5989 941.1462,-627.5989 800.6806,-627.5989"/>
<text text-anchor="middle" x="870.9134" y="-641.3989" font-family="Arial" font-size="14.00" fill="#000000">Basic Character Set</text>
</g>
<!-- Master UFO&#45;&gt;Basic Character Set -->
<g id="edge1" class="edge">
<title>Master UFO&#45;&gt;Basic Character Set</title>
<path fill="none" stroke="#000000" d="M809.1831,-700.554C819.3347,-691.5166 831.7872,-680.4308 842.8425,-670.5888"/>
<polygon fill="#000000" stroke="#000000" points="845.4509,-672.9528 850.5928,-663.6893 840.7964,-667.7244 845.4509,-672.9528"/>
</g>
<!-- Character Glyph -->
<g id="node13" class="node">
<title>Character Glyph</title>
<polygon fill="#ffff00" stroke="#000000" points="585.9625,-627.5989 585.9625,-663.5989 703.8643,-663.5989 703.8643,-627.5989 585.9625,-627.5989"/>
<text text-anchor="middle" x="644.9134" y="-641.3989" font-family="Arial" font-size="14.00" fill="#000000">Character Glyph</text>
</g>
<!-- Master UFO&#45;&gt;Character Glyph -->
<g id="edge11" class="edge">
<title>Master UFO&#45;&gt;Character Glyph</title>
<path fill="none" stroke="#000000" d="M753.3179,-700.554C734.1061,-690.8146 710.2016,-678.6964 689.7324,-668.3196"/>
<polygon fill="#000000" stroke="#000000" points="691.1005,-665.0892 680.5985,-663.6893 687.9353,-671.3327 691.1005,-665.0892"/>
</g>
<!-- Selection to DeepComponent -->
<g id="node4" class="node">
<title>Selection to DeepComponent</title>
<ellipse fill="#00ff00" stroke="#000000" cx="949.9134" cy="-573.0989" rx="137.3029" ry="18"/>
<text text-anchor="middle" x="949.9134" y="-568.8989" font-family="Arial" font-size="14.00" fill="#000000">Selection to DeepComponent</text>
</g>
<!-- Basic Character Set&#45;&gt;Selection to DeepComponent -->
<g id="edge2" class="edge">
<title>Basic Character Set&#45;&gt;Selection to DeepComponent</title>
<path fill="none" stroke="#000000" d="M890.8485,-627.3041C900.5588,-618.3927 912.3796,-607.5445 922.8878,-597.9009"/>
<polygon fill="#000000" stroke="#000000" points="925.2573,-600.4769 930.2584,-591.1367 920.5242,-595.3195 925.2573,-600.4769"/>
</g>
<!-- Deep Components Editor Tool -->
<g id="node3" class="node">
<title>Deep Components Editor Tool</title>
<ellipse fill="#00ff00" stroke="#000000" cx="927.9134" cy="-442.0494" rx="140.7947" ry="18"/>
<text text-anchor="middle" x="927.9134" y="-437.8494" font-family="Arial" font-size="14.00" fill="#000000">Deep Components Editor Tool</text>
</g>
<!-- DeepComponent Storage UFO -->
<g id="node5" class="node">
<title>DeepComponent Storage UFO</title>
<polygon fill="#add8e6" stroke="#000000" points="772.8349,-292.5 772.8349,-328.5 980.9919,-328.5 980.9919,-292.5 772.8349,-292.5"/>
<text text-anchor="middle" x="876.9134" y="-306.3" font-family="Arial" font-size="14.00" fill="#000000">DeepComponent Storage UFO</text>
</g>
<!-- Deep Components Editor Tool&#45;&gt;DeepComponent Storage UFO -->
<g id="edge4" class="edge">
<title>Deep Components Editor Tool&#45;&gt;DeepComponent Storage UFO</title>
<path fill="none" stroke="#000000" d="M920.929,-424.0339C912.3553,-401.9187 897.7226,-364.1753 887.6999,-338.3225"/>
<polygon fill="#000000" stroke="#000000" points="890.8553,-336.7788 883.9771,-328.7201 884.3286,-339.3091 890.8553,-336.7788"/>
</g>
<!-- Selection to DeepComponent&#45;&gt;Deep Components Editor Tool -->
<g id="edge3" class="edge">
<title>Selection to DeepComponent&#45;&gt;Deep Components Editor Tool</title>
<path fill="none" stroke="#000000" d="M945.1936,-544.9837C941.4865,-522.9015 936.3485,-492.2952 932.6397,-470.2031"/>
<polygon fill="#000000" stroke="#000000" points="941.7471,-545.5945 946.8544,-554.877 948.6505,-544.4355 941.7471,-545.5945"/>
<polygon fill="#000000" stroke="#000000" points="936.0538,-469.3991 930.9465,-460.1166 929.1504,-470.558 936.0538,-469.3991"/>
</g>
<!-- {DeepComponentGlyph:{}} -->
<g id="node6" class="node">
<title>{DeepComponentGlyph:{}}</title>
<polygon fill="none" stroke="#000000" points="596.4338,-219.5 596.4338,-255.5 777.393,-255.5 777.393,-219.5 596.4338,-219.5"/>
<text text-anchor="middle" x="686.9134" y="-233.3" font-family="Arial" font-size="14.00" fill="#000000">{DeepComponentGlyph:{}}</text>
</g>
<!-- DeepComponent Storage UFO&#45;&gt;{DeepComponentGlyph:{}} -->
<g id="edge5" class="edge">
<title>DeepComponent Storage UFO&#45;&gt;{DeepComponentGlyph:{}}</title>
<path fill="none" stroke="#000000" d="M829.9471,-292.4551C803.799,-282.4087 771.0624,-269.8309 743.5086,-259.2445"/>
<polygon fill="#000000" stroke="#000000" points="744.588,-255.9098 733.9979,-255.5904 742.0774,-262.4441 744.588,-255.9098"/>
</g>
<!-- DeepComponent Glyph -->
<g id="node8" class="node">
<title>DeepComponent Glyph</title>
<polygon fill="#ffff00" stroke="#000000" points="795.783,-219.5 795.783,-255.5 958.0438,-255.5 958.0438,-219.5 795.783,-219.5"/>
<text text-anchor="middle" x="876.9134" y="-233.3" font-family="Arial" font-size="14.00" fill="#000000">DeepComponent Glyph</text>
</g>
<!-- DeepComponent Storage UFO&#45;&gt;DeepComponent Glyph -->
<g id="edge7" class="edge">
<title>DeepComponent Storage UFO&#45;&gt;DeepComponent Glyph</title>
<path fill="none" stroke="#000000" d="M876.9134,-292.4551C876.9134,-284.3828 876.9134,-274.6764 876.9134,-265.6817"/>
<polygon fill="#000000" stroke="#000000" points="880.4135,-265.5903 876.9134,-255.5904 873.4135,-265.5904 880.4135,-265.5903"/>
</g>
<!-- Storage FontLib -->
<g id="node7" class="node">
<title>Storage FontLib</title>
<polygon fill="#add8e6" stroke="#000000" points="629.1189,-146.5 629.1189,-182.5 744.7079,-182.5 744.7079,-146.5 629.1189,-146.5"/>
<text text-anchor="middle" x="686.9134" y="-160.3" font-family="Arial" font-size="14.00" fill="#000000">Storage FontLib</text>
</g>
<!-- {DeepComponentGlyph:{}}&#45;&gt;Storage FontLib -->
<g id="edge6" class="edge">
<title>{DeepComponentGlyph:{}}&#45;&gt;Storage FontLib</title>
<path fill="none" stroke="#000000" d="M686.9134,-209.3688C686.9134,-203.8894 686.9134,-198.1439 686.9134,-192.6634"/>
<polygon fill="#000000" stroke="#000000" points="683.4135,-209.455 686.9134,-219.4551 690.4135,-209.4551 683.4135,-209.455"/>
<polygon fill="#000000" stroke="#000000" points="690.4135,-192.5903 686.9134,-182.5904 683.4135,-192.5904 690.4135,-192.5903"/>
</g>
<!-- Master Layers -->
<g id="node9" class="node">
<title>Master Layers</title>
<polygon fill="#ffff00" stroke="#000000" points="793.5754,-146.5 793.5754,-182.5 898.2514,-182.5 898.2514,-146.5 793.5754,-146.5"/>
<text text-anchor="middle" x="845.9134" y="-160.3" font-family="Arial" font-size="14.00" fill="#000000">Master Layers</text>
</g>
<!-- DeepComponent Glyph&#45;&gt;Master Layers -->
<g id="edge8" class="edge">
<title>DeepComponent Glyph&#45;&gt;Master Layers</title>
<path fill="none" stroke="#000000" d="M865.3399,-210.2461C862.8277,-204.3304 860.1682,-198.0677 857.6498,-192.1373"/>
<polygon fill="#000000" stroke="#000000" points="862.1202,-211.6187 869.2505,-219.4551 868.5633,-208.8825 862.1202,-211.6187"/>
<polygon fill="#000000" stroke="#000000" points="860.726,-190.4267 853.5956,-182.5904 854.2829,-193.1629 860.726,-190.4267"/>
</g>
<!-- [LayerNames] -->
<g id="node10" class="node">
<title>[LayerNames]</title>
<polygon fill="none" stroke="#000000" points="346.3524,-73.5 346.3524,-109.5 449.4744,-109.5 449.4744,-73.5 346.3524,-73.5"/>
<text text-anchor="middle" x="397.9134" y="-87.3" font-family="Arial" font-size="14.00" fill="#000000">[LayerNames]</text>
</g>
<!-- Master Layers&#45;&gt;[LayerNames] -->
<g id="edge9" class="edge">
<title>Master Layers&#45;&gt;[LayerNames]</title>
<path fill="none" stroke="#000000" d="M793.4497,-153.5117C780.5447,-150.93 766.7475,-148.2715 753.9134,-146 651.072,-127.7981 530.8743,-110.1466 459.7525,-100.0764"/>
<polygon fill="#000000" stroke="#000000" points="460.0142,-96.5787 449.6231,-98.6465 459.0357,-103.51 460.0142,-96.5787"/>
</g>
<!-- Storage GlyphLib -->
<g id="node11" class="node">
<title>Storage GlyphLib</title>
<polygon fill="#ffff00" stroke="#000000" points="335.8419,-.5 335.8419,-36.5 459.9849,-36.5 459.9849,-.5 335.8419,-.5"/>
<text text-anchor="middle" x="397.9134" y="-14.3" font-family="Arial" font-size="14.00" fill="#000000">Storage GlyphLib</text>
</g>
<!-- [LayerNames]&#45;&gt;Storage GlyphLib -->
<g id="edge10" class="edge">
<title>[LayerNames]&#45;&gt;Storage GlyphLib</title>
<path fill="none" stroke="#000000" d="M397.9134,-63.3688C397.9134,-57.8894 397.9134,-52.1439 397.9134,-46.6634"/>
<polygon fill="#000000" stroke="#000000" points="394.4135,-63.455 397.9134,-73.4551 401.4135,-63.4551 394.4135,-63.455"/>
<polygon fill="#000000" stroke="#000000" points="401.4135,-46.5903 397.9134,-36.5904 394.4135,-46.5904 401.4135,-46.5903"/>
</g>
<!-- Deep Components Instantiator Tool -->
<g id="node12" class="node">
<title>Deep Components Instantiator Tool</title>
<ellipse fill="#00ff00" stroke="#000000" cx="410.9134" cy="-573.0989" rx="163.3829" ry="18"/>
<text text-anchor="middle" x="410.9134" y="-568.8989" font-family="Arial" font-size="14.00" fill="#000000">Deep Components Instantiator Tool</text>
</g>
<!-- Select Instance -->
<g id="node15" class="node">
<title>Select Instance</title>
<ellipse fill="none" stroke="#000000" cx="519.9134" cy="-442.0494" rx="77.0989" ry="77.0989"/>
<text text-anchor="middle" x="519.9134" y="-437.8494" font-family="Arial" font-size="14.00" fill="#000000">Select Instance</text>
</g>
<!-- Deep Components Instantiator Tool&#45;&gt;Select Instance -->
<g id="edge15" class="edge">
<title>Deep Components Instantiator Tool&#45;&gt;Select Instance</title>
<path fill="none" stroke="#000000" d="M432.2543,-547.4411C441.4035,-536.441 452.564,-523.0229 463.8154,-509.4955"/>
<polygon fill="#000000" stroke="#000000" points="429.5447,-545.2254 425.8409,-555.1518 434.9264,-549.7017 429.5447,-545.2254"/>
<polygon fill="#000000" stroke="#000000" points="466.7322,-511.462 470.436,-501.5356 461.3504,-506.9857 466.7322,-511.462"/>
</g>
<!-- Add Instance -->
<g id="node16" class="node">
<title>Add Instance</title>
<ellipse fill="none" stroke="#000000" cx="275.9134" cy="-442.0494" rx="67.289" ry="67.289"/>
<text text-anchor="middle" x="275.9134" y="-437.8494" font-family="Arial" font-size="14.00" fill="#000000">Add Instance</text>
</g>
<!-- Deep Components Instantiator Tool&#45;&gt;Add Instance -->
<g id="edge17" class="edge">
<title>Deep Components Instantiator Tool&#45;&gt;Add Instance</title>
<path fill="none" stroke="#000000" d="M384.9894,-547.9335C369.8511,-533.2382 350.1431,-514.1069 331.6505,-496.1555"/>
<polygon fill="#000000" stroke="#000000" points="382.8122,-550.6978 392.4253,-555.1518 387.6879,-545.6751 382.8122,-550.6978"/>
<polygon fill="#000000" stroke="#000000" points="333.9772,-493.5362 324.364,-489.0822 329.1014,-498.5589 333.9772,-493.5362"/>
</g>
<!-- Character Glyph&#45;&gt;Deep Components Instantiator Tool -->
<g id="edge12" class="edge">
<title>Character Glyph&#45;&gt;Deep Components Instantiator Tool</title>
<path fill="none" stroke="#000000" d="M586.7701,-627.5844C552.9936,-617.1195 510.3681,-603.9128 475.5425,-593.1229"/>
<polygon fill="#000000" stroke="#000000" points="476.5285,-589.7643 465.9406,-590.1479 474.4568,-596.4507 476.5285,-589.7643"/>
</g>
<!-- Visual Feedback (UI) -->
<g id="node19" class="node">
<title>Visual Feedback (UI)</title>
<ellipse fill="#00ff00" stroke="#000000" cx="693.9134" cy="-573.0989" rx="101.355" ry="18"/>
<text text-anchor="middle" x="693.9134" y="-568.8989" font-family="Arial" font-size="14.00" fill="#000000">Visual Feedback (UI)</text>
</g>
<!-- Character Glyph&#45;&gt;Visual Feedback (UI) -->
<g id="edge21" class="edge">
<title>Character Glyph&#45;&gt;Visual Feedback (UI)</title>
<path fill="none" stroke="#000000" d="M663.0142,-618.8172C667.2019,-612.621 671.6579,-606.028 675.8443,-599.8338"/>
<polygon fill="#000000" stroke="#000000" points="659.9781,-617.059 657.2782,-627.3041 665.7777,-620.9788 659.9781,-617.059"/>
<polygon fill="#000000" stroke="#000000" points="679.0225,-601.3818 681.7224,-591.1367 673.2229,-597.462 679.0225,-601.3818"/>
</g>
<!-- GlyphsCompositionRules DB -->
<g id="node14" class="node">
<title>GlyphsCompositionRules DB</title>
<polygon fill="#ffc0cb" stroke="#000000" points="446.6841,-700.5989 446.6841,-736.5989 643.1427,-736.5989 643.1427,-700.5989 446.6841,-700.5989"/>
<text text-anchor="middle" x="544.9134" y="-714.3989" font-family="Arial" font-size="14.00" fill="#000000">GlyphsCompositionRules DB</text>
</g>
<!-- GlyphsCompositionRules DB&#45;&gt;Deep Components Instantiator Tool -->
<g id="edge14" class="edge">
<title>GlyphsCompositionRules DB&#45;&gt;Deep Components Instantiator Tool</title>
<path fill="none" stroke="#000000" d="M521.1078,-692.7503C496.7085,-666.257 458.9877,-625.2989 434.6233,-598.8435"/>
<polygon fill="#000000" stroke="#000000" points="518.8642,-695.4807 528.2132,-700.4654 524.0133,-690.7386 518.8642,-695.4807"/>
<polygon fill="#000000" stroke="#000000" points="437.1731,-596.4457 427.8241,-591.4609 432.024,-601.1878 437.1731,-596.4457"/>
</g>
<!-- GlyphsCompositionRules DB&#45;&gt;Character Glyph -->
<g id="edge13" class="edge">
<title>GlyphsCompositionRules DB&#45;&gt;Character Glyph</title>
<path fill="none" stroke="#000000" d="M577.9054,-694.5147C588.8723,-686.5089 601.0786,-677.5983 612.0368,-669.5988"/>
<polygon fill="#000000" stroke="#000000" points="575.6458,-691.8309 569.6325,-700.554 579.7731,-697.4847 575.6458,-691.8309"/>
<polygon fill="#000000" stroke="#000000" points="614.1189,-672.4123 620.1321,-663.6893 609.9916,-666.7585 614.1189,-672.4123"/>
</g>
<!-- Select Instance&#45;&gt;{DeepComponentGlyph:{}} -->
<g id="edge16" class="edge">
<title>Select Instance&#45;&gt;{DeepComponentGlyph:{}}</title>
<path fill="none" stroke="#000000" d="M585.6894,-401.1155C611.7134,-382.0222 639.8934,-357.2553 658.9134,-329 671.7501,-309.9304 678.8904,-284.7426 682.7419,-265.6222"/>
<polygon fill="#000000" stroke="#000000" points="686.2001,-266.1682 684.5586,-255.7013 679.3145,-264.9073 686.2001,-266.1682"/>
</g>
<!-- {DeepComponentGlyph:(UUID, Offset)} -->
<g id="node20" class="node">
<title>{DeepComponentGlyph:(UUID, Offset)}</title>
<polygon fill="none" stroke="#000000" points="389.7795,-292.5 389.7795,-328.5 650.0473,-328.5 650.0473,-292.5 389.7795,-292.5"/>
<text text-anchor="middle" x="519.9134" y="-306.3" font-family="Arial" font-size="14.00" fill="#000000">{DeepComponentGlyph:(UUID, Offset)}</text>
</g>
<!-- Select Instance&#45;&gt;{DeepComponentGlyph:(UUID, Offset)} -->
<g id="edge24" class="edge">
<title>Select Instance&#45;&gt;{DeepComponentGlyph:(UUID, Offset)}</title>
<path fill="none" stroke="#000000" d="M519.9134,-364.7657C519.9134,-355.6426 519.9134,-346.8244 519.9134,-339.0428"/>
<polygon fill="#000000" stroke="#000000" points="523.4135,-338.8086 519.9134,-328.8087 516.4135,-338.8087 523.4135,-338.8086"/>
</g>
<!-- Add Instance&#45;&gt;[LayerNames] -->
<g id="edge18" class="edge">
<title>Add Instance&#45;&gt;[LayerNames]</title>
<path fill="none" stroke="#000000" d="M199.2542,-430.4579C104.5539,-412.5219 -38.4896,-371.4961 9.9134,-292 81.3679,-174.6447 246.0683,-122.9689 336.2068,-102.7909"/>
<polygon fill="#000000" stroke="#000000" points="198.6472,-433.9049 209.1161,-432.2761 199.9164,-427.021 198.6472,-433.9049"/>
<polygon fill="#000000" stroke="#000000" points="336.9951,-106.2013 346.0207,-100.6526 335.5048,-99.3618 336.9951,-106.2013"/>
</g>
<!-- {UUID:{Instance DeepCompo&#45;DesignSpace Location}} -->
<g id="node17" class="node">
<title>{UUID:{Instance DeepCompo&#45;DesignSpace Location}}</title>
<polygon fill="none" stroke="#000000" points="18.4745,-292.5 18.4745,-328.5 371.3523,-328.5 371.3523,-292.5 18.4745,-292.5"/>
<text text-anchor="middle" x="194.9134" y="-306.3" font-family="Arial" font-size="14.00" fill="#000000">{UUID:{Instance DeepCompo&#45;DesignSpace Location}}</text>
</g>
<!-- Add Instance&#45;&gt;{UUID:{Instance DeepCompo&#45;DesignSpace Location}} -->
<g id="edge19" class="edge">
<title>Add Instance&#45;&gt;{UUID:{Instance DeepCompo&#45;DesignSpace Location}}</title>
<path fill="none" stroke="#000000" d="M240.3856,-384.3499C230.3008,-367.9715 219.7984,-350.9148 211.4308,-337.3253"/>
<polygon fill="#000000" stroke="#000000" points="214.2338,-335.2021 206.0103,-328.522 208.2731,-338.8724 214.2338,-335.2021"/>
</g>
<!-- Add Instance&#45;&gt;{DeepComponentGlyph:(UUID, Offset)} -->
<g id="edge23" class="edge">
<title>Add Instance&#45;&gt;{DeepComponentGlyph:(UUID, Offset)}</title>
<path fill="none" stroke="#000000" d="M335.2905,-410.0371C379.1702,-386.3799 437.8783,-354.7282 477.2006,-333.5281"/>
<polygon fill="#000000" stroke="#000000" points="479.1252,-336.4668 486.2664,-328.6403 475.8032,-330.3052 479.1252,-336.4668"/>
</g>
<!-- {UUID:{Instance DeepCompo&#45;DesignSpace Location}}&#45;&gt;{DeepComponentGlyph:{}} -->
<g id="edge20" class="edge">
<title>{UUID:{Instance DeepCompo&#45;DesignSpace Location}}&#45;&gt;{DeepComponentGlyph:{}}</title>
<path fill="none" stroke="#000000" d="M335.7524,-292.4715C407.7959,-282.8718 497.1056,-270.3941 586.1779,-256.0835"/>
<polygon fill="#000000" stroke="#000000" points="586.879,-259.5157 596.1933,-254.4664 585.7632,-252.6052 586.879,-259.5157"/>
</g>
<!-- Character GlyphLib -->
<g id="node18" class="node">
<title>Character GlyphLib</title>
<polygon fill="#ffff00" stroke="#000000" points="441.6266,-219.5 441.6266,-255.5 578.2002,-255.5 578.2002,-219.5 441.6266,-219.5"/>
<text text-anchor="middle" x="509.9134" y="-233.3" font-family="Arial" font-size="14.00" fill="#000000">Character GlyphLib</text>
</g>
<!-- Visual Feedback (UI)&#45;&gt;Character GlyphLib -->
<g id="edge22" class="edge">
<title>Visual Feedback (UI)&#45;&gt;Character GlyphLib</title>
<path fill="none" stroke="#000000" d="M699.1924,-544.8131C707.7765,-489.6734 718.3288,-366.6868 658.9134,-292 649.1619,-279.7421 618.6655,-267.6187 587.7817,-257.9298"/>
<polygon fill="#000000" stroke="#000000" points="695.7025,-544.4647 697.5231,-554.902 702.6086,-545.6075 695.7025,-544.4647"/>
<polygon fill="#000000" stroke="#000000" points="588.7936,-254.5793 578.2072,-255.0036 586.7476,-261.2736 588.7936,-254.5793"/>
</g>
<!-- {DeepComponentGlyph:(UUID, Offset)}&#45;&gt;Character GlyphLib -->
<g id="edge25" class="edge">
<title>{DeepComponentGlyph:(UUID, Offset)}&#45;&gt;Character GlyphLib</title>
<path fill="none" stroke="#000000" d="M517.4415,-292.4551C516.3357,-284.3828 515.0061,-274.6764 513.7739,-265.6817"/>
<polygon fill="#000000" stroke="#000000" points="517.2164,-265.0228 512.3916,-255.5904 510.2812,-265.9729 517.2164,-265.0228"/>
</g>
</g>
</svg>
