<?xml version="1.0" encoding="UTF-8" standalone="no"?>
<!DOCTYPE svg PUBLIC "-//W3C//DTD SVG 1.1//EN"
 "http://www.w3.org/Graphics/SVG/1.1/DTD/svg11.dtd">
<!-- Generated by graphviz version 2.40.1 (20161225.0304)
 -->
<!-- Title: %0 Pages: 1 -->
<svg width="944pt" height="754pt"
 viewBox="0.00 0.00 944.12 754.14" xmlns="http://www.w3.org/2000/svg" xmlns:xlink="http://www.w3.org/1999/xlink">
<g id="graph0" class="graph" transform="scale(1 1) rotate(0) translate(4 750.1405)">
<title>%0</title>
<polygon fill="#ffffff" stroke="transparent" points="-4,4 -4,-750.1405 940.1217,-750.1405 940.1217,4 -4,4"/>
<!-- RoboCJK UI -->
<g id="node1" class="node">
<title>RoboCJK UI</title>
<polygon fill="none" stroke="#000000" points="655.2542,-709.6405 655.2542,-745.6405 744.7458,-745.6405 744.7458,-709.6405 655.2542,-709.6405"/>
<text text-anchor="middle" x="700" y="-723.4405" font-family="Times,serif" font-size="14.00" fill="#000000">RoboCJK UI</text>
</g>
<!-- Project Editor -->
<g id="node2" class="node">
<title>Project Editor</title>
<polygon fill="#ffc0cb" stroke="#ffc0cb" points="491.926,-636.6405 491.926,-672.6405 586.074,-672.6405 586.074,-636.6405 491.926,-636.6405"/>
<text text-anchor="middle" x="539" y="-650.4405" font-family="Times,serif" font-size="14.00" fill="#000000">Project Editor</text>
</g>
<!-- RoboCJK UI&#45;&gt;Project Editor -->
<g id="edge1" class="edge">
<title>RoboCJK UI&#45;&gt;Project Editor</title>
<path fill="none" stroke="#000000" d="M660.2022,-709.5955C638.4321,-699.7246 611.2725,-687.41 588.1844,-676.9415"/>
<polygon fill="#000000" stroke="#000000" points="589.4508,-673.6728 578.8979,-672.7309 586.5601,-680.0481 589.4508,-673.6728"/>
</g>
<!-- Settings -->
<g id="node3" class="node">
<title>Settings</title>
<polygon fill="#ffc0cb" stroke="#ffc0cb" points="766.4432,-636.6405 766.4432,-672.6405 827.5568,-672.6405 827.5568,-636.6405 766.4432,-636.6405"/>
<text text-anchor="middle" x="797" y="-650.4405" font-family="Times,serif" font-size="14.00" fill="#000000">Settings</text>
</g>
<!-- RoboCJK UI&#45;&gt;Settings -->
<g id="edge2" class="edge">
<title>RoboCJK UI&#45;&gt;Settings</title>
<path fill="none" stroke="#000000" d="M723.9775,-709.5955C736.3359,-700.295 751.5769,-688.8249 764.9326,-678.7737"/>
<polygon fill="#000000" stroke="#000000" points="767.0766,-681.5406 772.9621,-672.7309 762.8674,-675.9475 767.0766,-681.5406"/>
</g>
<!-- Space Center -->
<g id="node4" class="node">
<title>Space Center</title>
<polygon fill="#ffc0cb" stroke="#ffc0cb" points="845.8783,-636.6405 845.8783,-672.6405 936.1217,-672.6405 936.1217,-636.6405 845.8783,-636.6405"/>
<text text-anchor="middle" x="891" y="-650.4405" font-family="Times,serif" font-size="14.00" fill="#000000">Space Center</text>
</g>
<!-- RoboCJK UI&#45;&gt;Space Center -->
<g id="edge3" class="edge">
<title>RoboCJK UI&#45;&gt;Space Center</title>
<path fill="none" stroke="#000000" d="M744.781,-710.5252C772.1224,-700.0754 807.2773,-686.6392 836.2641,-675.5605"/>
<polygon fill="#000000" stroke="#000000" points="837.7463,-678.741 845.8378,-671.9015 835.2472,-672.2023 837.7463,-678.741"/>
</g>
<!-- Variable Component Editor -->
<g id="node5" class="node">
<title>Variable Component Editor</title>
<polygon fill="#ffc0cb" stroke="#ffc0cb" points="500.2405,-417.6405 500.2405,-453.6405 671.7595,-453.6405 671.7595,-417.6405 500.2405,-417.6405"/>
<text text-anchor="middle" x="586" y="-431.4405" font-family="Times,serif" font-size="14.00" fill="#000000">Variable Component Editor</text>
</g>
<!-- RoboCJK UI&#45;&gt;Variable Component Editor -->
<g id="edge4" class="edge">
<title>RoboCJK UI&#45;&gt;Variable Component Editor</title>
<path fill="none" stroke="#000000" d="M699.0985,-709.3858C696.3348,-667.7849 685.3682,-563.8506 643,-490.1405 636.7101,-479.1977 627.5587,-469.0686 618.4223,-460.5863"/>
<polygon fill="#000000" stroke="#000000" points="620.6265,-457.8634 610.8144,-453.8667 615.9925,-463.11 620.6265,-457.8634"/>
</g>
<!-- Variable Component Selector -->
<g id="node6" class="node">
<title>Variable Component Selector</title>
<polygon fill="#ffc0cb" stroke="#ffc0cb" points="147.8036,-271.6405 147.8036,-307.6405 330.1964,-307.6405 330.1964,-271.6405 147.8036,-271.6405"/>
<text text-anchor="middle" x="239" y="-285.4405" font-family="Times,serif" font-size="14.00" fill="#000000">Variable Component Selector</text>
</g>
<!-- RoboCJK UI&#45;&gt;Variable Component Selector -->
<g id="edge5" class="edge">
<title>RoboCJK UI&#45;&gt;Variable Component Selector</title>
<path fill="none" stroke="#000000" d="M655.147,-723.0845C500.6496,-706.7969 0,-648.8329 0,-581.6405 0,-581.6405 0,-581.6405 0,-435.6405 0,-367.0772 72.5146,-329.7491 137.658,-310.0485"/>
<polygon fill="#000000" stroke="#000000" points="138.9959,-313.3046 147.6213,-307.1521 137.0418,-306.5828 138.9959,-313.3046"/>
</g>
<!-- Get Mini Font / Inject Back -->
<g id="node7" class="node">
<title>Get Mini Font / Inject Back</title>
<polygon fill="#ffc0cb" stroke="#ffc0cb" points="386.4309,-271.6405 386.4309,-307.6405 557.5691,-307.6405 557.5691,-271.6405 386.4309,-271.6405"/>
<text text-anchor="middle" x="472" y="-285.4405" font-family="Times,serif" font-size="14.00" fill="#000000">Get Mini Font / Inject Back</text>
</g>
<!-- RoboCJK UI&#45;&gt;Get Mini Font / Inject Back -->
<g id="edge6" class="edge">
<title>RoboCJK UI&#45;&gt;Get Mini Font / Inject Back</title>
<path fill="none" stroke="#000000" d="M707.8736,-709.5961C719.0041,-682.4024 738,-629.0475 738,-581.6405 738,-581.6405 738,-581.6405 738,-435.6405 738,-355.4792 644.0172,-319.0301 567.7796,-302.6501"/>
<polygon fill="#000000" stroke="#000000" points="568.1283,-299.1487 557.6283,-300.5631 566.7185,-306.0053 568.1283,-299.1487"/>
</g>
<!-- .roboCJKproject -->
<g id="node11" class="node">
<title>.roboCJKproject</title>
<polygon fill="none" stroke="#000000" points="436.5403,-563.6405 436.5403,-599.6405 545.4597,-599.6405 545.4597,-563.6405 436.5403,-563.6405"/>
<text text-anchor="middle" x="491" y="-577.4405" font-family="Times,serif" font-size="14.00" fill="#000000">.roboCJKproject</text>
</g>
<!-- Project Editor&#45;&gt;.roboCJKproject -->
<g id="edge10" class="edge">
<title>Project Editor&#45;&gt;.roboCJKproject</title>
<path fill="none" stroke="#000000" d="M527.1348,-636.5955C521.5386,-628.0846 514.7478,-617.757 508.5706,-608.3624"/>
<polygon fill="#000000" stroke="#000000" points="511.3136,-606.1635 502.895,-599.7309 505.4647,-610.0094 511.3136,-606.1635"/>
</g>
<!-- UFO&#45;Masters -->
<g id="node8" class="node">
<title>UFO&#45;Masters</title>
<polygon fill="#add8e6" stroke="#add8e6" points="539.5147,-344.6405 539.5147,-380.6405 632.4853,-380.6405 632.4853,-344.6405 539.5147,-344.6405"/>
<text text-anchor="middle" x="586" y="-358.4405" font-family="Times,serif" font-size="14.00" fill="#000000">UFO&#45;Masters</text>
</g>
<!-- Variable Component Editor&#45;&gt;UFO&#45;Masters -->
<g id="edge17" class="edge">
<title>Variable Component Editor&#45;&gt;UFO&#45;Masters</title>
<path fill="none" stroke="#000000" d="M586,-417.5955C586,-409.5233 586,-399.8169 586,-390.8222"/>
<polygon fill="#000000" stroke="#000000" points="589.5001,-390.7308 586,-380.7309 582.5001,-390.7309 589.5001,-390.7308"/>
</g>
<!-- Variable Component Glyphs -->
<g id="node10" class="node">
<title>Variable Component Glyphs</title>
<polygon fill="#add8e6" stroke="#add8e6" points="267.5168,-344.6405 267.5168,-380.6405 444.4832,-380.6405 444.4832,-344.6405 267.5168,-344.6405"/>
<text text-anchor="middle" x="356" y="-358.4405" font-family="Times,serif" font-size="14.00" fill="#000000">Variable Component Glyphs</text>
</g>
<!-- Variable Component Editor&#45;&gt;Variable Component Glyphs -->
<g id="edge9" class="edge">
<title>Variable Component Editor&#45;&gt;Variable Component Glyphs</title>
<path fill="none" stroke="#000000" d="M529.1461,-417.5955C496.9401,-407.3737 456.4777,-394.5312 422.7679,-383.832"/>
<polygon fill="#000000" stroke="#000000" points="423.5873,-380.4201 412.997,-380.7309 421.4696,-387.0921 423.5873,-380.4201"/>
</g>
<!-- UFO&#45;Subsetted -->
<g id="node9" class="node">
<title>UFO&#45;Subsetted</title>
<polygon fill="#add8e6" stroke="#add8e6" points="403.453,-198.6405 403.453,-234.6405 506.547,-234.6405 506.547,-198.6405 403.453,-198.6405"/>
<text text-anchor="middle" x="455" y="-212.4405" font-family="Times,serif" font-size="14.00" fill="#000000">UFO&#45;Subsetted</text>
</g>
<!-- Variable Component Selector&#45;&gt;UFO&#45;Subsetted -->
<g id="edge22" class="edge">
<title>Variable Component Selector&#45;&gt;UFO&#45;Subsetted</title>
<path fill="none" stroke="#000000" d="M302.1551,-268.2964C334.3304,-257.4224 372.9627,-244.3661 403.3377,-234.1004"/>
<polygon fill="#000000" stroke="#000000" points="300.7462,-265.078 292.3933,-271.5955 302.9875,-271.7095 300.7462,-265.078"/>
</g>
<!-- Variable Component Instances Data -->
<g id="node18" class="node">
<title>Variable Component Instances Data</title>
<polygon fill="#40e0d0" stroke="#40e0d0" points="111.7324,-198.6405 111.7324,-234.6405 330.2676,-234.6405 330.2676,-198.6405 111.7324,-198.6405"/>
<text text-anchor="middle" x="221" y="-212.4405" font-family="Times,serif" font-size="14.00" fill="#000000">Variable Component Instances Data</text>
</g>
<!-- Variable Component Selector&#45;&gt;Variable Component Instances Data -->
<g id="edge25" class="edge">
<title>Variable Component Selector&#45;&gt;Variable Component Instances Data</title>
<path fill="none" stroke="#000000" d="M234.5506,-271.5955C232.5385,-263.4356 230.1147,-253.6057 227.8767,-244.5292"/>
<polygon fill="#000000" stroke="#000000" points="231.253,-243.6021 225.4606,-234.7309 224.4565,-245.278 231.253,-243.6021"/>
</g>
<!-- Get Mini Font / Inject Back&#45;&gt;UFO&#45;Subsetted -->
<g id="edge8" class="edge">
<title>Get Mini Font / Inject Back&#45;&gt;UFO&#45;Subsetted</title>
<path fill="none" stroke="#000000" d="M465.5171,-261.8023C464.1965,-256.1312 462.8069,-250.1641 461.4861,-244.4926"/>
<polygon fill="#000000" stroke="#000000" points="462.1208,-262.65 467.7978,-271.5955 468.9384,-261.0623 462.1208,-262.65"/>
<polygon fill="#000000" stroke="#000000" points="464.8898,-243.6764 459.2128,-234.7309 458.0722,-245.2641 464.8898,-243.6764"/>
</g>
<!-- UFO&#45;Masters&#45;&gt;Get Mini Font / Inject Back -->
<g id="edge7" class="edge">
<title>UFO&#45;Masters&#45;&gt;Get Mini Font / Inject Back</title>
<path fill="none" stroke="#000000" d="M549.2748,-339.1235C536.358,-330.8522 521.844,-321.5581 508.9119,-313.2771"/>
<polygon fill="#000000" stroke="#000000" points="547.5114,-342.1504 557.8202,-344.5955 551.2863,-336.2554 547.5114,-342.1504"/>
<polygon fill="#000000" stroke="#000000" points="510.5595,-310.176 500.2507,-307.7309 506.7846,-316.071 510.5595,-310.176"/>
</g>
<!-- CI Build -->
<g id="node17" class="node">
<title>CI Build</title>
<ellipse fill="none" stroke="#000000" cx="358" cy="-117.5702" rx="44.6406" ry="44.6406"/>
<text text-anchor="middle" x="358" y="-113.3702" font-family="Times,serif" font-size="14.00" fill="#000000">CI Build</text>
</g>
<!-- UFO&#45;Masters&#45;&gt;CI Build -->
<g id="edge23" class="edge">
<title>UFO&#45;Masters&#45;&gt;CI Build</title>
<path fill="none" stroke="#000000" d="M584.4072,-344.4518C582.2542,-325.5048 577.411,-295.274 567,-271.1405 551.3229,-234.7998 545.8519,-224.1267 516,-198.1405 484.716,-170.9076 442.6089,-150.0263 409.7302,-136.3523"/>
<polygon fill="#000000" stroke="#000000" points="410.8646,-133.0355 400.2826,-132.5145 408.23,-139.5208 410.8646,-133.0355"/>
</g>
<!-- Variable Component Glyphs&#45;&gt;Variable Component Selector -->
<g id="edge21" class="edge">
<title>Variable Component Glyphs&#45;&gt;Variable Component Selector</title>
<path fill="none" stroke="#000000" d="M327.0786,-344.5955C311.891,-335.1195 293.0937,-323.3913 276.7699,-313.2063"/>
<polygon fill="#000000" stroke="#000000" points="278.3309,-310.0549 267.9941,-307.7309 274.6255,-315.9938 278.3309,-310.0549"/>
</g>
<!-- Variable Component Glyphs&#45;&gt;CI Build -->
<g id="edge24" class="edge">
<title>Variable Component Glyphs&#45;&gt;CI Build</title>
<path fill="none" stroke="#000000" d="M356.1471,-344.6199C356.4386,-308.8968 357.1003,-227.812 357.5488,-172.862"/>
<polygon fill="#000000" stroke="#000000" points="361.0508,-172.6106 357.6327,-162.5823 354.0511,-172.5534 361.0508,-172.6106"/>
</g>
<!-- .roboCJKproject&#45;&gt;UFO&#45;Masters -->
<g id="edge12" class="edge">
<title>.roboCJKproject&#45;&gt;UFO&#45;Masters</title>
<path fill="none" stroke="#000000" d="M545.6282,-572.356C577.0729,-564.6785 615.6482,-551.0121 643,-527.1405 670.5576,-503.0894 672.3064,-489.6693 681,-454.1405 684.9085,-438.1673 689.2418,-431.3705 681,-417.1405 672.1573,-401.8731 657.2442,-390.5134 641.8229,-382.2343"/>
<polygon fill="#000000" stroke="#000000" points="643.2386,-379.0294 632.7263,-377.7094 640.121,-385.2969 643.2386,-379.0294"/>
</g>
<!-- Character&#45;Sets -->
<g id="node12" class="node">
<title>Character&#45;Sets</title>
<polygon fill="#c0c0c0" stroke="#c0c0c0" points="27.8001,-490.6405 27.8001,-526.6405 126.1999,-526.6405 126.1999,-490.6405 27.8001,-490.6405"/>
<text text-anchor="middle" x="77" y="-504.4405" font-family="Times,serif" font-size="14.00" fill="#000000">Character&#45;Sets</text>
</g>
<!-- .roboCJKproject&#45;&gt;Character&#45;Sets -->
<g id="edge11" class="edge">
<title>.roboCJKproject&#45;&gt;Character&#45;Sets</title>
<path fill="none" stroke="#000000" d="M436.384,-575.8607C368.2443,-568.0732 248.1246,-552.4498 136.1895,-526.9868"/>
<polygon fill="#000000" stroke="#000000" points="136.9553,-523.5716 126.4246,-524.7353 135.3825,-530.3927 136.9553,-523.5716"/>
</g>
<!-- Glyph Composition Data -->
<g id="node13" class="node">
<title>Glyph Composition Data</title>
<polygon fill="#c0c0c0" stroke="#c0c0c0" points="257.6164,-490.6405 257.6164,-526.6405 414.3836,-526.6405 414.3836,-490.6405 257.6164,-490.6405"/>
<text text-anchor="middle" x="336" y="-504.4405" font-family="Times,serif" font-size="14.00" fill="#000000">Glyph Composition Data</text>
</g>
<!-- .roboCJKproject&#45;&gt;Glyph Composition Data -->
<g id="edge13" class="edge">
<title>.roboCJKproject&#45;&gt;Glyph Composition Data</title>
<path fill="none" stroke="#000000" d="M452.6854,-563.5955C431.8197,-553.7685 405.8115,-541.5194 383.648,-531.0812"/>
<polygon fill="#000000" stroke="#000000" points="384.9492,-527.8253 374.411,-526.7309 381.9666,-534.1581 384.9492,-527.8253"/>
</g>
<!-- Design Frame -->
<g id="node14" class="node">
<title>Design Frame</title>
<polygon fill="#c0c0c0" stroke="#c0c0c0" points="144.5403,-490.6405 144.5403,-526.6405 239.4597,-526.6405 239.4597,-490.6405 144.5403,-490.6405"/>
<text text-anchor="middle" x="192" y="-504.4405" font-family="Times,serif" font-size="14.00" fill="#000000">Design Frame</text>
</g>
<!-- .roboCJKproject&#45;&gt;Design Frame -->
<g id="edge14" class="edge">
<title>.roboCJKproject&#45;&gt;Design Frame</title>
<path fill="none" stroke="#000000" d="M436.3408,-570.8347C389.2722,-561.1898 319.3778,-546.0603 249.3645,-527.1141"/>
<polygon fill="#000000" stroke="#000000" points="250.0557,-523.6747 239.4868,-524.4155 248.2109,-530.4273 250.0557,-523.6747"/>
</g>
<!-- Reference Viewer -->
<g id="node15" class="node">
<title>Reference Viewer</title>
<polygon fill="#c0c0c0" stroke="#c0c0c0" points="432.2878,-490.6405 432.2878,-526.6405 549.7122,-526.6405 549.7122,-490.6405 432.2878,-490.6405"/>
<text text-anchor="middle" x="491" y="-504.4405" font-family="Times,serif" font-size="14.00" fill="#000000">Reference Viewer</text>
</g>
<!-- .roboCJKproject&#45;&gt;Reference Viewer -->
<g id="edge15" class="edge">
<title>.roboCJKproject&#45;&gt;Reference Viewer</title>
<path fill="none" stroke="#000000" d="M491,-563.5955C491,-555.5233 491,-545.8169 491,-536.8222"/>
<polygon fill="#000000" stroke="#000000" points="494.5001,-536.7308 491,-526.7309 487.5001,-536.7309 494.5001,-536.7308"/>
</g>
<!-- Calendar -->
<g id="node16" class="node">
<title>Calendar</title>
<polygon fill="#c0c0c0" stroke="#c0c0c0" points="567.7342,-490.6405 567.7342,-526.6405 634.2658,-526.6405 634.2658,-490.6405 567.7342,-490.6405"/>
<text text-anchor="middle" x="601" y="-504.4405" font-family="Times,serif" font-size="14.00" fill="#000000">Calendar</text>
</g>
<!-- .roboCJKproject&#45;&gt;Calendar -->
<g id="edge16" class="edge">
<title>.roboCJKproject&#45;&gt;Calendar</title>
<path fill="none" stroke="#000000" d="M518.191,-563.5955C532.3378,-554.2072 549.8157,-542.6083 565.063,-532.4896"/>
<polygon fill="#000000" stroke="#000000" points="567.3437,-535.1767 573.7406,-526.7309 563.4731,-529.3442 567.3437,-535.1767"/>
</g>
<!-- Glyph Composition Data&#45;&gt;Variable Component Editor -->
<g id="edge18" class="edge">
<title>Glyph Composition Data&#45;&gt;Variable Component Editor</title>
<path fill="none" stroke="#000000" d="M407.4698,-487.7713C440.968,-477.9898 480.7896,-466.3619 514.3148,-456.5726"/>
<polygon fill="#000000" stroke="#000000" points="406.4159,-484.4328 397.7978,-490.5955 408.378,-491.1522 406.4159,-484.4328"/>
<polygon fill="#000000" stroke="#000000" points="515.4286,-459.8936 524.0467,-453.7309 513.4665,-453.1742 515.4286,-459.8936"/>
</g>
<!-- Glyph Composition Data&#45;&gt;Variable Component Selector -->
<g id="edge20" class="edge">
<title>Glyph Composition Data&#45;&gt;Variable Component Selector</title>
<path fill="none" stroke="#000000" d="M322.1892,-490.2288C304.9039,-466.3144 275.5621,-422.6976 259,-381.1405 250.8477,-360.6849 245.7237,-336.2664 242.7055,-317.8017"/>
<polygon fill="#000000" stroke="#000000" points="246.1316,-317.0514 241.1647,-307.693 239.2115,-318.1062 246.1316,-317.0514"/>
</g>
<!-- Glyph Composition Data&#45;&gt;Get Mini Font / Inject Back -->
<g id="edge19" class="edge">
<title>Glyph Composition Data&#45;&gt;Get Mini Font / Inject Back</title>
<path fill="none" stroke="#000000" d="M366.4899,-483.9889C393.4852,-460.4463 431.7984,-422.5082 453,-381.1405 463.1301,-361.3751 467.8592,-336.584 470.067,-317.7941"/>
<polygon fill="#000000" stroke="#000000" points="364.1719,-481.366 358.8538,-490.5294 368.7255,-486.6824 364.1719,-481.366"/>
<polygon fill="#000000" stroke="#000000" points="473.5562,-318.0758 471.0749,-307.7757 466.5914,-317.3751 473.5562,-318.0758"/>
</g>
<!-- VarFont 1.9 -->
<g id="node19" class="node">
<title>VarFont 1.9</title>
<polygon fill="none" stroke="#000000" points="214.1725,-.5 214.1725,-36.5 297.8275,-36.5 297.8275,-.5 214.1725,-.5"/>
<text text-anchor="middle" x="256" y="-14.3" font-family="Times,serif" font-size="14.00" fill="#000000">VarFont 1.9</text>
</g>
<!-- CI Build&#45;&gt;VarFont 1.9 -->
<g id="edge27" class="edge">
<title>CI Build&#45;&gt;VarFont 1.9</title>
<path fill="none" stroke="#000000" d="M326.0064,-86.4956C311.9408,-72.834 295.6243,-56.9862 282.2837,-44.0288"/>
<polygon fill="#000000" stroke="#000000" points="284.4243,-41.2287 274.8124,-36.772 279.5472,-46.25 284.4243,-41.2287"/>
</g>
<!-- VarFont 1.8 -->
<g id="node20" class="node">
<title>VarFont 1.8</title>
<polygon fill="none" stroke="#000000" points="316.1725,-.5 316.1725,-36.5 399.8275,-36.5 399.8275,-.5 316.1725,-.5"/>
<text text-anchor="middle" x="358" y="-14.3" font-family="Times,serif" font-size="14.00" fill="#000000">VarFont 1.8</text>
</g>
<!-- CI Build&#45;&gt;VarFont 1.8 -->
<g id="edge28" class="edge">
<title>CI Build&#45;&gt;VarFont 1.8</title>
<path fill="none" stroke="#000000" d="M358,-72.962C358,-64.1058 358,-55.0374 358,-46.9044"/>
<polygon fill="#000000" stroke="#000000" points="361.5001,-46.8479 358,-36.8479 354.5001,-46.8479 361.5001,-46.8479"/>
</g>
<!-- Static Fonts -->
<g id="node21" class="node">
<title>Static Fonts</title>
<polygon fill="none" stroke="#000000" points="417.7493,-.5 417.7493,-36.5 500.2507,-36.5 500.2507,-.5 417.7493,-.5"/>
<text text-anchor="middle" x="459" y="-14.3" font-family="Times,serif" font-size="14.00" fill="#000000">Static Fonts</text>
</g>
<!-- CI Build&#45;&gt;Static Fonts -->
<g id="edge29" class="edge">
<title>CI Build&#45;&gt;Static Fonts</title>
<path fill="none" stroke="#000000" d="M389.957,-86.2238C403.8706,-72.5761 419.965,-56.7892 433.113,-43.8924"/>
<polygon fill="#000000" stroke="#000000" points="435.787,-46.1722 440.475,-36.671 430.8852,-41.1749 435.787,-46.1722"/>
</g>
<!-- Variable Component Instances Data&#45;&gt;CI Build -->
<g id="edge26" class="edge">
<title>Variable Component Instances Data&#45;&gt;CI Build</title>
<path fill="none" stroke="#000000" d="M246.1279,-198.4695C264.896,-184.8975 291.0435,-165.9892 313.3406,-149.8653"/>
<polygon fill="#000000" stroke="#000000" points="315.6219,-152.5348 321.6743,-143.8389 311.52,-146.8626 315.6219,-152.5348"/>
</g>
</g>
</svg>
