<?xml version="1.0" encoding="UTF-8" standalone="no"?>
<!DOCTYPE svg PUBLIC "-//W3C//DTD SVG 1.1//EN"
 "http://www.w3.org/Graphics/SVG/1.1/DTD/svg11.dtd">
<!-- Generated by graphviz version 2.40.1 (20161225.0304)
 -->
<!-- Title: %0 Pages: 1 -->
<svg width="862pt" height="754pt"
 viewBox="0.00 0.00 861.89 753.68" xmlns="http://www.w3.org/2000/svg" xmlns:xlink="http://www.w3.org/1999/xlink">
<g id="graph0" class="graph" transform="scale(1 1) rotate(0) translate(4 749.6755)">
<title>%0</title>
<polygon fill="#ffffff" stroke="transparent" points="-4,4 -4,-749.6755 857.8927,-749.6755 857.8927,4 -4,4"/>
<!-- RoboCJK -->
<g id="node1" class="node">
<title>RoboCJK</title>
<polygon fill="#ff1493" stroke="#000000" points="258.5505,-709.1755 258.5505,-745.1755 334.4481,-745.1755 334.4481,-709.1755 258.5505,-709.1755"/>
<text text-anchor="middle" x="296.4993" y="-722.9755" font-family="Arial" font-size="14.00" fill="#000000">RoboCJK</text>
</g>
<!-- RoboCJK Settings -->
<g id="node2" class="node">
<title>RoboCJK Settings</title>
<polygon fill="#c0c0c0" stroke="#000000" points="97.3191,-636.1755 97.3191,-672.1755 227.6795,-672.1755 227.6795,-636.1755 97.3191,-636.1755"/>
<text text-anchor="middle" x="162.4993" y="-649.9755" font-family="Arial" font-size="14.00" fill="#000000">RoboCJK Settings</text>
</g>
<!-- RoboCJK&#45;&gt;RoboCJK Settings -->
<g id="edge2" class="edge">
<title>RoboCJK&#45;&gt;RoboCJK Settings</title>
<path fill="none" stroke="#000000" d="M263.3757,-709.1305C245.6591,-699.479 223.654,-687.4911 204.7214,-677.1771"/>
<polygon fill="#000000" stroke="#000000" points="206.1621,-673.9763 195.7063,-672.2659 202.8133,-680.1233 206.1621,-673.9763"/>
</g>
<!-- Project Editor -->
<g id="node3" class="node">
<title>Project Editor</title>
<polygon fill="#ffc0cb" stroke="#000000" points="365.4944,-636.1755 365.4944,-672.1755 465.5042,-672.1755 465.5042,-636.1755 365.4944,-636.1755"/>
<text text-anchor="middle" x="415.4993" y="-649.9755" font-family="Arial" font-size="14.00" fill="#000000">Project Editor</text>
</g>
<!-- RoboCJK&#45;&gt;Project Editor -->
<g id="edge1" class="edge">
<title>RoboCJK&#45;&gt;Project Editor</title>
<path fill="none" stroke="#000000" d="M325.915,-709.1305C341.3623,-699.6545 360.4809,-687.9263 377.0838,-677.7413"/>
<polygon fill="#000000" stroke="#000000" points="379.3157,-680.4783 386.0095,-672.2659 375.6554,-674.5115 379.3157,-680.4783"/>
</g>
<!-- Space Center -->
<g id="node17" class="node">
<title>Space Center</title>
<polygon fill="#ffd700" stroke="#000000" points="245.709,-636.1755 245.709,-672.1755 347.2896,-672.1755 347.2896,-636.1755 245.709,-636.1755"/>
<text text-anchor="middle" x="296.4993" y="-649.9755" font-family="Arial" font-size="14.00" fill="#000000">Space Center</text>
</g>
<!-- RoboCJK&#45;&gt;Space Center -->
<g id="edge22" class="edge">
<title>RoboCJK&#45;&gt;Space Center</title>
<path fill="none" stroke="#000000" d="M296.4993,-709.1305C296.4993,-701.0583 296.4993,-691.3519 296.4993,-682.3572"/>
<polygon fill="#000000" stroke="#000000" points="299.9994,-682.2658 296.4993,-672.2659 292.9994,-682.2659 299.9994,-682.2658"/>
</g>
<!-- JSON roboCJKproject -->
<g id="node10" class="node">
<title>JSON roboCJKproject</title>
<polygon fill="none" stroke="#000000" points="338.6585,-563.1755 338.6585,-599.1755 492.3401,-599.1755 492.3401,-563.1755 338.6585,-563.1755"/>
<text text-anchor="middle" x="415.4993" y="-576.9755" font-family="Arial" font-size="14.00" fill="#000000">JSON roboCJKproject</text>
</g>
<!-- Project Editor&#45;&gt;JSON roboCJKproject -->
<g id="edge6" class="edge">
<title>Project Editor&#45;&gt;JSON roboCJKproject</title>
<path fill="none" stroke="#000000" d="M415.4993,-636.1305C415.4993,-628.0583 415.4993,-618.3519 415.4993,-609.3572"/>
<polygon fill="#000000" stroke="#000000" points="418.9994,-609.2658 415.4993,-599.2659 411.9994,-609.2659 418.9994,-609.2658"/>
</g>
<!-- Variable Component Editor -->
<g id="node4" class="node">
<title>Variable Component Editor</title>
<polygon fill="#ffc0cb" stroke="#000000" points="258.4818,-417.1755 258.4818,-453.1755 442.5168,-453.1755 442.5168,-417.1755 258.4818,-417.1755"/>
<text text-anchor="middle" x="350.4993" y="-430.9755" font-family="Arial" font-size="14.00" fill="#000000">Variable Component Editor</text>
</g>
<!-- UFO&#45;Masters -->
<g id="node7" class="node">
<title>UFO&#45;Masters</title>
<polygon fill="#add8e6" stroke="#000000" points="136.5056,-344.1755 136.5056,-380.1755 236.493,-380.1755 236.493,-344.1755 136.5056,-344.1755"/>
<text text-anchor="middle" x="186.4993" y="-357.9755" font-family="Arial" font-size="14.00" fill="#000000">UFO&#45;Masters</text>
</g>
<!-- Variable Component Editor&#45;&gt;UFO&#45;Masters -->
<g id="edge11" class="edge">
<title>Variable Component Editor&#45;&gt;UFO&#45;Masters</title>
<path fill="none" stroke="#000000" d="M309.96,-417.1305C287.6856,-407.2158 259.8725,-394.8355 236.2868,-384.337"/>
<polygon fill="#000000" stroke="#000000" points="237.6998,-381.1349 227.1407,-380.2659 234.8532,-387.53 237.6998,-381.1349"/>
</g>
<!-- Variable Component Glyphs -->
<g id="node9" class="node">
<title>Variable Component Glyphs</title>
<polygon fill="#add8e6" stroke="#000000" points="254.9804,-344.1755 254.9804,-380.1755 446.0182,-380.1755 446.0182,-344.1755 254.9804,-344.1755"/>
<text text-anchor="middle" x="350.4993" y="-357.9755" font-family="Arial" font-size="14.00" fill="#000000">Variable Component Glyphs</text>
</g>
<!-- Variable Component Editor&#45;&gt;Variable Component Glyphs -->
<g id="edge5" class="edge">
<title>Variable Component Editor&#45;&gt;Variable Component Glyphs</title>
<path fill="none" stroke="#000000" d="M350.4993,-417.1305C350.4993,-409.0583 350.4993,-399.3519 350.4993,-390.3572"/>
<polygon fill="#000000" stroke="#000000" points="353.9994,-390.2658 350.4993,-380.2659 346.9994,-390.2659 353.9994,-390.2658"/>
</g>
<!-- Variable Component Selector -->
<g id="node5" class="node">
<title>Variable Component Selector</title>
<polygon fill="#ffc0cb" stroke="#000000" points="441.0905,-271.1755 441.0905,-307.1755 639.9081,-307.1755 639.9081,-271.1755 441.0905,-271.1755"/>
<text text-anchor="middle" x="540.4993" y="-284.9755" font-family="Arial" font-size="14.00" fill="#000000">Variable Component Selector</text>
</g>
<!-- UFO&#45;Subsetted -->
<g id="node8" class="node">
<title>UFO&#45;Subsetted</title>
<polygon fill="#add8e6" stroke="#000000" points="279.8787,-198.1755 279.8787,-234.1755 393.1199,-234.1755 393.1199,-198.1755 279.8787,-198.1755"/>
<text text-anchor="middle" x="336.4993" y="-211.9755" font-family="Arial" font-size="14.00" fill="#000000">UFO&#45;Subsetted</text>
</g>
<!-- Variable Component Selector&#45;&gt;UFO&#45;Subsetted -->
<g id="edge16" class="edge">
<title>Variable Component Selector&#45;&gt;UFO&#45;Subsetted</title>
<path fill="none" stroke="#000000" d="M490.0723,-271.1305C461.7523,-260.9964 426.2342,-248.2865 396.4908,-237.643"/>
<polygon fill="#000000" stroke="#000000" points="397.6478,-234.3398 387.0532,-234.2659 395.2893,-240.9305 397.6478,-234.3398"/>
</g>
<!-- Variable Component Instances Data -->
<g id="node15" class="node">
<title>Variable Component Instances Data</title>
<polygon fill="#c0c0c0" stroke="#000000" points="417.0793,-198.1755 417.0793,-234.1755 657.9193,-234.1755 657.9193,-198.1755 417.0793,-198.1755"/>
<text text-anchor="middle" x="537.4993" y="-211.9755" font-family="Arial" font-size="14.00" fill="#000000">Variable Component Instances Data</text>
</g>
<!-- Variable Component Selector&#45;&gt;Variable Component Instances Data -->
<g id="edge19" class="edge">
<title>Variable Component Selector&#45;&gt;Variable Component Instances Data</title>
<path fill="none" stroke="#000000" d="M539.7577,-271.1305C539.426,-263.0583 539.0271,-253.3519 538.6575,-244.3572"/>
<polygon fill="#000000" stroke="#000000" points="542.1505,-244.1137 538.2427,-234.2659 535.1564,-244.4012 542.1505,-244.1137"/>
</g>
<!-- Get Mini Font / Inject Back -->
<g id="node6" class="node">
<title>Get Mini Font / Inject Back</title>
<polygon fill="#ffc0cb" stroke="#000000" points="243.4271,-271.1755 243.4271,-307.1755 423.5715,-307.1755 423.5715,-271.1755 243.4271,-271.1755"/>
<text text-anchor="middle" x="333.4993" y="-284.9755" font-family="Arial" font-size="14.00" fill="#000000">Get Mini Font / Inject Back</text>
</g>
<!-- Get Mini Font / Inject Back&#45;&gt;UFO&#45;Subsetted -->
<g id="edge4" class="edge">
<title>Get Mini Font / Inject Back&#45;&gt;UFO&#45;Subsetted</title>
<path fill="none" stroke="#000000" d="M334.6554,-261.0443C334.8806,-255.5649 335.1167,-249.8194 335.3419,-244.3389"/>
<polygon fill="#000000" stroke="#000000" points="331.1545,-260.9952 334.2409,-271.1305 338.1486,-261.2827 331.1545,-260.9952"/>
<polygon fill="#000000" stroke="#000000" points="338.8422,-244.4012 335.7559,-234.2659 331.8481,-244.1137 338.8422,-244.4012"/>
</g>
<!-- UFO&#45;Masters&#45;&gt;Get Mini Font / Inject Back -->
<g id="edge3" class="edge">
<title>UFO&#45;Masters&#45;&gt;Get Mini Font / Inject Back</title>
<path fill="none" stroke="#000000" d="M231.8726,-339.6432C249.7101,-330.7851 270.1504,-320.6345 288.0001,-311.7703"/>
<polygon fill="#000000" stroke="#000000" points="230.2361,-336.548 222.8364,-344.1305 233.3496,-342.8175 230.2361,-336.548"/>
<polygon fill="#000000" stroke="#000000" points="289.6711,-314.8484 297.0708,-307.2659 286.5576,-308.5789 289.6711,-314.8484"/>
</g>
<!-- CI Build -->
<g id="node14" class="node">
<title>CI Build</title>
<ellipse fill="none" stroke="#000000" cx="215.4993" cy="-116.8377" rx="44.6761" ry="44.6761"/>
<text text-anchor="middle" x="215.4993" y="-112.6377" font-family="Arial" font-size="14.00" fill="#000000">CI Build</text>
</g>
<!-- UFO&#45;Masters&#45;&gt;CI Build -->
<g id="edge17" class="edge">
<title>UFO&#45;Masters&#45;&gt;CI Build</title>
<path fill="none" stroke="#000000" d="M187.6852,-343.8652C189.7644,-313.4336 194.5206,-250.5572 201.4993,-197.6755 202.6366,-189.0574 204.0274,-179.9539 205.486,-171.0864"/>
<polygon fill="#000000" stroke="#000000" points="208.9393,-171.6563 207.1519,-161.2133 202.0368,-170.4916 208.9393,-171.6563"/>
</g>
<!-- Variable Component Glyphs&#45;&gt;Variable Component Selector -->
<g id="edge15" class="edge">
<title>Variable Component Glyphs&#45;&gt;Variable Component Selector</title>
<path fill="none" stroke="#000000" d="M397.4656,-344.1305C423.6138,-334.0841 456.3504,-321.5064 483.9041,-310.9199"/>
<polygon fill="#000000" stroke="#000000" points="485.3354,-314.1196 493.4148,-307.2659 482.8248,-307.5853 485.3354,-314.1196"/>
</g>
<!-- Variable Component Glyphs&#45;&gt;CI Build -->
<g id="edge18" class="edge">
<title>Variable Component Glyphs&#45;&gt;CI Build</title>
<path fill="none" stroke="#000000" d="M282.619,-344.0442C264.2248,-335.8747 246.1884,-324.209 234.4993,-307.6755 206.6798,-268.3266 204.2437,-212.4713 207.3812,-171.3515"/>
<polygon fill="#000000" stroke="#000000" points="210.8813,-171.5061 208.287,-161.2338 203.9092,-170.8819 210.8813,-171.5061"/>
</g>
<!-- JSON roboCJKproject&#45;&gt;UFO&#45;Masters -->
<g id="edge8" class="edge">
<title>JSON roboCJKproject&#45;&gt;UFO&#45;Masters</title>
<path fill="none" stroke="#000000" d="M377.9086,-563.0911C359.5065,-553.4442 337.4973,-540.683 319.4993,-526.6755 268.6837,-487.1268 225.0874,-424.5883 202.6578,-389.1023"/>
<polygon fill="#000000" stroke="#000000" points="205.4177,-386.9129 197.1618,-380.2728 199.4749,-390.6121 205.4177,-386.9129"/>
</g>
<!-- Character&#45;Sets -->
<g id="node11" class="node">
<title>Character&#45;Sets</title>
<polygon fill="#c0c0c0" stroke="#000000" points="514.4397,-490.1755 514.4397,-526.1755 624.5589,-526.1755 624.5589,-490.1755 514.4397,-490.1755"/>
<text text-anchor="middle" x="569.4993" y="-503.9755" font-family="Arial" font-size="14.00" fill="#000000">Character&#45;Sets</text>
</g>
<!-- JSON roboCJKproject&#45;&gt;Character&#45;Sets -->
<g id="edge7" class="edge">
<title>JSON roboCJKproject&#45;&gt;Character&#45;Sets</title>
<path fill="none" stroke="#000000" d="M453.5667,-563.1305C474.2978,-553.3035 500.1382,-541.0544 522.1587,-530.6162"/>
<polygon fill="#000000" stroke="#000000" points="523.7991,-533.712 531.3361,-526.2659 520.8007,-527.3866 523.7991,-533.712"/>
</g>
<!-- Glyph Composition Data -->
<g id="node12" class="node">
<title>Glyph Composition Data</title>
<polygon fill="#c0c0c0" stroke="#000000" points="328.6543,-490.1755 328.6543,-526.1755 496.3443,-526.1755 496.3443,-490.1755 328.6543,-490.1755"/>
<text text-anchor="middle" x="412.4993" y="-503.9755" font-family="Arial" font-size="14.00" fill="#000000">Glyph Composition Data</text>
</g>
<!-- JSON roboCJKproject&#45;&gt;Glyph Composition Data -->
<g id="edge9" class="edge">
<title>JSON roboCJKproject&#45;&gt;Glyph Composition Data</title>
<path fill="none" stroke="#000000" d="M414.7577,-563.1305C414.426,-555.0583 414.0271,-545.3519 413.6575,-536.3572"/>
<polygon fill="#000000" stroke="#000000" points="417.1505,-536.1137 413.2427,-526.2659 410.1564,-536.4012 417.1505,-536.1137"/>
</g>
<!-- Project Settings -->
<g id="node13" class="node">
<title>Project Settings</title>
<polygon fill="#c0c0c0" stroke="#000000" points="642.4881,-490.1755 642.4881,-526.1755 756.5105,-526.1755 756.5105,-490.1755 642.4881,-490.1755"/>
<text text-anchor="middle" x="699.4993" y="-503.9755" font-family="Arial" font-size="14.00" fill="#000000">Project Settings</text>
</g>
<!-- JSON roboCJKproject&#45;&gt;Project Settings -->
<g id="edge10" class="edge">
<title>JSON roboCJKproject&#45;&gt;Project Settings</title>
<path fill="none" stroke="#000000" d="M489.7949,-563.1544C529.5342,-553.385 579.5331,-540.8874 632.3883,-526.9395"/>
<polygon fill="#000000" stroke="#000000" points="633.5176,-530.2612 642.2889,-524.3186 631.7262,-523.4943 633.5176,-530.2612"/>
</g>
<!-- Glyph Composition Data&#45;&gt;Variable Component Editor -->
<g id="edge12" class="edge">
<title>Glyph Composition Data&#45;&gt;Variable Component Editor</title>
<path fill="none" stroke="#000000" d="M390.5842,-482.3723C384.7122,-475.4585 378.3632,-467.983 372.4873,-461.0646"/>
<polygon fill="#000000" stroke="#000000" points="388.0323,-484.7743 397.1735,-490.1305 393.3677,-480.2428 388.0323,-484.7743"/>
<polygon fill="#000000" stroke="#000000" points="375.0049,-458.6221 365.8637,-453.2659 369.6695,-463.1536 375.0049,-458.6221"/>
</g>
<!-- Glyph Composition Data&#45;&gt;Variable Component Selector -->
<g id="edge14" class="edge">
<title>Glyph Composition Data&#45;&gt;Variable Component Selector</title>
<path fill="none" stroke="#000000" d="M437.0859,-490.0712C448.9976,-480.3293 462.7882,-467.4907 472.4993,-453.6755 502.9382,-410.3725 523.0861,-351.3761 533.0876,-317.0709"/>
<polygon fill="#000000" stroke="#000000" points="536.5082,-317.8372 535.866,-307.2618 529.7732,-315.9295 536.5082,-317.8372"/>
</g>
<!-- Glyph Composition Data&#45;&gt;Get Mini Font / Inject Back -->
<g id="edge13" class="edge">
<title>Glyph Composition Data&#45;&gt;Get Mini Font / Inject Back</title>
<path fill="none" stroke="#000000" d="M435.742,-482.0271C441.9811,-473.5457 447.9698,-463.7193 451.4993,-453.6755 467.7183,-407.5211 482.1182,-384.7208 455.4993,-343.6755 446.5098,-329.814 433.0799,-319.447 418.376,-311.703"/>
<polygon fill="#000000" stroke="#000000" points="432.8978,-479.9827 429.5013,-490.0184 438.4148,-484.2912 432.8978,-479.9827"/>
<polygon fill="#000000" stroke="#000000" points="419.6111,-308.4126 409.0845,-307.2124 416.5651,-314.7152 419.6111,-308.4126"/>
</g>
<!-- VarFont 1.9 -->
<g id="node16" class="node">
<title>VarFont 1.9</title>
<polygon fill="#ff8c00" stroke="#000000" points="215.4993,-36 128.5979,-18 215.4993,0 302.4007,-18 215.4993,-36"/>
<text text-anchor="middle" x="215.4993" y="-13.8" font-family="Arial" font-size="14.00" fill="#000000">VarFont 1.9</text>
</g>
<!-- CI Build&#45;&gt;VarFont 1.9 -->
<g id="edge21" class="edge">
<title>CI Build&#45;&gt;VarFont 1.9</title>
<path fill="none" stroke="#000000" d="M215.4993,-71.7574C215.4993,-63.0767 215.4993,-54.2161 215.4993,-46.2581"/>
<polygon fill="#000000" stroke="#000000" points="218.9994,-46.0672 215.4993,-36.0673 211.9994,-46.0673 218.9994,-46.0672"/>
</g>
<!-- Variable Component Instances Data&#45;&gt;CI Build -->
<g id="edge20" class="edge">
<title>Variable Component Instances Data&#45;&gt;CI Build</title>
<path fill="none" stroke="#000000" d="M478.814,-198.0709C418.6252,-179.5026 325.8618,-150.8848 268.022,-133.0411"/>
<polygon fill="#000000" stroke="#000000" points="268.9349,-129.66 258.3475,-130.0565 266.8713,-136.349 268.9349,-129.66"/>
</g>
<!-- Balance Handles -->
<g id="node18" class="node">
<title>Balance Handles</title>
<polygon fill="#ffd700" stroke="#000000" points="110.5954,-709.1755 110.5954,-745.1755 232.4032,-745.1755 232.4032,-709.1755 110.5954,-709.1755"/>
<text text-anchor="middle" x="171.4993" y="-722.9755" font-family="Arial" font-size="14.00" fill="#000000">Balance Handles</text>
</g>
<!-- Balance Handles&#45;&gt;RoboCJK Settings -->
<g id="edge23" class="edge">
<title>Balance Handles&#45;&gt;RoboCJK Settings</title>
<path fill="none" stroke="#000000" d="M168.0311,-699.0443C166.9225,-690.0524 165.7256,-680.3442 164.7296,-672.2659"/>
<polygon fill="#000000" stroke="#000000" points="164.5772,-699.634 169.2746,-709.1305 171.5246,-698.7774 164.5772,-699.634"/>
</g>
<!-- Power Ruler -->
<g id="node19" class="node">
<title>Power Ruler</title>
<polygon fill="#ffd700" stroke="#000000" points="0,-709.1755 0,-745.1755 92.9986,-745.1755 92.9986,-709.1755 0,-709.1755"/>
<text text-anchor="middle" x="46.4993" y="-722.9755" font-family="Arial" font-size="14.00" fill="#000000">Power Ruler</text>
</g>
<!-- Power Ruler&#45;&gt;RoboCJK Settings -->
<g id="edge24" class="edge">
<title>Power Ruler&#45;&gt;RoboCJK Settings</title>
<path fill="none" stroke="#000000" d="M83.8688,-703.6585C100.0453,-693.4784 118.6837,-681.7491 133.753,-672.2659"/>
<polygon fill="#000000" stroke="#000000" points="81.7728,-700.8421 75.1735,-709.1305 85.5012,-706.7665 81.7728,-700.8421"/>
</g>
<!-- Design Frame -->
<g id="node20" class="node">
<title>Design Frame</title>
<polygon fill="#ffd700" stroke="#000000" points="513.554,-563.1755 513.554,-599.1755 617.4446,-599.1755 617.4446,-563.1755 513.554,-563.1755"/>
<text text-anchor="middle" x="565.4993" y="-576.9755" font-family="Arial" font-size="14.00" fill="#000000">Design Frame</text>
</g>
<!-- Design Frame&#45;&gt;Project Settings -->
<g id="edge25" class="edge">
<title>Design Frame&#45;&gt;Project Settings</title>
<path fill="none" stroke="#000000" d="M607.6324,-558.2224C626.5554,-547.9136 648.5623,-535.9247 666.2923,-526.2659"/>
<polygon fill="#000000" stroke="#000000" points="605.73,-555.273 598.6229,-563.1305 609.0788,-561.4201 605.73,-555.273"/>
</g>
<!-- Reference Viewer -->
<g id="node21" class="node">
<title>Reference Viewer</title>
<polygon fill="#ffd700" stroke="#000000" points="635.8808,-563.1755 635.8808,-599.1755 763.1178,-599.1755 763.1178,-563.1755 635.8808,-563.1755"/>
<text text-anchor="middle" x="699.4993" y="-576.9755" font-family="Arial" font-size="14.00" fill="#000000">Reference Viewer</text>
</g>
<!-- Reference Viewer&#45;&gt;Project Settings -->
<g id="edge26" class="edge">
<title>Reference Viewer&#45;&gt;Project Settings</title>
<path fill="none" stroke="#000000" d="M699.4993,-553.0443C699.4993,-544.0524 699.4993,-534.3442 699.4993,-526.2659"/>
<polygon fill="#000000" stroke="#000000" points="695.9994,-553.1305 699.4993,-563.1305 702.9994,-553.1306 695.9994,-553.1305"/>
</g>
<!-- Calendar -->
<g id="node22" class="node">
<title>Calendar</title>
<polygon fill="#ffd700" stroke="#000000" points="781.1059,-563.1755 781.1059,-599.1755 853.8927,-599.1755 853.8927,-563.1755 781.1059,-563.1755"/>
<text text-anchor="middle" x="817.4993" y="-576.9755" font-family="Arial" font-size="14.00" fill="#000000">Calendar</text>
</g>
<!-- Calendar&#45;&gt;Project Settings -->
<g id="edge27" class="edge">
<title>Calendar&#45;&gt;Project Settings</title>
<path fill="none" stroke="#000000" d="M779.4855,-557.6585C763.0301,-547.4784 744.0704,-535.7491 728.7413,-526.2659"/>
<polygon fill="#000000" stroke="#000000" points="777.9852,-560.8459 788.3308,-563.1305 781.6679,-554.893 777.9852,-560.8459"/>
</g>
</g>
</svg>
