<?xml version="1.0" encoding="UTF-8" standalone="no"?>
<!DOCTYPE svg PUBLIC "-//W3C//DTD SVG 1.1//EN"
 "http://www.w3.org/Graphics/SVG/1.1/DTD/svg11.dtd">
<!-- Generated by graphviz version 2.40.1 (20161225.0304)
 -->
<!-- Title: %0 Pages: 1 -->
<svg width="854pt" height="754pt"
 viewBox="0.00 0.00 854.18 753.68" xmlns="http://www.w3.org/2000/svg" xmlns:xlink="http://www.w3.org/1999/xlink">
<g id="graph0" class="graph" transform="scale(1 1) rotate(0) translate(4 749.6755)">
<title>%0</title>
<polygon fill="#ffffff" stroke="transparent" points="-4,4 -4,-749.6755 850.1837,-749.6755 850.1837,4 -4,4"/>
<!-- RoboCJK -->
<g id="node1" class="node">
<title>RoboCJK</title>
<polygon fill="#ff1493" stroke="#000000" points="369.8415,-709.1755 369.8415,-745.1755 445.7391,-745.1755 445.7391,-709.1755 369.8415,-709.1755"/>
<text text-anchor="middle" x="407.7903" y="-722.9755" font-family="Arial" font-size="14.00" fill="#000000">RoboCJK</text>
</g>
<!-- RoboCJK Settings -->
<g id="node2" class="node">
<title>RoboCJK Settings</title>
<polygon fill="#c0c0c0" stroke="#000000" points="162.6101,-636.1755 162.6101,-672.1755 292.9705,-672.1755 292.9705,-636.1755 162.6101,-636.1755"/>
<text text-anchor="middle" x="227.7903" y="-649.9755" font-family="Arial" font-size="14.00" fill="#000000">RoboCJK Settings</text>
</g>
<!-- RoboCJK&#45;&gt;RoboCJK Settings -->
<g id="edge2" class="edge">
<title>RoboCJK&#45;&gt;RoboCJK Settings</title>
<path fill="none" stroke="#000000" d="M369.6169,-711.6941C344.0271,-701.316 309.9574,-687.4988 281.6241,-676.0081"/>
<polygon fill="#000000" stroke="#000000" points="282.8381,-672.7236 272.2558,-672.2087 280.2073,-679.2105 282.8381,-672.7236"/>
</g>
<!-- Project Editor -->
<g id="node3" class="node">
<title>Project Editor</title>
<polygon fill="#ffc0cb" stroke="#000000" points="357.7854,-636.1755 357.7854,-672.1755 457.7952,-672.1755 457.7952,-636.1755 357.7854,-636.1755"/>
<text text-anchor="middle" x="407.7903" y="-649.9755" font-family="Arial" font-size="14.00" fill="#000000">Project Editor</text>
</g>
<!-- RoboCJK&#45;&gt;Project Editor -->
<g id="edge1" class="edge">
<title>RoboCJK&#45;&gt;Project Editor</title>
<path fill="none" stroke="#000000" d="M407.7903,-709.1305C407.7903,-701.0583 407.7903,-691.3519 407.7903,-682.3572"/>
<polygon fill="#000000" stroke="#000000" points="411.2904,-682.2658 407.7903,-672.2659 404.2904,-682.2659 411.2904,-682.2658"/>
</g>
<!-- JSON roboCJKproject -->
<g id="node10" class="node">
<title>JSON roboCJKproject</title>
<polygon fill="none" stroke="#000000" points="330.9495,-563.1755 330.9495,-599.1755 484.6311,-599.1755 484.6311,-563.1755 330.9495,-563.1755"/>
<text text-anchor="middle" x="407.7903" y="-576.9755" font-family="Arial" font-size="14.00" fill="#000000">JSON roboCJKproject</text>
</g>
<!-- Project Editor&#45;&gt;JSON roboCJKproject -->
<g id="edge6" class="edge">
<title>Project Editor&#45;&gt;JSON roboCJKproject</title>
<path fill="none" stroke="#000000" d="M407.7903,-636.1305C407.7903,-628.0583 407.7903,-618.3519 407.7903,-609.3572"/>
<polygon fill="#000000" stroke="#000000" points="411.2904,-609.2658 407.7903,-599.2659 404.2904,-609.2659 411.2904,-609.2658"/>
</g>
<!-- Variable Component Editor -->
<g id="node4" class="node">
<title>Variable Component Editor</title>
<polygon fill="#ffc0cb" stroke="#000000" points="250.7728,-417.1755 250.7728,-453.1755 434.8078,-453.1755 434.8078,-417.1755 250.7728,-417.1755"/>
<text text-anchor="middle" x="342.7903" y="-430.9755" font-family="Arial" font-size="14.00" fill="#000000">Variable Component Editor</text>
</g>
<!-- UFO&#45;Masters -->
<g id="node7" class="node">
<title>UFO&#45;Masters</title>
<polygon fill="#add8e6" stroke="#000000" points="128.7966,-344.1755 128.7966,-380.1755 228.784,-380.1755 228.784,-344.1755 128.7966,-344.1755"/>
<text text-anchor="middle" x="178.7903" y="-357.9755" font-family="Arial" font-size="14.00" fill="#000000">UFO&#45;Masters</text>
</g>
<!-- Variable Component Editor&#45;&gt;UFO&#45;Masters -->
<g id="edge11" class="edge">
<title>Variable Component Editor&#45;&gt;UFO&#45;Masters</title>
<path fill="none" stroke="#000000" d="M302.251,-417.1305C279.9766,-407.2158 252.1635,-394.8355 228.5778,-384.337"/>
<polygon fill="#000000" stroke="#000000" points="229.9908,-381.1349 219.4317,-380.2659 227.1442,-387.53 229.9908,-381.1349"/>
</g>
<!-- Variable Component Glyphs -->
<g id="node9" class="node">
<title>Variable Component Glyphs</title>
<polygon fill="#add8e6" stroke="#000000" points="247.2714,-344.1755 247.2714,-380.1755 438.3092,-380.1755 438.3092,-344.1755 247.2714,-344.1755"/>
<text text-anchor="middle" x="342.7903" y="-357.9755" font-family="Arial" font-size="14.00" fill="#000000">Variable Component Glyphs</text>
</g>
<!-- Variable Component Editor&#45;&gt;Variable Component Glyphs -->
<g id="edge5" class="edge">
<title>Variable Component Editor&#45;&gt;Variable Component Glyphs</title>
<path fill="none" stroke="#000000" d="M342.7903,-417.1305C342.7903,-409.0583 342.7903,-399.3519 342.7903,-390.3572"/>
<polygon fill="#000000" stroke="#000000" points="346.2904,-390.2658 342.7903,-380.2659 339.2904,-390.2659 346.2904,-390.2658"/>
</g>
<!-- Variable Component Selector -->
<g id="node5" class="node">
<title>Variable Component Selector</title>
<polygon fill="#ffc0cb" stroke="#000000" points="433.3815,-271.1755 433.3815,-307.1755 632.1991,-307.1755 632.1991,-271.1755 433.3815,-271.1755"/>
<text text-anchor="middle" x="532.7903" y="-284.9755" font-family="Arial" font-size="14.00" fill="#000000">Variable Component Selector</text>
</g>
<!-- UFO&#45;Subsetted -->
<g id="node8" class="node">
<title>UFO&#45;Subsetted</title>
<polygon fill="#add8e6" stroke="#000000" points="272.1697,-198.1755 272.1697,-234.1755 385.4109,-234.1755 385.4109,-198.1755 272.1697,-198.1755"/>
<text text-anchor="middle" x="328.7903" y="-211.9755" font-family="Arial" font-size="14.00" fill="#000000">UFO&#45;Subsetted</text>
</g>
<!-- Variable Component Selector&#45;&gt;UFO&#45;Subsetted -->
<g id="edge16" class="edge">
<title>Variable Component Selector&#45;&gt;UFO&#45;Subsetted</title>
<path fill="none" stroke="#000000" d="M482.3633,-271.1305C454.0433,-260.9964 418.5252,-248.2865 388.7818,-237.643"/>
<polygon fill="#000000" stroke="#000000" points="389.9388,-234.3398 379.3442,-234.2659 387.5803,-240.9305 389.9388,-234.3398"/>
</g>
<!-- Variable Component Instances Data -->
<g id="node15" class="node">
<title>Variable Component Instances Data</title>
<polygon fill="#c0c0c0" stroke="#000000" points="409.3703,-198.1755 409.3703,-234.1755 650.2103,-234.1755 650.2103,-198.1755 409.3703,-198.1755"/>
<text text-anchor="middle" x="529.7903" y="-211.9755" font-family="Arial" font-size="14.00" fill="#000000">Variable Component Instances Data</text>
</g>
<!-- Variable Component Selector&#45;&gt;Variable Component Instances Data -->
<g id="edge19" class="edge">
<title>Variable Component Selector&#45;&gt;Variable Component Instances Data</title>
<path fill="none" stroke="#000000" d="M532.0487,-271.1305C531.717,-263.0583 531.3181,-253.3519 530.9485,-244.3572"/>
<polygon fill="#000000" stroke="#000000" points="534.4415,-244.1137 530.5337,-234.2659 527.4474,-244.4012 534.4415,-244.1137"/>
</g>
<!-- Get Mini Font / Inject Back -->
<g id="node6" class="node">
<title>Get Mini Font / Inject Back</title>
<polygon fill="#ffc0cb" stroke="#000000" points="235.7181,-271.1755 235.7181,-307.1755 415.8625,-307.1755 415.8625,-271.1755 235.7181,-271.1755"/>
<text text-anchor="middle" x="325.7903" y="-284.9755" font-family="Arial" font-size="14.00" fill="#000000">Get Mini Font / Inject Back</text>
</g>
<!-- Get Mini Font / Inject Back&#45;&gt;UFO&#45;Subsetted -->
<g id="edge4" class="edge">
<title>Get Mini Font / Inject Back&#45;&gt;UFO&#45;Subsetted</title>
<path fill="none" stroke="#000000" d="M326.9464,-261.0443C327.1716,-255.5649 327.4077,-249.8194 327.6329,-244.3389"/>
<polygon fill="#000000" stroke="#000000" points="323.4455,-260.9952 326.5319,-271.1305 330.4396,-261.2827 323.4455,-260.9952"/>
<polygon fill="#000000" stroke="#000000" points="331.1332,-244.4012 328.0469,-234.2659 324.1391,-244.1137 331.1332,-244.4012"/>
</g>
<!-- UFO&#45;Masters&#45;&gt;Get Mini Font / Inject Back -->
<g id="edge3" class="edge">
<title>UFO&#45;Masters&#45;&gt;Get Mini Font / Inject Back</title>
<path fill="none" stroke="#000000" d="M224.1636,-339.6432C242.0011,-330.7851 262.4414,-320.6345 280.2911,-311.7703"/>
<polygon fill="#000000" stroke="#000000" points="222.5271,-336.548 215.1274,-344.1305 225.6406,-342.8175 222.5271,-336.548"/>
<polygon fill="#000000" stroke="#000000" points="281.9621,-314.8484 289.3618,-307.2659 278.8486,-308.5789 281.9621,-314.8484"/>
</g>
<!-- CI Build -->
<g id="node14" class="node">
<title>CI Build</title>
<ellipse fill="none" stroke="#000000" cx="207.7903" cy="-116.8377" rx="44.6761" ry="44.6761"/>
<text text-anchor="middle" x="207.7903" y="-112.6377" font-family="Arial" font-size="14.00" fill="#000000">CI Build</text>
</g>
<!-- UFO&#45;Masters&#45;&gt;CI Build -->
<g id="edge17" class="edge">
<title>UFO&#45;Masters&#45;&gt;CI Build</title>
<path fill="none" stroke="#000000" d="M179.9762,-343.8652C182.0554,-313.4336 186.8116,-250.5572 193.7903,-197.6755 194.9276,-189.0574 196.3184,-179.9539 197.777,-171.0864"/>
<polygon fill="#000000" stroke="#000000" points="201.2303,-171.6563 199.4429,-161.2133 194.3278,-170.4916 201.2303,-171.6563"/>
</g>
<!-- Variable Component Glyphs&#45;&gt;Variable Component Selector -->
<g id="edge15" class="edge">
<title>Variable Component Glyphs&#45;&gt;Variable Component Selector</title>
<path fill="none" stroke="#000000" d="M389.7566,-344.1305C415.9048,-334.0841 448.6414,-321.5064 476.1951,-310.9199"/>
<polygon fill="#000000" stroke="#000000" points="477.6264,-314.1196 485.7058,-307.2659 475.1158,-307.5853 477.6264,-314.1196"/>
</g>
<!-- Variable Component Glyphs&#45;&gt;CI Build -->
<g id="edge18" class="edge">
<title>Variable Component Glyphs&#45;&gt;CI Build</title>
<path fill="none" stroke="#000000" d="M274.91,-344.0442C256.5158,-335.8747 238.4794,-324.209 226.7903,-307.6755 198.9708,-268.3266 196.5347,-212.4713 199.6722,-171.3515"/>
<polygon fill="#000000" stroke="#000000" points="203.1723,-171.5061 200.578,-161.2338 196.2002,-170.8819 203.1723,-171.5061"/>
</g>
<!-- JSON roboCJKproject&#45;&gt;UFO&#45;Masters -->
<g id="edge8" class="edge">
<title>JSON roboCJKproject&#45;&gt;UFO&#45;Masters</title>
<path fill="none" stroke="#000000" d="M370.1996,-563.0911C351.7975,-553.4442 329.7883,-540.683 311.7903,-526.6755 260.9747,-487.1268 217.3784,-424.5883 194.9488,-389.1023"/>
<polygon fill="#000000" stroke="#000000" points="197.7087,-386.9129 189.4528,-380.2728 191.7659,-390.6121 197.7087,-386.9129"/>
</g>
<!-- Character&#45;Sets -->
<g id="node11" class="node">
<title>Character&#45;Sets</title>
<polygon fill="#c0c0c0" stroke="#000000" points="506.7307,-490.1755 506.7307,-526.1755 616.8499,-526.1755 616.8499,-490.1755 506.7307,-490.1755"/>
<text text-anchor="middle" x="561.7903" y="-503.9755" font-family="Arial" font-size="14.00" fill="#000000">Character&#45;Sets</text>
</g>
<!-- JSON roboCJKproject&#45;&gt;Character&#45;Sets -->
<g id="edge7" class="edge">
<title>JSON roboCJKproject&#45;&gt;Character&#45;Sets</title>
<path fill="none" stroke="#000000" d="M445.8577,-563.1305C466.5888,-553.3035 492.4292,-541.0544 514.4497,-530.6162"/>
<polygon fill="#000000" stroke="#000000" points="516.0901,-533.712 523.6271,-526.2659 513.0917,-527.3866 516.0901,-533.712"/>
</g>
<!-- Glyph Composition Data -->
<g id="node12" class="node">
<title>Glyph Composition Data</title>
<polygon fill="#c0c0c0" stroke="#000000" points="320.9453,-490.1755 320.9453,-526.1755 488.6353,-526.1755 488.6353,-490.1755 320.9453,-490.1755"/>
<text text-anchor="middle" x="404.7903" y="-503.9755" font-family="Arial" font-size="14.00" fill="#000000">Glyph Composition Data</text>
</g>
<!-- JSON roboCJKproject&#45;&gt;Glyph Composition Data -->
<g id="edge9" class="edge">
<title>JSON roboCJKproject&#45;&gt;Glyph Composition Data</title>
<path fill="none" stroke="#000000" d="M407.0487,-563.1305C406.717,-555.0583 406.3181,-545.3519 405.9485,-536.3572"/>
<polygon fill="#000000" stroke="#000000" points="409.4415,-536.1137 405.5337,-526.2659 402.4474,-536.4012 409.4415,-536.1137"/>
</g>
<!-- Project Settings -->
<g id="node13" class="node">
<title>Project Settings</title>
<polygon fill="#c0c0c0" stroke="#000000" points="634.7791,-490.1755 634.7791,-526.1755 748.8015,-526.1755 748.8015,-490.1755 634.7791,-490.1755"/>
<text text-anchor="middle" x="691.7903" y="-503.9755" font-family="Arial" font-size="14.00" fill="#000000">Project Settings</text>
</g>
<!-- JSON roboCJKproject&#45;&gt;Project Settings -->
<g id="edge10" class="edge">
<title>JSON roboCJKproject&#45;&gt;Project Settings</title>
<path fill="none" stroke="#000000" d="M482.0859,-563.1544C521.8252,-553.385 571.8241,-540.8874 624.6793,-526.9395"/>
<polygon fill="#000000" stroke="#000000" points="625.8086,-530.2612 634.5799,-524.3186 624.0172,-523.4943 625.8086,-530.2612"/>
</g>
<!-- Glyph Composition Data&#45;&gt;Variable Component Editor -->
<g id="edge12" class="edge">
<title>Glyph Composition Data&#45;&gt;Variable Component Editor</title>
<path fill="none" stroke="#000000" d="M382.8752,-482.3723C377.0032,-475.4585 370.6542,-467.983 364.7783,-461.0646"/>
<polygon fill="#000000" stroke="#000000" points="380.3233,-484.7743 389.4645,-490.1305 385.6587,-480.2428 380.3233,-484.7743"/>
<polygon fill="#000000" stroke="#000000" points="367.2959,-458.6221 358.1547,-453.2659 361.9605,-463.1536 367.2959,-458.6221"/>
</g>
<!-- Glyph Composition Data&#45;&gt;Variable Component Selector -->
<g id="edge14" class="edge">
<title>Glyph Composition Data&#45;&gt;Variable Component Selector</title>
<path fill="none" stroke="#000000" d="M429.3769,-490.0712C441.2886,-480.3293 455.0792,-467.4907 464.7903,-453.6755 495.2292,-410.3725 515.3771,-351.3761 525.3786,-317.0709"/>
<polygon fill="#000000" stroke="#000000" points="528.7992,-317.8372 528.157,-307.2618 522.0642,-315.9295 528.7992,-317.8372"/>
</g>
<!-- Glyph Composition Data&#45;&gt;Get Mini Font / Inject Back -->
<g id="edge13" class="edge">
<title>Glyph Composition Data&#45;&gt;Get Mini Font / Inject Back</title>
<path fill="none" stroke="#000000" d="M428.033,-482.0271C434.2721,-473.5457 440.2608,-463.7193 443.7903,-453.6755 460.0093,-407.5211 474.4092,-384.7208 447.7903,-343.6755 438.8008,-329.814 425.3709,-319.447 410.667,-311.703"/>
<polygon fill="#000000" stroke="#000000" points="425.1888,-479.9827 421.7923,-490.0184 430.7058,-484.2912 425.1888,-479.9827"/>
<polygon fill="#000000" stroke="#000000" points="411.9021,-308.4126 401.3755,-307.2124 408.8561,-314.7152 411.9021,-308.4126"/>
</g>
<!-- VarFont 1.9 -->
<g id="node16" class="node">
<title>VarFont 1.9</title>
<polygon fill="#ff8c00" stroke="#000000" points="207.7903,-36 120.8889,-18 207.7903,0 294.6917,-18 207.7903,-36"/>
<text text-anchor="middle" x="207.7903" y="-13.8" font-family="Arial" font-size="14.00" fill="#000000">VarFont 1.9</text>
</g>
<!-- CI Build&#45;&gt;VarFont 1.9 -->
<g id="edge21" class="edge">
<title>CI Build&#45;&gt;VarFont 1.9</title>
<path fill="none" stroke="#000000" d="M207.7903,-71.7574C207.7903,-63.0767 207.7903,-54.2161 207.7903,-46.2581"/>
<polygon fill="#000000" stroke="#000000" points="211.2904,-46.0672 207.7903,-36.0673 204.2904,-46.0673 211.2904,-46.0672"/>
</g>
<!-- Variable Component Instances Data&#45;&gt;CI Build -->
<g id="edge20" class="edge">
<title>Variable Component Instances Data&#45;&gt;CI Build</title>
<path fill="none" stroke="#000000" d="M471.105,-198.0709C410.9162,-179.5026 318.1528,-150.8848 260.313,-133.0411"/>
<polygon fill="#000000" stroke="#000000" points="261.2259,-129.66 250.6385,-130.0565 259.1623,-136.349 261.2259,-129.66"/>
</g>
<!-- Space Center -->
<g id="node17" class="node">
<title>Space Center</title>
<polygon fill="#ffd700" stroke="#000000" points="0,-709.1755 0,-745.1755 101.5806,-745.1755 101.5806,-709.1755 0,-709.1755"/>
<text text-anchor="middle" x="50.7903" y="-722.9755" font-family="Arial" font-size="14.00" fill="#000000">Space Center</text>
</g>
<!-- Space Center&#45;&gt;RoboCJK Settings -->
<g id="edge22" class="edge">
<title>Space Center&#45;&gt;RoboCJK Settings</title>
<path fill="none" stroke="#000000" d="M104.0705,-705.2012C129.5834,-694.6789 159.7627,-682.2321 183.9274,-672.2659"/>
<polygon fill="#000000" stroke="#000000" points="102.4533,-702.0821 94.5431,-709.1305 105.1222,-708.5533 102.4533,-702.0821"/>
</g>
<!-- Balance Handles -->
<g id="node18" class="node">
<title>Balance Handles</title>
<polygon fill="#ffd700" stroke="#000000" points="119.8864,-709.1755 119.8864,-745.1755 241.6942,-745.1755 241.6942,-709.1755 119.8864,-709.1755"/>
<text text-anchor="middle" x="180.7903" y="-722.9755" font-family="Arial" font-size="14.00" fill="#000000">Balance Handles</text>
</g>
<!-- Balance Handles&#45;&gt;RoboCJK Settings -->
<g id="edge23" class="edge">
<title>Balance Handles&#45;&gt;RoboCJK Settings</title>
<path fill="none" stroke="#000000" d="M197.9626,-700.5037C204.009,-691.1124 210.6593,-680.7832 216.1431,-672.2659"/>
<polygon fill="#000000" stroke="#000000" points="194.8789,-698.8278 192.4083,-709.1305 200.7645,-702.6172 194.8789,-698.8278"/>
</g>
<!-- Power Ruler -->
<g id="node19" class="node">
<title>Power Ruler</title>
<polygon fill="#ffd700" stroke="#000000" points="259.291,-709.1755 259.291,-745.1755 352.2896,-745.1755 352.2896,-709.1755 259.291,-709.1755"/>
<text text-anchor="middle" x="305.7903" y="-722.9755" font-family="Arial" font-size="14.00" fill="#000000">Power Ruler</text>
</g>
<!-- Power Ruler&#45;&gt;RoboCJK Settings -->
<g id="edge24" class="edge">
<title>Power Ruler&#45;&gt;RoboCJK Settings</title>
<path fill="none" stroke="#000000" d="M279.1415,-702.235C268.6299,-692.3972 256.7834,-681.3101 247.1197,-672.2659"/>
<polygon fill="#000000" stroke="#000000" points="276.8165,-704.8528 286.5094,-709.1305 281.5998,-699.7419 276.8165,-704.8528"/>
</g>
<!-- Design Frame -->
<g id="node20" class="node">
<title>Design Frame</title>
<polygon fill="#ffd700" stroke="#000000" points="505.845,-563.1755 505.845,-599.1755 609.7356,-599.1755 609.7356,-563.1755 505.845,-563.1755"/>
<text text-anchor="middle" x="557.7903" y="-576.9755" font-family="Arial" font-size="14.00" fill="#000000">Design Frame</text>
</g>
<!-- Design Frame&#45;&gt;Project Settings -->
<g id="edge25" class="edge">
<title>Design Frame&#45;&gt;Project Settings</title>
<path fill="none" stroke="#000000" d="M599.9234,-558.2224C618.8464,-547.9136 640.8533,-535.9247 658.5833,-526.2659"/>
<polygon fill="#000000" stroke="#000000" points="598.021,-555.273 590.9139,-563.1305 601.3698,-561.4201 598.021,-555.273"/>
</g>
<!-- Reference Viewer -->
<g id="node21" class="node">
<title>Reference Viewer</title>
<polygon fill="#ffd700" stroke="#000000" points="628.1718,-563.1755 628.1718,-599.1755 755.4088,-599.1755 755.4088,-563.1755 628.1718,-563.1755"/>
<text text-anchor="middle" x="691.7903" y="-576.9755" font-family="Arial" font-size="14.00" fill="#000000">Reference Viewer</text>
</g>
<!-- Reference Viewer&#45;&gt;Project Settings -->
<g id="edge26" class="edge">
<title>Reference Viewer&#45;&gt;Project Settings</title>
<path fill="none" stroke="#000000" d="M691.7903,-553.0443C691.7903,-544.0524 691.7903,-534.3442 691.7903,-526.2659"/>
<polygon fill="#000000" stroke="#000000" points="688.2904,-553.1305 691.7903,-563.1305 695.2904,-553.1306 688.2904,-553.1305"/>
</g>
<!-- Calendar -->
<g id="node22" class="node">
<title>Calendar</title>
<polygon fill="#ffd700" stroke="#000000" points="773.3969,-563.1755 773.3969,-599.1755 846.1837,-599.1755 846.1837,-563.1755 773.3969,-563.1755"/>
<text text-anchor="middle" x="809.7903" y="-576.9755" font-family="Arial" font-size="14.00" fill="#000000">Calendar</text>
</g>
<!-- Calendar&#45;&gt;Project Settings -->
<g id="edge27" class="edge">
<title>Calendar&#45;&gt;Project Settings</title>
<path fill="none" stroke="#000000" d="M771.7765,-557.6585C755.3211,-547.4784 736.3614,-535.7491 721.0323,-526.2659"/>
<polygon fill="#000000" stroke="#000000" points="770.2762,-560.8459 780.6218,-563.1305 773.9589,-554.893 770.2762,-560.8459"/>
</g>
</g>
</svg>
