<?xml version="1.0" encoding="UTF-8" standalone="no"?>
<!DOCTYPE svg PUBLIC "-//W3C//DTD SVG 1.1//EN"
 "http://www.w3.org/Graphics/SVG/1.1/DTD/svg11.dtd">
<!-- Generated by graphviz version 2.40.1 (20161225.0304)
 -->
<!-- Title: %0 Pages: 1 -->
<svg width="1022pt" height="754pt"
 viewBox="0.00 0.00 1022.13 753.68" xmlns="http://www.w3.org/2000/svg" xmlns:xlink="http://www.w3.org/1999/xlink">
<g id="graph0" class="graph" transform="scale(1 1) rotate(0) translate(4 749.6755)">
<title>%0</title>
<polygon fill="#ffffff" stroke="transparent" points="-4,4 -4,-749.6755 1018.1325,-749.6755 1018.1325,4 -4,4"/>
<!-- RoboCJK -->
<g id="node1" class="node">
<title>RoboCJK</title>
<polygon fill="#ff1493" stroke="#000000" points="537.7903,-709.1755 537.7903,-745.1755 613.6879,-745.1755 613.6879,-709.1755 537.7903,-709.1755"/>
<text text-anchor="middle" x="575.7391" y="-722.9755" font-family="Arial" font-size="14.00" fill="#000000">RoboCJK</text>
</g>
<!-- RoboCJK Settings -->
<g id="node2" class="node">
<title>RoboCJK Settings</title>
<polygon fill="#c0c0c0" stroke="#000000" points="283.5589,-636.1755 283.5589,-672.1755 413.9193,-672.1755 413.9193,-636.1755 283.5589,-636.1755"/>
<text text-anchor="middle" x="348.7391" y="-649.9755" font-family="Arial" font-size="14.00" fill="#000000">RoboCJK Settings</text>
</g>
<!-- RoboCJK&#45;&gt;RoboCJK Settings -->
<g id="edge2" class="edge">
<title>RoboCJK&#45;&gt;RoboCJK Settings</title>
<path fill="none" stroke="#000000" d="M537.6161,-711.8711C534.6231,-710.761 531.6382,-709.6831 528.7391,-708.6755 494.2209,-696.6784 455.48,-684.7544 422.8064,-675.1326"/>
<polygon fill="#000000" stroke="#000000" points="423.4532,-671.6751 412.8725,-672.2229 421.4855,-678.3928 423.4532,-671.6751"/>
</g>
<!-- Project Editor -->
<g id="node3" class="node">
<title>Project Editor</title>
<polygon fill="#ffc0cb" stroke="#000000" points="525.7342,-636.1755 525.7342,-672.1755 625.744,-672.1755 625.744,-636.1755 525.7342,-636.1755"/>
<text text-anchor="middle" x="575.7391" y="-649.9755" font-family="Arial" font-size="14.00" fill="#000000">Project Editor</text>
</g>
<!-- RoboCJK&#45;&gt;Project Editor -->
<g id="edge1" class="edge">
<title>RoboCJK&#45;&gt;Project Editor</title>
<path fill="none" stroke="#000000" d="M575.7391,-709.1305C575.7391,-701.0583 575.7391,-691.3519 575.7391,-682.3572"/>
<polygon fill="#000000" stroke="#000000" points="579.2392,-682.2658 575.7391,-672.2659 572.2392,-682.2659 579.2392,-682.2658"/>
</g>
<!-- JSON roboCJKproject -->
<g id="node10" class="node">
<title>JSON roboCJKproject</title>
<polygon fill="none" stroke="#000000" points="498.8983,-563.1755 498.8983,-599.1755 652.5799,-599.1755 652.5799,-563.1755 498.8983,-563.1755"/>
<text text-anchor="middle" x="575.7391" y="-576.9755" font-family="Arial" font-size="14.00" fill="#000000">JSON roboCJKproject</text>
</g>
<!-- Project Editor&#45;&gt;JSON roboCJKproject -->
<g id="edge6" class="edge">
<title>Project Editor&#45;&gt;JSON roboCJKproject</title>
<path fill="none" stroke="#000000" d="M575.7391,-636.1305C575.7391,-628.0583 575.7391,-618.3519 575.7391,-609.3572"/>
<polygon fill="#000000" stroke="#000000" points="579.2392,-609.2658 575.7391,-599.2659 572.2392,-609.2659 579.2392,-609.2658"/>
</g>
<!-- Deep Component Editor -->
<g id="node4" class="node">
<title>Deep Component Editor</title>
<polygon fill="#ffc0cb" stroke="#000000" points="453.6648,-417.1755 453.6648,-453.1755 619.8134,-453.1755 619.8134,-417.1755 453.6648,-417.1755"/>
<text text-anchor="middle" x="536.7391" y="-430.9755" font-family="Arial" font-size="14.00" fill="#000000">Deep Component Editor</text>
</g>
<!-- UFO&#45;Masters -->
<g id="node7" class="node">
<title>UFO&#45;Masters</title>
<polygon fill="#add8e6" stroke="#000000" points="331.7454,-344.1755 331.7454,-380.1755 431.7328,-380.1755 431.7328,-344.1755 331.7454,-344.1755"/>
<text text-anchor="middle" x="381.7391" y="-357.9755" font-family="Arial" font-size="14.00" fill="#000000">UFO&#45;Masters</text>
</g>
<!-- Deep Component Editor&#45;&gt;UFO&#45;Masters -->
<g id="edge11" class="edge">
<title>Deep Component Editor&#45;&gt;UFO&#45;Masters</title>
<path fill="none" stroke="#000000" d="M498.4245,-417.1305C477.5588,-407.3035 451.5506,-395.0544 429.3871,-384.6162"/>
<polygon fill="#000000" stroke="#000000" points="430.6883,-381.3603 420.1501,-380.2659 427.7057,-387.6931 430.6883,-381.3603"/>
</g>
<!-- Deep Component Glyphs -->
<g id="node9" class="node">
<title>Deep Component Glyphs</title>
<polygon fill="#add8e6" stroke="#000000" points="450.1634,-344.1755 450.1634,-380.1755 623.3148,-380.1755 623.3148,-344.1755 450.1634,-344.1755"/>
<text text-anchor="middle" x="536.7391" y="-357.9755" font-family="Arial" font-size="14.00" fill="#000000">Deep Component Glyphs</text>
</g>
<!-- Deep Component Editor&#45;&gt;Deep Component Glyphs -->
<g id="edge5" class="edge">
<title>Deep Component Editor&#45;&gt;Deep Component Glyphs</title>
<path fill="none" stroke="#000000" d="M536.7391,-417.1305C536.7391,-409.0583 536.7391,-399.3519 536.7391,-390.3572"/>
<polygon fill="#000000" stroke="#000000" points="540.2392,-390.2658 536.7391,-380.2659 533.2392,-390.2659 540.2392,-390.2658"/>
</g>
<!-- Deep Component Selector -->
<g id="node5" class="node">
<title>Deep Component Selector</title>
<polygon fill="#ffc0cb" stroke="#000000" points="634.2735,-271.1755 634.2735,-307.1755 815.2047,-307.1755 815.2047,-271.1755 634.2735,-271.1755"/>
<text text-anchor="middle" x="724.7391" y="-284.9755" font-family="Arial" font-size="14.00" fill="#000000">Deep Component Selector</text>
</g>
<!-- UFO&#45;Subsetted -->
<g id="node8" class="node">
<title>UFO&#45;Subsetted</title>
<polygon fill="#add8e6" stroke="#000000" points="472.1185,-198.1755 472.1185,-234.1755 585.3597,-234.1755 585.3597,-198.1755 472.1185,-198.1755"/>
<text text-anchor="middle" x="528.7391" y="-211.9755" font-family="Arial" font-size="14.00" fill="#000000">UFO&#45;Subsetted</text>
</g>
<!-- Deep Component Selector&#45;&gt;UFO&#45;Subsetted -->
<g id="edge16" class="edge">
<title>Deep Component Selector&#45;&gt;UFO&#45;Subsetted</title>
<path fill="none" stroke="#000000" d="M676.2896,-271.1305C649.198,-261.0403 615.2503,-248.3965 586.7494,-237.7814"/>
<polygon fill="#000000" stroke="#000000" points="587.9032,-234.4763 577.3105,-234.2659 585.46,-241.0361 587.9032,-234.4763"/>
</g>
<!-- Deep Component Instances Data -->
<g id="node15" class="node">
<title>Deep Component Instances Data</title>
<polygon fill="#c0c0c0" stroke="#000000" points="609.2623,-198.1755 609.2623,-234.1755 832.2159,-234.1755 832.2159,-198.1755 609.2623,-198.1755"/>
<text text-anchor="middle" x="720.7391" y="-211.9755" font-family="Arial" font-size="14.00" fill="#000000">Deep Component Instances Data</text>
</g>
<!-- Deep Component Selector&#45;&gt;Deep Component Instances Data -->
<g id="edge19" class="edge">
<title>Deep Component Selector&#45;&gt;Deep Component Instances Data</title>
<path fill="none" stroke="#000000" d="M723.7503,-271.1305C723.308,-263.0583 722.7762,-253.3519 722.2833,-244.3572"/>
<polygon fill="#000000" stroke="#000000" points="725.7723,-244.0593 721.7304,-234.2659 718.7828,-244.4424 725.7723,-244.0593"/>
</g>
<!-- Get Mini Font / Inject Back -->
<g id="node6" class="node">
<title>Get Mini Font / Inject Back</title>
<polygon fill="#ffc0cb" stroke="#000000" points="435.6669,-271.1755 435.6669,-307.1755 615.8113,-307.1755 615.8113,-271.1755 435.6669,-271.1755"/>
<text text-anchor="middle" x="525.7391" y="-284.9755" font-family="Arial" font-size="14.00" fill="#000000">Get Mini Font / Inject Back</text>
</g>
<!-- Get Mini Font / Inject Back&#45;&gt;UFO&#45;Subsetted -->
<g id="edge4" class="edge">
<title>Get Mini Font / Inject Back&#45;&gt;UFO&#45;Subsetted</title>
<path fill="none" stroke="#000000" d="M526.8952,-261.0443C527.1204,-255.5649 527.3565,-249.8194 527.5817,-244.3389"/>
<polygon fill="#000000" stroke="#000000" points="523.3943,-260.9952 526.4807,-271.1305 530.3884,-261.2827 523.3943,-260.9952"/>
<polygon fill="#000000" stroke="#000000" points="531.082,-244.4012 527.9957,-234.2659 524.0879,-244.1137 531.082,-244.4012"/>
</g>
<!-- UFO&#45;Masters&#45;&gt;Get Mini Font / Inject Back -->
<g id="edge3" class="edge">
<title>UFO&#45;Masters&#45;&gt;Get Mini Font / Inject Back</title>
<path fill="none" stroke="#000000" d="M426.4627,-339.5031C443.7246,-330.7523 463.4411,-320.7571 480.7299,-311.9927"/>
<polygon fill="#000000" stroke="#000000" points="424.6714,-336.4871 417.3346,-344.1305 427.8366,-342.7306 424.6714,-336.4871"/>
<polygon fill="#000000" stroke="#000000" points="482.7172,-314.9093 490.054,-307.2659 479.5521,-308.6657 482.7172,-314.9093"/>
</g>
<!-- CI Build -->
<g id="node14" class="node">
<title>CI Build</title>
<ellipse fill="none" stroke="#000000" cx="407.7391" cy="-116.8377" rx="44.6761" ry="44.6761"/>
<text text-anchor="middle" x="407.7391" y="-112.6377" font-family="Arial" font-size="14.00" fill="#000000">CI Build</text>
</g>
<!-- UFO&#45;Masters&#45;&gt;CI Build -->
<g id="edge17" class="edge">
<title>UFO&#45;Masters&#45;&gt;CI Build</title>
<path fill="none" stroke="#000000" d="M382.4844,-343.8613C383.8553,-313.4239 387.2493,-250.5396 393.7391,-197.6755 394.7983,-189.0474 396.1482,-179.9388 397.5899,-171.0691"/>
<polygon fill="#000000" stroke="#000000" points="401.0437,-171.636 399.2462,-161.1948 394.1401,-170.478 401.0437,-171.636"/>
</g>
<!-- Deep Component Glyphs&#45;&gt;Deep Component Selector -->
<g id="edge15" class="edge">
<title>Deep Component Glyphs&#45;&gt;Deep Component Selector</title>
<path fill="none" stroke="#000000" d="M583.211,-344.1305C609.0839,-334.0841 641.476,-321.5064 668.7397,-310.9199"/>
<polygon fill="#000000" stroke="#000000" points="670.0952,-314.1483 678.1502,-307.2659 667.5614,-307.6229 670.0952,-314.1483"/>
</g>
<!-- Deep Component Glyphs&#45;&gt;CI Build -->
<g id="edge18" class="edge">
<title>Deep Component Glyphs&#45;&gt;CI Build</title>
<path fill="none" stroke="#000000" d="M474.0296,-344.1191C455.9915,-335.8782 438.1338,-324.1533 426.7391,-307.6755 399.4173,-268.1658 396.8564,-212.5772 399.825,-171.5813"/>
<polygon fill="#000000" stroke="#000000" points="403.323,-171.7535 400.6872,-161.4917 396.3484,-171.1574 403.323,-171.7535"/>
</g>
<!-- JSON roboCJKproject&#45;&gt;UFO&#45;Masters -->
<g id="edge8" class="edge">
<title>JSON roboCJKproject&#45;&gt;UFO&#45;Masters</title>
<path fill="none" stroke="#000000" d="M533.3434,-563.0983C515.3673,-554.0026 495.0753,-541.6937 479.7391,-526.6755 438.5582,-486.3483 408.2057,-425.1886 392.904,-389.9141"/>
<polygon fill="#000000" stroke="#000000" points="395.9413,-388.1112 388.8166,-380.2696 389.4962,-390.8427 395.9413,-388.1112"/>
</g>
<!-- Character&#45;Sets -->
<g id="node11" class="node">
<title>Character&#45;Sets</title>
<polygon fill="#c0c0c0" stroke="#000000" points="674.6795,-490.1755 674.6795,-526.1755 784.7987,-526.1755 784.7987,-490.1755 674.6795,-490.1755"/>
<text text-anchor="middle" x="729.7391" y="-503.9755" font-family="Arial" font-size="14.00" fill="#000000">Character&#45;Sets</text>
</g>
<!-- JSON roboCJKproject&#45;&gt;Character&#45;Sets -->
<g id="edge7" class="edge">
<title>JSON roboCJKproject&#45;&gt;Character&#45;Sets</title>
<path fill="none" stroke="#000000" d="M613.8065,-563.1305C634.5376,-553.3035 660.378,-541.0544 682.3985,-530.6162"/>
<polygon fill="#000000" stroke="#000000" points="684.0389,-533.712 691.5759,-526.2659 681.0405,-527.3866 684.0389,-533.712"/>
</g>
<!-- Glyph Composition Data -->
<g id="node12" class="node">
<title>Glyph Composition Data</title>
<polygon fill="#c0c0c0" stroke="#000000" points="488.8941,-490.1755 488.8941,-526.1755 656.5841,-526.1755 656.5841,-490.1755 488.8941,-490.1755"/>
<text text-anchor="middle" x="572.7391" y="-503.9755" font-family="Arial" font-size="14.00" fill="#000000">Glyph Composition Data</text>
</g>
<!-- JSON roboCJKproject&#45;&gt;Glyph Composition Data -->
<g id="edge9" class="edge">
<title>JSON roboCJKproject&#45;&gt;Glyph Composition Data</title>
<path fill="none" stroke="#000000" d="M574.9975,-563.1305C574.6658,-555.0583 574.2669,-545.3519 573.8973,-536.3572"/>
<polygon fill="#000000" stroke="#000000" points="577.3903,-536.1137 573.4825,-526.2659 570.3962,-536.4012 577.3903,-536.1137"/>
</g>
<!-- Project Settings -->
<g id="node13" class="node">
<title>Project Settings</title>
<polygon fill="#c0c0c0" stroke="#000000" points="802.7279,-490.1755 802.7279,-526.1755 916.7503,-526.1755 916.7503,-490.1755 802.7279,-490.1755"/>
<text text-anchor="middle" x="859.7391" y="-503.9755" font-family="Arial" font-size="14.00" fill="#000000">Project Settings</text>
</g>
<!-- JSON roboCJKproject&#45;&gt;Project Settings -->
<g id="edge10" class="edge">
<title>JSON roboCJKproject&#45;&gt;Project Settings</title>
<path fill="none" stroke="#000000" d="M650.0347,-563.1544C689.774,-553.385 739.7729,-540.8874 792.6281,-526.9395"/>
<polygon fill="#000000" stroke="#000000" points="793.7574,-530.2612 802.5287,-524.3186 791.966,-523.4943 793.7574,-530.2612"/>
</g>
<!-- Glyph Composition Data&#45;&gt;Deep Component Editor -->
<g id="edge12" class="edge">
<title>Glyph Composition Data&#45;&gt;Deep Component Editor</title>
<path fill="none" stroke="#000000" d="M559.2988,-480.9216C556.3103,-474.8616 553.1423,-468.4375 550.1547,-462.3794"/>
<polygon fill="#000000" stroke="#000000" points="556.2782,-482.7099 563.8402,-490.1305 562.5563,-479.6138 556.2782,-482.7099"/>
<polygon fill="#000000" stroke="#000000" points="553.2224,-460.6865 545.6604,-453.2659 546.9443,-463.7826 553.2224,-460.6865"/>
</g>
<!-- Glyph Composition Data&#45;&gt;Deep Component Selector -->
<g id="edge14" class="edge">
<title>Glyph Composition Data&#45;&gt;Deep Component Selector</title>
<path fill="none" stroke="#000000" d="M606.6303,-490.1027C621.6485,-480.7891 638.6196,-468.3053 650.7391,-453.6755 685.1382,-412.1515 706.7408,-352.0663 717.1987,-317.1742"/>
<polygon fill="#000000" stroke="#000000" points="720.6666,-317.7819 720.0883,-307.2028 713.9432,-315.8334 720.6666,-317.7819"/>
</g>
<!-- Glyph Composition Data&#45;&gt;Get Mini Font / Inject Back -->
<g id="edge13" class="edge">
<title>Glyph Composition Data&#45;&gt;Get Mini Font / Inject Back</title>
<path fill="none" stroke="#000000" d="M606.5476,-483.0886C615.3146,-474.7625 623.6999,-464.755 628.7391,-453.6755 648.993,-409.1439 658.3033,-385.3858 632.7391,-343.6755 624.4282,-330.1155 611.5684,-319.7975 597.6089,-311.9933"/>
<polygon fill="#000000" stroke="#000000" points="603.9688,-480.698 598.8194,-489.9573 608.6191,-485.9301 603.9688,-480.698"/>
<polygon fill="#000000" stroke="#000000" points="598.8079,-308.6745 588.3135,-307.2191 595.6097,-314.9013 598.8079,-308.6745"/>
</g>
<!-- VarFont 1.9 -->
<g id="node16" class="node">
<title>VarFont 1.9</title>
<polygon fill="#ff8c00" stroke="#000000" points="407.7391,-36 320.8377,-18 407.7391,0 494.6405,-18 407.7391,-36"/>
<text text-anchor="middle" x="407.7391" y="-13.8" font-family="Arial" font-size="14.00" fill="#000000">VarFont 1.9</text>
</g>
<!-- CI Build&#45;&gt;VarFont 1.9 -->
<g id="edge21" class="edge">
<title>CI Build&#45;&gt;VarFont 1.9</title>
<path fill="none" stroke="#000000" d="M407.7391,-71.7574C407.7391,-63.0767 407.7391,-54.2161 407.7391,-46.2581"/>
<polygon fill="#000000" stroke="#000000" points="411.2392,-46.0672 407.7391,-36.0673 404.2392,-46.0673 411.2392,-46.0672"/>
</g>
<!-- Deep Component Instances Data&#45;&gt;CI Build -->
<g id="edge20" class="edge">
<title>Deep Component Instances Data&#45;&gt;CI Build</title>
<path fill="none" stroke="#000000" d="M663.694,-198.0709C605.8075,-179.6993 516.9242,-151.4901 460.5923,-133.6119"/>
<polygon fill="#000000" stroke="#000000" points="461.4016,-130.1968 450.8114,-130.5077 459.2841,-136.8688 461.4016,-130.1968"/>
</g>
<!-- CJK Space Center -->
<g id="node17" class="node">
<title>CJK Space Center</title>
<polygon fill="#ffd700" stroke="#000000" points="137.7819,-709.1755 137.7819,-745.1755 269.6963,-745.1755 269.6963,-709.1755 137.7819,-709.1755"/>
<text text-anchor="middle" x="203.7391" y="-722.9755" font-family="Arial" font-size="14.00" fill="#000000">CJK Space Center</text>
</g>
<!-- CJK Space Center&#45;&gt;RoboCJK Settings -->
<g id="edge22" class="edge">
<title>CJK Space Center&#45;&gt;RoboCJK Settings</title>
<path fill="none" stroke="#000000" d="M248.7732,-704.5031C269.3739,-694.1318 293.4463,-682.0125 312.8062,-672.2659"/>
<polygon fill="#000000" stroke="#000000" points="246.9398,-701.5076 239.5818,-709.1305 250.0876,-707.7599 246.9398,-701.5076"/>
</g>
<!-- Balance Handles -->
<g id="node18" class="node">
<title>Balance Handles</title>
<polygon fill="#ffd700" stroke="#000000" points="287.8352,-709.1755 287.8352,-745.1755 409.643,-745.1755 409.643,-709.1755 287.8352,-709.1755"/>
<text text-anchor="middle" x="348.7391" y="-722.9755" font-family="Arial" font-size="14.00" fill="#000000">Balance Handles</text>
</g>
<!-- Balance Handles&#45;&gt;RoboCJK Settings -->
<g id="edge23" class="edge">
<title>Balance Handles&#45;&gt;RoboCJK Settings</title>
<path fill="none" stroke="#000000" d="M348.7391,-699.0443C348.7391,-690.0524 348.7391,-680.3442 348.7391,-672.2659"/>
<polygon fill="#000000" stroke="#000000" points="345.2392,-699.1305 348.7391,-709.1305 352.2392,-699.1306 345.2392,-699.1305"/>
</g>
<!-- Power Ruler -->
<g id="node19" class="node">
<title>Power Ruler</title>
<polygon fill="#ffd700" stroke="#000000" points="427.2398,-709.1755 427.2398,-745.1755 520.2384,-745.1755 520.2384,-709.1755 427.2398,-709.1755"/>
<text text-anchor="middle" x="473.7391" y="-722.9755" font-family="Arial" font-size="14.00" fill="#000000">Power Ruler</text>
</g>
<!-- Power Ruler&#45;&gt;RoboCJK Settings -->
<g id="edge24" class="edge">
<title>Power Ruler&#45;&gt;RoboCJK Settings</title>
<path fill="none" stroke="#000000" d="M433.9537,-703.9408C416.4109,-693.6958 396.1046,-681.8369 379.7157,-672.2659"/>
<polygon fill="#000000" stroke="#000000" points="432.4399,-707.1098 442.8402,-709.1305 435.97,-701.0651 432.4399,-707.1098"/>
</g>
<!-- Safe Interpolator -->
<g id="node20" class="node">
<title>Safe Interpolator</title>
<polygon fill="#ffd700" stroke="#000000" points="0,-709.1755 0,-745.1755 119.4782,-745.1755 119.4782,-709.1755 0,-709.1755"/>
<text text-anchor="middle" x="59.7391" y="-722.9755" font-family="Arial" font-size="14.00" fill="#000000">Safe Interpolator</text>
</g>
<!-- Safe Interpolator&#45;&gt;RoboCJK Settings -->
<g id="edge25" class="edge">
<title>Safe Interpolator&#45;&gt;RoboCJK Settings</title>
<path fill="none" stroke="#000000" d="M129.546,-708.4889C186.95,-693.7321 241.8039,-680.1802 283.1963,-670.0649"/>
<polygon fill="#000000" stroke="#000000" points="128.3704,-705.1774 119.5598,-711.0617 130.1168,-711.956 128.3704,-705.1774"/>
</g>
<!-- Design Frame -->
<g id="node21" class="node">
<title>Design Frame</title>
<polygon fill="#ffd700" stroke="#000000" points="673.7938,-563.1755 673.7938,-599.1755 777.6844,-599.1755 777.6844,-563.1755 673.7938,-563.1755"/>
<text text-anchor="middle" x="725.7391" y="-576.9755" font-family="Arial" font-size="14.00" fill="#000000">Design Frame</text>
</g>
<!-- Design Frame&#45;&gt;Project Settings -->
<g id="edge26" class="edge">
<title>Design Frame&#45;&gt;Project Settings</title>
<path fill="none" stroke="#000000" d="M767.8722,-558.2224C786.7952,-547.9136 808.8021,-535.9247 826.5321,-526.2659"/>
<polygon fill="#000000" stroke="#000000" points="765.9698,-555.273 758.8627,-563.1305 769.3186,-561.4201 765.9698,-555.273"/>
</g>
<!-- Reference Viewer -->
<g id="node22" class="node">
<title>Reference Viewer</title>
<polygon fill="#ffd700" stroke="#000000" points="796.1206,-563.1755 796.1206,-599.1755 923.3576,-599.1755 923.3576,-563.1755 796.1206,-563.1755"/>
<text text-anchor="middle" x="859.7391" y="-576.9755" font-family="Arial" font-size="14.00" fill="#000000">Reference Viewer</text>
</g>
<!-- Reference Viewer&#45;&gt;Project Settings -->
<g id="edge27" class="edge">
<title>Reference Viewer&#45;&gt;Project Settings</title>
<path fill="none" stroke="#000000" d="M859.7391,-553.0443C859.7391,-544.0524 859.7391,-534.3442 859.7391,-526.2659"/>
<polygon fill="#000000" stroke="#000000" points="856.2392,-553.1305 859.7391,-563.1305 863.2392,-553.1306 856.2392,-553.1305"/>
</g>
<!-- Calendar -->
<g id="node23" class="node">
<title>Calendar</title>
<polygon fill="#ffd700" stroke="#000000" points="941.3457,-563.1755 941.3457,-599.1755 1014.1325,-599.1755 1014.1325,-563.1755 941.3457,-563.1755"/>
<text text-anchor="middle" x="977.7391" y="-576.9755" font-family="Arial" font-size="14.00" fill="#000000">Calendar</text>
</g>
<!-- Calendar&#45;&gt;Project Settings -->
<g id="edge28" class="edge">
<title>Calendar&#45;&gt;Project Settings</title>
<path fill="none" stroke="#000000" d="M939.7253,-557.6585C923.2699,-547.4784 904.3102,-535.7491 888.9811,-526.2659"/>
<polygon fill="#000000" stroke="#000000" points="938.225,-560.8459 948.5706,-563.1305 941.9077,-554.893 938.225,-560.8459"/>
</g>
</g>
</svg>
