<?xml version="1.0" encoding="UTF-8" standalone="no"?>
<!DOCTYPE svg PUBLIC "-//W3C//DTD SVG 1.1//EN"
 "http://www.w3.org/Graphics/SVG/1.1/DTD/svg11.dtd">
<!-- Generated by graphviz version 2.40.1 (20161225.0304)
 -->
<!-- Title: %0 Pages: 1 -->
<svg width="1022pt" height="754pt"
 viewBox="0.00 0.00 1022.13 753.68" xmlns="http://www.w3.org/2000/svg" xmlns:xlink="http://www.w3.org/1999/xlink">
<g id="graph0" class="graph" transform="scale(1 1) rotate(0) translate(4 749.6755)">
<title>%0</title>
<polygon fill="#ffffff" stroke="transparent" points="-4,4 -4,-749.6755 1018.1325,-749.6755 1018.1325,4 -4,4"/>
<!-- RoboCJK -->
<g id="node1" class="node">
<title>RoboCJK</title>
<polygon fill="#ff1493" stroke="#000000" points="537.7903,-709.1755 537.7903,-745.1755 613.6879,-745.1755 613.6879,-709.1755 537.7903,-709.1755"/>
<text text-anchor="middle" x="575.7391" y="-722.9755" font-family="Arial" font-size="14.00" fill="#000000">RoboCJK</text>
</g>
<!-- RoboCJK Settings -->
<g id="node2" class="node">
<title>RoboCJK Settings</title>
<polygon fill="#c0c0c0" stroke="#000000" points="283.5589,-636.1755 283.5589,-672.1755 413.9193,-672.1755 413.9193,-636.1755 283.5589,-636.1755"/>
<text text-anchor="middle" x="348.7391" y="-649.9755" font-family="Arial" font-size="14.00" fill="#000000">RoboCJK Settings</text>
</g>
<!-- RoboCJK&#45;&gt;RoboCJK Settings -->
<g id="edge2" class="edge">
<title>RoboCJK&#45;&gt;RoboCJK Settings</title>
<path fill="none" stroke="#000000" d="M537.6161,-711.8711C534.6231,-710.761 531.6382,-709.6831 528.7391,-708.6755 494.2209,-696.6784 455.48,-684.7544 422.8064,-675.1326"/>
<polygon fill="#000000" stroke="#000000" points="423.4532,-671.6751 412.8725,-672.2229 421.4855,-678.3928 423.4532,-671.6751"/>
</g>
<!-- Project Editor -->
<g id="node3" class="node">
<title>Project Editor</title>
<polygon fill="#ffc0cb" stroke="#000000" points="525.7342,-636.1755 525.7342,-672.1755 625.744,-672.1755 625.744,-636.1755 525.7342,-636.1755"/>
<text text-anchor="middle" x="575.7391" y="-649.9755" font-family="Arial" font-size="14.00" fill="#000000">Project Editor</text>
</g>
<!-- RoboCJK&#45;&gt;Project Editor -->
<g id="edge1" class="edge">
<title>RoboCJK&#45;&gt;Project Editor</title>
<path fill="none" stroke="#000000" d="M575.7391,-709.1305C575.7391,-701.0583 575.7391,-691.3519 575.7391,-682.3572"/>
<polygon fill="#000000" stroke="#000000" points="579.2392,-682.2658 575.7391,-672.2659 572.2392,-682.2659 579.2392,-682.2658"/>
</g>
<!-- JSON roboCJKproject -->
<g id="node10" class="node">
<title>JSON roboCJKproject</title>
<polygon fill="none" stroke="#000000" points="498.8983,-563.1755 498.8983,-599.1755 652.5799,-599.1755 652.5799,-563.1755 498.8983,-563.1755"/>
<text text-anchor="middle" x="575.7391" y="-576.9755" font-family="Arial" font-size="14.00" fill="#000000">JSON roboCJKproject</text>
</g>
<!-- Project Editor&#45;&gt;JSON roboCJKproject -->
<g id="edge6" class="edge">
<title>Project Editor&#45;&gt;JSON roboCJKproject</title>
<path fill="none" stroke="#000000" d="M575.7391,-636.1305C575.7391,-628.0583 575.7391,-618.3519 575.7391,-609.3572"/>
<polygon fill="#000000" stroke="#000000" points="579.2392,-609.2658 575.7391,-599.2659 572.2392,-609.2659 579.2392,-609.2658"/>
</g>
<!-- Variable Component Editor -->
<g id="node4" class="node">
<title>Variable Component Editor</title>
<polygon fill="#ffc0cb" stroke="#000000" points="418.7216,-417.1755 418.7216,-453.1755 602.7566,-453.1755 602.7566,-417.1755 418.7216,-417.1755"/>
<text text-anchor="middle" x="510.7391" y="-430.9755" font-family="Arial" font-size="14.00" fill="#000000">Variable Component Editor</text>
</g>
<!-- UFO&#45;Masters -->
<g id="node7" class="node">
<title>UFO&#45;Masters</title>
<polygon fill="#add8e6" stroke="#000000" points="296.7454,-344.1755 296.7454,-380.1755 396.7328,-380.1755 396.7328,-344.1755 296.7454,-344.1755"/>
<text text-anchor="middle" x="346.7391" y="-357.9755" font-family="Arial" font-size="14.00" fill="#000000">UFO&#45;Masters</text>
</g>
<!-- Variable Component Editor&#45;&gt;UFO&#45;Masters -->
<g id="edge11" class="edge">
<title>Variable Component Editor&#45;&gt;UFO&#45;Masters</title>
<path fill="none" stroke="#000000" d="M470.1998,-417.1305C447.9254,-407.2158 420.1123,-394.8355 396.5266,-384.337"/>
<polygon fill="#000000" stroke="#000000" points="397.9396,-381.1349 387.3805,-380.2659 395.093,-387.53 397.9396,-381.1349"/>
</g>
<!-- Variable Component Glyphs -->
<g id="node9" class="node">
<title>Variable Component Glyphs</title>
<polygon fill="#add8e6" stroke="#000000" points="415.2202,-344.1755 415.2202,-380.1755 606.258,-380.1755 606.258,-344.1755 415.2202,-344.1755"/>
<text text-anchor="middle" x="510.7391" y="-357.9755" font-family="Arial" font-size="14.00" fill="#000000">Variable Component Glyphs</text>
</g>
<!-- Variable Component Editor&#45;&gt;Variable Component Glyphs -->
<g id="edge5" class="edge">
<title>Variable Component Editor&#45;&gt;Variable Component Glyphs</title>
<path fill="none" stroke="#000000" d="M510.7391,-417.1305C510.7391,-409.0583 510.7391,-399.3519 510.7391,-390.3572"/>
<polygon fill="#000000" stroke="#000000" points="514.2392,-390.2658 510.7391,-380.2659 507.2392,-390.2659 514.2392,-390.2658"/>
</g>
<!-- Variable Component Selector -->
<g id="node5" class="node">
<title>Variable Component Selector</title>
<polygon fill="#ffc0cb" stroke="#000000" points="601.3303,-271.1755 601.3303,-307.1755 800.1479,-307.1755 800.1479,-271.1755 601.3303,-271.1755"/>
<text text-anchor="middle" x="700.7391" y="-284.9755" font-family="Arial" font-size="14.00" fill="#000000">Variable Component Selector</text>
</g>
<!-- UFO&#45;Subsetted -->
<g id="node8" class="node">
<title>UFO&#45;Subsetted</title>
<polygon fill="#add8e6" stroke="#000000" points="440.1185,-198.1755 440.1185,-234.1755 553.3597,-234.1755 553.3597,-198.1755 440.1185,-198.1755"/>
<text text-anchor="middle" x="496.7391" y="-211.9755" font-family="Arial" font-size="14.00" fill="#000000">UFO&#45;Subsetted</text>
</g>
<!-- Variable Component Selector&#45;&gt;UFO&#45;Subsetted -->
<g id="edge16" class="edge">
<title>Variable Component Selector&#45;&gt;UFO&#45;Subsetted</title>
<path fill="none" stroke="#000000" d="M650.3121,-271.1305C621.9921,-260.9964 586.474,-248.2865 556.7306,-237.643"/>
<polygon fill="#000000" stroke="#000000" points="557.8876,-234.3398 547.293,-234.2659 555.5291,-240.9305 557.8876,-234.3398"/>
</g>
<!-- Variable Component Instances Data -->
<g id="node15" class="node">
<title>Variable Component Instances Data</title>
<polygon fill="#c0c0c0" stroke="#000000" points="577.3191,-198.1755 577.3191,-234.1755 818.1591,-234.1755 818.1591,-198.1755 577.3191,-198.1755"/>
<text text-anchor="middle" x="697.7391" y="-211.9755" font-family="Arial" font-size="14.00" fill="#000000">Variable Component Instances Data</text>
</g>
<!-- Variable Component Selector&#45;&gt;Variable Component Instances Data -->
<g id="edge19" class="edge">
<title>Variable Component Selector&#45;&gt;Variable Component Instances Data</title>
<path fill="none" stroke="#000000" d="M699.9975,-271.1305C699.6658,-263.0583 699.2669,-253.3519 698.8973,-244.3572"/>
<polygon fill="#000000" stroke="#000000" points="702.3903,-244.1137 698.4825,-234.2659 695.3962,-244.4012 702.3903,-244.1137"/>
</g>
<!-- Get Mini Font / Inject Back -->
<g id="node6" class="node">
<title>Get Mini Font / Inject Back</title>
<polygon fill="#ffc0cb" stroke="#000000" points="403.6669,-271.1755 403.6669,-307.1755 583.8113,-307.1755 583.8113,-271.1755 403.6669,-271.1755"/>
<text text-anchor="middle" x="493.7391" y="-284.9755" font-family="Arial" font-size="14.00" fill="#000000">Get Mini Font / Inject Back</text>
</g>
<!-- Get Mini Font / Inject Back&#45;&gt;UFO&#45;Subsetted -->
<g id="edge4" class="edge">
<title>Get Mini Font / Inject Back&#45;&gt;UFO&#45;Subsetted</title>
<path fill="none" stroke="#000000" d="M494.8952,-261.0443C495.1204,-255.5649 495.3565,-249.8194 495.5817,-244.3389"/>
<polygon fill="#000000" stroke="#000000" points="491.3943,-260.9952 494.4807,-271.1305 498.3884,-261.2827 491.3943,-260.9952"/>
<polygon fill="#000000" stroke="#000000" points="499.082,-244.4012 495.9957,-234.2659 492.0879,-244.1137 499.082,-244.4012"/>
</g>
<!-- UFO&#45;Masters&#45;&gt;Get Mini Font / Inject Back -->
<g id="edge3" class="edge">
<title>UFO&#45;Masters&#45;&gt;Get Mini Font / Inject Back</title>
<path fill="none" stroke="#000000" d="M392.1124,-339.6432C409.9499,-330.7851 430.3902,-320.6345 448.2399,-311.7703"/>
<polygon fill="#000000" stroke="#000000" points="390.4759,-336.548 383.0762,-344.1305 393.5894,-342.8175 390.4759,-336.548"/>
<polygon fill="#000000" stroke="#000000" points="449.9109,-314.8484 457.3106,-307.2659 446.7974,-308.5789 449.9109,-314.8484"/>
</g>
<!-- CI Build -->
<g id="node14" class="node">
<title>CI Build</title>
<ellipse fill="none" stroke="#000000" cx="375.7391" cy="-116.8377" rx="44.6761" ry="44.6761"/>
<text text-anchor="middle" x="375.7391" y="-112.6377" font-family="Arial" font-size="14.00" fill="#000000">CI Build</text>
</g>
<!-- UFO&#45;Masters&#45;&gt;CI Build -->
<g id="edge17" class="edge">
<title>UFO&#45;Masters&#45;&gt;CI Build</title>
<path fill="none" stroke="#000000" d="M347.925,-343.8652C350.0042,-313.4336 354.7604,-250.5572 361.7391,-197.6755 362.8764,-189.0574 364.2672,-179.9539 365.7258,-171.0864"/>
<polygon fill="#000000" stroke="#000000" points="369.1791,-171.6563 367.3917,-161.2133 362.2766,-170.4916 369.1791,-171.6563"/>
</g>
<!-- Variable Component Glyphs&#45;&gt;Variable Component Selector -->
<g id="edge15" class="edge">
<title>Variable Component Glyphs&#45;&gt;Variable Component Selector</title>
<path fill="none" stroke="#000000" d="M557.7054,-344.1305C583.8536,-334.0841 616.5902,-321.5064 644.1439,-310.9199"/>
<polygon fill="#000000" stroke="#000000" points="645.5752,-314.1196 653.6546,-307.2659 643.0646,-307.5853 645.5752,-314.1196"/>
</g>
<!-- Variable Component Glyphs&#45;&gt;CI Build -->
<g id="edge18" class="edge">
<title>Variable Component Glyphs&#45;&gt;CI Build</title>
<path fill="none" stroke="#000000" d="M442.8588,-344.0442C424.4646,-335.8747 406.4282,-324.209 394.7391,-307.6755 366.9196,-268.3266 364.4835,-212.4713 367.621,-171.3515"/>
<polygon fill="#000000" stroke="#000000" points="371.1211,-171.5061 368.5268,-161.2338 364.149,-170.8819 371.1211,-171.5061"/>
</g>
<!-- JSON roboCJKproject&#45;&gt;UFO&#45;Masters -->
<g id="edge8" class="edge">
<title>JSON roboCJKproject&#45;&gt;UFO&#45;Masters</title>
<path fill="none" stroke="#000000" d="M538.1484,-563.0911C519.7463,-553.4442 497.7371,-540.683 479.7391,-526.6755 428.9235,-487.1268 385.3272,-424.5883 362.8976,-389.1023"/>
<polygon fill="#000000" stroke="#000000" points="365.6575,-386.9129 357.4016,-380.2728 359.7147,-390.6121 365.6575,-386.9129"/>
</g>
<!-- Character&#45;Sets -->
<g id="node11" class="node">
<title>Character&#45;Sets</title>
<polygon fill="#c0c0c0" stroke="#000000" points="674.6795,-490.1755 674.6795,-526.1755 784.7987,-526.1755 784.7987,-490.1755 674.6795,-490.1755"/>
<text text-anchor="middle" x="729.7391" y="-503.9755" font-family="Arial" font-size="14.00" fill="#000000">Character&#45;Sets</text>
</g>
<!-- JSON roboCJKproject&#45;&gt;Character&#45;Sets -->
<g id="edge7" class="edge">
<title>JSON roboCJKproject&#45;&gt;Character&#45;Sets</title>
<path fill="none" stroke="#000000" d="M613.8065,-563.1305C634.5376,-553.3035 660.378,-541.0544 682.3985,-530.6162"/>
<polygon fill="#000000" stroke="#000000" points="684.0389,-533.712 691.5759,-526.2659 681.0405,-527.3866 684.0389,-533.712"/>
</g>
<!-- Glyph Composition Data -->
<g id="node12" class="node">
<title>Glyph Composition Data</title>
<polygon fill="#c0c0c0" stroke="#000000" points="488.8941,-490.1755 488.8941,-526.1755 656.5841,-526.1755 656.5841,-490.1755 488.8941,-490.1755"/>
<text text-anchor="middle" x="572.7391" y="-503.9755" font-family="Arial" font-size="14.00" fill="#000000">Glyph Composition Data</text>
</g>
<!-- JSON roboCJKproject&#45;&gt;Glyph Composition Data -->
<g id="edge9" class="edge">
<title>JSON roboCJKproject&#45;&gt;Glyph Composition Data</title>
<path fill="none" stroke="#000000" d="M574.9975,-563.1305C574.6658,-555.0583 574.2669,-545.3519 573.8973,-536.3572"/>
<polygon fill="#000000" stroke="#000000" points="577.3903,-536.1137 573.4825,-526.2659 570.3962,-536.4012 577.3903,-536.1137"/>
</g>
<!-- Project Settings -->
<g id="node13" class="node">
<title>Project Settings</title>
<polygon fill="#c0c0c0" stroke="#000000" points="802.7279,-490.1755 802.7279,-526.1755 916.7503,-526.1755 916.7503,-490.1755 802.7279,-490.1755"/>
<text text-anchor="middle" x="859.7391" y="-503.9755" font-family="Arial" font-size="14.00" fill="#000000">Project Settings</text>
</g>
<!-- JSON roboCJKproject&#45;&gt;Project Settings -->
<g id="edge10" class="edge">
<title>JSON roboCJKproject&#45;&gt;Project Settings</title>
<path fill="none" stroke="#000000" d="M650.0347,-563.1544C689.774,-553.385 739.7729,-540.8874 792.6281,-526.9395"/>
<polygon fill="#000000" stroke="#000000" points="793.7574,-530.2612 802.5287,-524.3186 791.966,-523.4943 793.7574,-530.2612"/>
</g>
<!-- Glyph Composition Data&#45;&gt;Variable Component Editor -->
<g id="edge12" class="edge">
<title>Glyph Composition Data&#45;&gt;Variable Component Editor</title>
<path fill="none" stroke="#000000" d="M550.824,-482.3723C544.952,-475.4585 538.603,-467.983 532.7271,-461.0646"/>
<polygon fill="#000000" stroke="#000000" points="548.2721,-484.7743 557.4133,-490.1305 553.6075,-480.2428 548.2721,-484.7743"/>
<polygon fill="#000000" stroke="#000000" points="535.2447,-458.6221 526.1035,-453.2659 529.9093,-463.1536 535.2447,-458.6221"/>
</g>
<!-- Glyph Composition Data&#45;&gt;Variable Component Selector -->
<g id="edge14" class="edge">
<title>Glyph Composition Data&#45;&gt;Variable Component Selector</title>
<path fill="none" stroke="#000000" d="M597.3257,-490.0712C609.2374,-480.3293 623.028,-467.4907 632.7391,-453.6755 663.178,-410.3725 683.3259,-351.3761 693.3274,-317.0709"/>
<polygon fill="#000000" stroke="#000000" points="696.748,-317.8372 696.1058,-307.2618 690.013,-315.9295 696.748,-317.8372"/>
</g>
<!-- Glyph Composition Data&#45;&gt;Get Mini Font / Inject Back -->
<g id="edge13" class="edge">
<title>Glyph Composition Data&#45;&gt;Get Mini Font / Inject Back</title>
<path fill="none" stroke="#000000" d="M595.9818,-482.0271C602.2209,-473.5457 608.2096,-463.7193 611.7391,-453.6755 627.9581,-407.5211 642.358,-384.7208 615.7391,-343.6755 606.7496,-329.814 593.3197,-319.447 578.6158,-311.703"/>
<polygon fill="#000000" stroke="#000000" points="593.1376,-479.9827 589.7411,-490.0184 598.6546,-484.2912 593.1376,-479.9827"/>
<polygon fill="#000000" stroke="#000000" points="579.8509,-308.4126 569.3243,-307.2124 576.8049,-314.7152 579.8509,-308.4126"/>
</g>
<!-- VarFont 1.9 -->
<g id="node16" class="node">
<title>VarFont 1.9</title>
<polygon fill="#ff8c00" stroke="#000000" points="375.7391,-36 288.8377,-18 375.7391,0 462.6405,-18 375.7391,-36"/>
<text text-anchor="middle" x="375.7391" y="-13.8" font-family="Arial" font-size="14.00" fill="#000000">VarFont 1.9</text>
</g>
<!-- CI Build&#45;&gt;VarFont 1.9 -->
<g id="edge21" class="edge">
<title>CI Build&#45;&gt;VarFont 1.9</title>
<path fill="none" stroke="#000000" d="M375.7391,-71.7574C375.7391,-63.0767 375.7391,-54.2161 375.7391,-46.2581"/>
<polygon fill="#000000" stroke="#000000" points="379.2392,-46.0672 375.7391,-36.0673 372.2392,-46.0673 379.2392,-46.0672"/>
</g>
<!-- Variable Component Instances Data&#45;&gt;CI Build -->
<g id="edge20" class="edge">
<title>Variable Component Instances Data&#45;&gt;CI Build</title>
<path fill="none" stroke="#000000" d="M639.0538,-198.0709C578.865,-179.5026 486.1016,-150.8848 428.2618,-133.0411"/>
<polygon fill="#000000" stroke="#000000" points="429.1747,-129.66 418.5873,-130.0565 427.1111,-136.349 429.1747,-129.66"/>
</g>
<!-- CJK Space Center -->
<g id="node17" class="node">
<title>CJK Space Center</title>
<polygon fill="#ffd700" stroke="#000000" points="137.7819,-709.1755 137.7819,-745.1755 269.6963,-745.1755 269.6963,-709.1755 137.7819,-709.1755"/>
<text text-anchor="middle" x="203.7391" y="-722.9755" font-family="Arial" font-size="14.00" fill="#000000">CJK Space Center</text>
</g>
<!-- CJK Space Center&#45;&gt;RoboCJK Settings -->
<g id="edge22" class="edge">
<title>CJK Space Center&#45;&gt;RoboCJK Settings</title>
<path fill="none" stroke="#000000" d="M248.7732,-704.5031C269.3739,-694.1318 293.4463,-682.0125 312.8062,-672.2659"/>
<polygon fill="#000000" stroke="#000000" points="246.9398,-701.5076 239.5818,-709.1305 250.0876,-707.7599 246.9398,-701.5076"/>
</g>
<!-- Balance Handles -->
<g id="node18" class="node">
<title>Balance Handles</title>
<polygon fill="#ffd700" stroke="#000000" points="287.8352,-709.1755 287.8352,-745.1755 409.643,-745.1755 409.643,-709.1755 287.8352,-709.1755"/>
<text text-anchor="middle" x="348.7391" y="-722.9755" font-family="Arial" font-size="14.00" fill="#000000">Balance Handles</text>
</g>
<!-- Balance Handles&#45;&gt;RoboCJK Settings -->
<g id="edge23" class="edge">
<title>Balance Handles&#45;&gt;RoboCJK Settings</title>
<path fill="none" stroke="#000000" d="M348.7391,-699.0443C348.7391,-690.0524 348.7391,-680.3442 348.7391,-672.2659"/>
<polygon fill="#000000" stroke="#000000" points="345.2392,-699.1305 348.7391,-709.1305 352.2392,-699.1306 345.2392,-699.1305"/>
</g>
<!-- Power Ruler -->
<g id="node19" class="node">
<title>Power Ruler</title>
<polygon fill="#ffd700" stroke="#000000" points="427.2398,-709.1755 427.2398,-745.1755 520.2384,-745.1755 520.2384,-709.1755 427.2398,-709.1755"/>
<text text-anchor="middle" x="473.7391" y="-722.9755" font-family="Arial" font-size="14.00" fill="#000000">Power Ruler</text>
</g>
<!-- Power Ruler&#45;&gt;RoboCJK Settings -->
<g id="edge24" class="edge">
<title>Power Ruler&#45;&gt;RoboCJK Settings</title>
<path fill="none" stroke="#000000" d="M433.9537,-703.9408C416.4109,-693.6958 396.1046,-681.8369 379.7157,-672.2659"/>
<polygon fill="#000000" stroke="#000000" points="432.4399,-707.1098 442.8402,-709.1305 435.97,-701.0651 432.4399,-707.1098"/>
</g>
<!-- Safe Interpolator -->
<g id="node20" class="node">
<title>Safe Interpolator</title>
<polygon fill="#ffd700" stroke="#000000" points="0,-709.1755 0,-745.1755 119.4782,-745.1755 119.4782,-709.1755 0,-709.1755"/>
<text text-anchor="middle" x="59.7391" y="-722.9755" font-family="Arial" font-size="14.00" fill="#000000">Safe Interpolator</text>
</g>
<!-- Safe Interpolator&#45;&gt;RoboCJK Settings -->
<g id="edge25" class="edge">
<title>Safe Interpolator&#45;&gt;RoboCJK Settings</title>
<path fill="none" stroke="#000000" d="M129.546,-708.4889C186.95,-693.7321 241.8039,-680.1802 283.1963,-670.0649"/>
<polygon fill="#000000" stroke="#000000" points="128.3704,-705.1774 119.5598,-711.0617 130.1168,-711.956 128.3704,-705.1774"/>
</g>
<!-- Design Frame -->
<g id="node21" class="node">
<title>Design Frame</title>
<polygon fill="#ffd700" stroke="#000000" points="673.7938,-563.1755 673.7938,-599.1755 777.6844,-599.1755 777.6844,-563.1755 673.7938,-563.1755"/>
<text text-anchor="middle" x="725.7391" y="-576.9755" font-family="Arial" font-size="14.00" fill="#000000">Design Frame</text>
</g>
<!-- Design Frame&#45;&gt;Project Settings -->
<g id="edge26" class="edge">
<title>Design Frame&#45;&gt;Project Settings</title>
<path fill="none" stroke="#000000" d="M767.8722,-558.2224C786.7952,-547.9136 808.8021,-535.9247 826.5321,-526.2659"/>
<polygon fill="#000000" stroke="#000000" points="765.9698,-555.273 758.8627,-563.1305 769.3186,-561.4201 765.9698,-555.273"/>
</g>
<!-- Reference Viewer -->
<g id="node22" class="node">
<title>Reference Viewer</title>
<polygon fill="#ffd700" stroke="#000000" points="796.1206,-563.1755 796.1206,-599.1755 923.3576,-599.1755 923.3576,-563.1755 796.1206,-563.1755"/>
<text text-anchor="middle" x="859.7391" y="-576.9755" font-family="Arial" font-size="14.00" fill="#000000">Reference Viewer</text>
</g>
<!-- Reference Viewer&#45;&gt;Project Settings -->
<g id="edge27" class="edge">
<title>Reference Viewer&#45;&gt;Project Settings</title>
<path fill="none" stroke="#000000" d="M859.7391,-553.0443C859.7391,-544.0524 859.7391,-534.3442 859.7391,-526.2659"/>
<polygon fill="#000000" stroke="#000000" points="856.2392,-553.1305 859.7391,-563.1305 863.2392,-553.1306 856.2392,-553.1305"/>
</g>
<!-- Calendar -->
<g id="node23" class="node">
<title>Calendar</title>
<polygon fill="#ffd700" stroke="#000000" points="941.3457,-563.1755 941.3457,-599.1755 1014.1325,-599.1755 1014.1325,-563.1755 941.3457,-563.1755"/>
<text text-anchor="middle" x="977.7391" y="-576.9755" font-family="Arial" font-size="14.00" fill="#000000">Calendar</text>
</g>
<!-- Calendar&#45;&gt;Project Settings -->
<g id="edge28" class="edge">
<title>Calendar&#45;&gt;Project Settings</title>
<path fill="none" stroke="#000000" d="M939.7253,-557.6585C923.2699,-547.4784 904.3102,-535.7491 888.9811,-526.2659"/>
<polygon fill="#000000" stroke="#000000" points="938.225,-560.8459 948.5706,-563.1305 941.9077,-554.893 938.225,-560.8459"/>
</g>
</g>
</svg>
