<?xml version="1.0" encoding="UTF-8" standalone="no"?>
<!DOCTYPE svg PUBLIC "-//W3C//DTD SVG 1.1//EN"
 "http://www.w3.org/Graphics/SVG/1.1/DTD/svg11.dtd">
<!-- Generated by graphviz version 2.40.1 (20161225.0304)
 -->
<!-- Title: %0 Pages: 1 -->
<svg width="1003pt" height="754pt"
 viewBox="0.00 0.00 1002.79 753.68" xmlns="http://www.w3.org/2000/svg" xmlns:xlink="http://www.w3.org/1999/xlink">
<g id="graph0" class="graph" transform="scale(1 1) rotate(0) translate(4 749.6755)">
<title>%0</title>
<polygon fill="#ffffff" stroke="transparent" points="-4,4 -4,-749.6755 998.7903,-749.6755 998.7903,4 -4,4"/>
<!-- RoboCJK -->
<g id="node1" class="node">
<title>RoboCJK</title>
<polygon fill="#ff1493" stroke="#000000" points="518.4481,-709.1755 518.4481,-745.1755 594.3457,-745.1755 594.3457,-709.1755 518.4481,-709.1755"/>
<text text-anchor="middle" x="556.3969" y="-722.9755" font-family="Arial" font-size="14.00" fill="#000000">RoboCJK</text>
</g>
<!-- RoboCJK Settings -->
<g id="node2" class="node">
<title>RoboCJK Settings</title>
<polygon fill="#c0c0c0" stroke="#000000" points="264.2167,-636.1755 264.2167,-672.1755 394.5771,-672.1755 394.5771,-636.1755 264.2167,-636.1755"/>
<text text-anchor="middle" x="329.3969" y="-649.9755" font-family="Arial" font-size="14.00" fill="#000000">RoboCJK Settings</text>
</g>
<!-- RoboCJK&#45;&gt;RoboCJK Settings -->
<g id="edge2" class="edge">
<title>RoboCJK&#45;&gt;RoboCJK Settings</title>
<path fill="none" stroke="#000000" d="M518.2739,-711.8711C515.2809,-710.761 512.296,-709.6831 509.3969,-708.6755 474.8787,-696.6784 436.1378,-684.7544 403.4642,-675.1326"/>
<polygon fill="#000000" stroke="#000000" points="404.111,-671.6751 393.5303,-672.2229 402.1433,-678.3928 404.111,-671.6751"/>
</g>
<!-- Project Editor -->
<g id="node3" class="node">
<title>Project Editor</title>
<polygon fill="#ffc0cb" stroke="#000000" points="506.392,-636.1755 506.392,-672.1755 606.4018,-672.1755 606.4018,-636.1755 506.392,-636.1755"/>
<text text-anchor="middle" x="556.3969" y="-649.9755" font-family="Arial" font-size="14.00" fill="#000000">Project Editor</text>
</g>
<!-- RoboCJK&#45;&gt;Project Editor -->
<g id="edge1" class="edge">
<title>RoboCJK&#45;&gt;Project Editor</title>
<path fill="none" stroke="#000000" d="M556.3969,-709.1305C556.3969,-701.0583 556.3969,-691.3519 556.3969,-682.3572"/>
<polygon fill="#000000" stroke="#000000" points="559.897,-682.2658 556.3969,-672.2659 552.897,-682.2659 559.897,-682.2658"/>
</g>
<!-- JSON roboCJKproject -->
<g id="node10" class="node">
<title>JSON roboCJKproject</title>
<polygon fill="none" stroke="#000000" points="479.5561,-563.1755 479.5561,-599.1755 633.2377,-599.1755 633.2377,-563.1755 479.5561,-563.1755"/>
<text text-anchor="middle" x="556.3969" y="-576.9755" font-family="Arial" font-size="14.00" fill="#000000">JSON roboCJKproject</text>
</g>
<!-- Project Editor&#45;&gt;JSON roboCJKproject -->
<g id="edge6" class="edge">
<title>Project Editor&#45;&gt;JSON roboCJKproject</title>
<path fill="none" stroke="#000000" d="M556.3969,-636.1305C556.3969,-628.0583 556.3969,-618.3519 556.3969,-609.3572"/>
<polygon fill="#000000" stroke="#000000" points="559.897,-609.2658 556.3969,-599.2659 552.897,-609.2659 559.897,-609.2658"/>
</g>
<!-- Deep Component Editor -->
<g id="node4" class="node">
<title>Deep Component Editor</title>
<polygon fill="#ffc0cb" stroke="#000000" points="434.3226,-417.1755 434.3226,-453.1755 600.4712,-453.1755 600.4712,-417.1755 434.3226,-417.1755"/>
<text text-anchor="middle" x="517.3969" y="-430.9755" font-family="Arial" font-size="14.00" fill="#000000">Deep Component Editor</text>
</g>
<!-- UFO&#45;Masters -->
<g id="node7" class="node">
<title>UFO&#45;Masters</title>
<polygon fill="#add8e6" stroke="#000000" points="312.4032,-344.1755 312.4032,-380.1755 412.3906,-380.1755 412.3906,-344.1755 312.4032,-344.1755"/>
<text text-anchor="middle" x="362.3969" y="-357.9755" font-family="Arial" font-size="14.00" fill="#000000">UFO&#45;Masters</text>
</g>
<!-- Deep Component Editor&#45;&gt;UFO&#45;Masters -->
<g id="edge11" class="edge">
<title>Deep Component Editor&#45;&gt;UFO&#45;Masters</title>
<path fill="none" stroke="#000000" d="M479.0823,-417.1305C458.2166,-407.3035 432.2084,-395.0544 410.0449,-384.6162"/>
<polygon fill="#000000" stroke="#000000" points="411.3461,-381.3603 400.8079,-380.2659 408.3635,-387.6931 411.3461,-381.3603"/>
</g>
<!-- Deep Component Glyphs -->
<g id="node9" class="node">
<title>Deep Component Glyphs</title>
<polygon fill="#add8e6" stroke="#000000" points="430.8212,-344.1755 430.8212,-380.1755 603.9726,-380.1755 603.9726,-344.1755 430.8212,-344.1755"/>
<text text-anchor="middle" x="517.3969" y="-357.9755" font-family="Arial" font-size="14.00" fill="#000000">Deep Component Glyphs</text>
</g>
<!-- Deep Component Editor&#45;&gt;Deep Component Glyphs -->
<g id="edge5" class="edge">
<title>Deep Component Editor&#45;&gt;Deep Component Glyphs</title>
<path fill="none" stroke="#000000" d="M517.3969,-417.1305C517.3969,-409.0583 517.3969,-399.3519 517.3969,-390.3572"/>
<polygon fill="#000000" stroke="#000000" points="520.897,-390.2658 517.3969,-380.2659 513.897,-390.2659 520.897,-390.2658"/>
</g>
<!-- Deep Component Instantiator -->
<g id="node5" class="node">
<title>Deep Component Instantiator</title>
<polygon fill="#ffc0cb" stroke="#000000" points="611.9811,-271.1755 611.9811,-307.1755 810.8127,-307.1755 810.8127,-271.1755 611.9811,-271.1755"/>
<text text-anchor="middle" x="711.3969" y="-284.9755" font-family="Arial" font-size="14.00" fill="#000000">Deep Component Instantiator</text>
</g>
<!-- UFO&#45;Subsetted -->
<g id="node8" class="node">
<title>UFO&#45;Subsetted</title>
<polygon fill="#add8e6" stroke="#000000" points="452.7763,-198.1755 452.7763,-234.1755 566.0175,-234.1755 566.0175,-198.1755 452.7763,-198.1755"/>
<text text-anchor="middle" x="509.3969" y="-211.9755" font-family="Arial" font-size="14.00" fill="#000000">UFO&#45;Subsetted</text>
</g>
<!-- Deep Component Instantiator&#45;&gt;UFO&#45;Subsetted -->
<g id="edge16" class="edge">
<title>Deep Component Instantiator&#45;&gt;UFO&#45;Subsetted</title>
<path fill="none" stroke="#000000" d="M661.4643,-271.1305C633.5433,-261.0403 598.5564,-248.3965 569.183,-237.7814"/>
<polygon fill="#000000" stroke="#000000" points="570.0495,-234.373 559.4552,-234.2659 567.6703,-240.9563 570.0495,-234.373"/>
</g>
<!-- Deep Component Instances Data -->
<g id="node15" class="node">
<title>Deep Component Instances Data</title>
<polygon fill="#c0c0c0" stroke="#000000" points="593.9201,-198.1755 593.9201,-234.1755 816.8737,-234.1755 816.8737,-198.1755 593.9201,-198.1755"/>
<text text-anchor="middle" x="705.3969" y="-211.9755" font-family="Arial" font-size="14.00" fill="#000000">Deep Component Instances Data</text>
</g>
<!-- Deep Component Instantiator&#45;&gt;Deep Component Instances Data -->
<g id="edge19" class="edge">
<title>Deep Component Instantiator&#45;&gt;Deep Component Instances Data</title>
<path fill="none" stroke="#000000" d="M709.9138,-271.1305C709.2503,-263.0583 708.4525,-253.3519 707.7132,-244.3572"/>
<polygon fill="#000000" stroke="#000000" points="711.1913,-243.9455 706.8838,-234.2659 704.2148,-244.519 711.1913,-243.9455"/>
</g>
<!-- Get Mini Font / Inject Back -->
<g id="node6" class="node">
<title>Get Mini Font / Inject Back</title>
<polygon fill="#ffc0cb" stroke="#000000" points="414.3247,-271.1755 414.3247,-307.1755 594.4691,-307.1755 594.4691,-271.1755 414.3247,-271.1755"/>
<text text-anchor="middle" x="504.3969" y="-284.9755" font-family="Arial" font-size="14.00" fill="#000000">Get Mini Font / Inject Back</text>
</g>
<!-- Get Mini Font / Inject Back&#45;&gt;UFO&#45;Subsetted -->
<g id="edge4" class="edge">
<title>Get Mini Font / Inject Back&#45;&gt;UFO&#45;Subsetted</title>
<path fill="none" stroke="#000000" d="M506.3237,-261.0443C506.699,-255.5649 507.0925,-249.8194 507.4679,-244.3389"/>
<polygon fill="#000000" stroke="#000000" points="502.8245,-260.9147 505.6329,-271.1305 509.8081,-261.3931 502.8245,-260.9147"/>
<polygon fill="#000000" stroke="#000000" points="510.9662,-244.4817 508.1578,-234.2659 503.9826,-244.0033 510.9662,-244.4817"/>
</g>
<!-- UFO&#45;Masters&#45;&gt;Get Mini Font / Inject Back -->
<g id="edge3" class="edge">
<title>UFO&#45;Masters&#45;&gt;Get Mini Font / Inject Back</title>
<path fill="none" stroke="#000000" d="M406.4993,-339.5031C423.5215,-330.7523 442.9641,-320.7571 460.0128,-311.9927"/>
<polygon fill="#000000" stroke="#000000" points="404.7914,-336.4457 397.498,-344.1305 407.9919,-342.6712 404.7914,-336.4457"/>
<polygon fill="#000000" stroke="#000000" points="461.9141,-314.9507 469.2074,-307.2659 458.7136,-308.7252 461.9141,-314.9507"/>
</g>
<!-- CI Build -->
<g id="node14" class="node">
<title>CI Build</title>
<ellipse fill="none" stroke="#000000" cx="386.3969" cy="-116.8377" rx="44.6761" ry="44.6761"/>
<text text-anchor="middle" x="386.3969" y="-112.6377" font-family="Arial" font-size="14.00" fill="#000000">CI Build</text>
</g>
<!-- UFO&#45;Masters&#45;&gt;CI Build -->
<g id="edge17" class="edge">
<title>UFO&#45;Masters&#45;&gt;CI Build</title>
<path fill="none" stroke="#000000" d="M362.8483,-343.8603C363.7466,-313.4215 366.2322,-250.5351 372.3969,-197.6755 373.4039,-189.0412 374.7264,-179.9293 376.1568,-171.0582"/>
<polygon fill="#000000" stroke="#000000" points="379.6109,-171.6232 377.8066,-161.1831 372.7066,-170.4697 379.6109,-171.6232"/>
</g>
<!-- Deep Component Glyphs&#45;&gt;Deep Component Instantiator -->
<g id="edge15" class="edge">
<title>Deep Component Glyphs&#45;&gt;Deep Component Instantiator</title>
<path fill="none" stroke="#000000" d="M565.352,-344.1305C592.0506,-334.0841 625.4764,-321.5064 653.6103,-310.9199"/>
<polygon fill="#000000" stroke="#000000" points="655.1945,-314.0635 663.3211,-307.2659 652.7292,-307.512 655.1945,-314.0635"/>
</g>
<!-- Deep Component Glyphs&#45;&gt;CI Build -->
<g id="edge18" class="edge">
<title>Deep Component Glyphs&#45;&gt;CI Build</title>
<path fill="none" stroke="#000000" d="M452.9839,-344.0951C434.819,-335.8798 416.8942,-324.1755 405.3969,-307.6755 377.8467,-268.1376 375.3754,-212.3069 378.4315,-171.2444"/>
<polygon fill="#000000" stroke="#000000" points="381.9304,-171.4089 379.3156,-161.1418 374.957,-170.7985 381.9304,-171.4089"/>
</g>
<!-- JSON roboCJKproject&#45;&gt;UFO&#45;Masters -->
<g id="edge8" class="edge">
<title>JSON roboCJKproject&#45;&gt;UFO&#45;Masters</title>
<path fill="none" stroke="#000000" d="M514.0012,-563.0983C496.0251,-554.0026 475.7331,-541.6937 460.3969,-526.6755 419.216,-486.3483 388.8635,-425.1886 373.5618,-389.9141"/>
<polygon fill="#000000" stroke="#000000" points="376.5991,-388.1112 369.4744,-380.2696 370.154,-390.8427 376.5991,-388.1112"/>
</g>
<!-- Character&#45;Sets -->
<g id="node11" class="node">
<title>Character&#45;Sets</title>
<polygon fill="#c0c0c0" stroke="#000000" points="655.3373,-490.1755 655.3373,-526.1755 765.4565,-526.1755 765.4565,-490.1755 655.3373,-490.1755"/>
<text text-anchor="middle" x="710.3969" y="-503.9755" font-family="Arial" font-size="14.00" fill="#000000">Character&#45;Sets</text>
</g>
<!-- JSON roboCJKproject&#45;&gt;Character&#45;Sets -->
<g id="edge7" class="edge">
<title>JSON roboCJKproject&#45;&gt;Character&#45;Sets</title>
<path fill="none" stroke="#000000" d="M594.4643,-563.1305C615.1954,-553.3035 641.0358,-541.0544 663.0563,-530.6162"/>
<polygon fill="#000000" stroke="#000000" points="664.6967,-533.712 672.2337,-526.2659 661.6983,-527.3866 664.6967,-533.712"/>
</g>
<!-- Glyph Composition Data -->
<g id="node12" class="node">
<title>Glyph Composition Data</title>
<polygon fill="#c0c0c0" stroke="#000000" points="469.5519,-490.1755 469.5519,-526.1755 637.2419,-526.1755 637.2419,-490.1755 469.5519,-490.1755"/>
<text text-anchor="middle" x="553.3969" y="-503.9755" font-family="Arial" font-size="14.00" fill="#000000">Glyph Composition Data</text>
</g>
<!-- JSON roboCJKproject&#45;&gt;Glyph Composition Data -->
<g id="edge9" class="edge">
<title>JSON roboCJKproject&#45;&gt;Glyph Composition Data</title>
<path fill="none" stroke="#000000" d="M555.6553,-563.1305C555.3236,-555.0583 554.9247,-545.3519 554.5551,-536.3572"/>
<polygon fill="#000000" stroke="#000000" points="558.0481,-536.1137 554.1403,-526.2659 551.054,-536.4012 558.0481,-536.1137"/>
</g>
<!-- Project Settings -->
<g id="node13" class="node">
<title>Project Settings</title>
<polygon fill="#c0c0c0" stroke="#000000" points="783.3857,-490.1755 783.3857,-526.1755 897.4081,-526.1755 897.4081,-490.1755 783.3857,-490.1755"/>
<text text-anchor="middle" x="840.3969" y="-503.9755" font-family="Arial" font-size="14.00" fill="#000000">Project Settings</text>
</g>
<!-- JSON roboCJKproject&#45;&gt;Project Settings -->
<g id="edge10" class="edge">
<title>JSON roboCJKproject&#45;&gt;Project Settings</title>
<path fill="none" stroke="#000000" d="M630.6925,-563.1544C670.4318,-553.385 720.4307,-540.8874 773.2859,-526.9395"/>
<polygon fill="#000000" stroke="#000000" points="774.4152,-530.2612 783.1865,-524.3186 772.6238,-523.4943 774.4152,-530.2612"/>
</g>
<!-- Glyph Composition Data&#45;&gt;Deep Component Editor -->
<g id="edge12" class="edge">
<title>Glyph Composition Data&#45;&gt;Deep Component Editor</title>
<path fill="none" stroke="#000000" d="M539.9566,-480.9216C536.9681,-474.8616 533.8001,-468.4375 530.8125,-462.3794"/>
<polygon fill="#000000" stroke="#000000" points="536.936,-482.7099 544.498,-490.1305 543.2141,-479.6138 536.936,-482.7099"/>
<polygon fill="#000000" stroke="#000000" points="533.8802,-460.6865 526.3182,-453.2659 527.6021,-463.7826 533.8802,-460.6865"/>
</g>
<!-- Glyph Composition Data&#45;&gt;Deep Component Instantiator -->
<g id="edge14" class="edge">
<title>Glyph Composition Data&#45;&gt;Deep Component Instantiator</title>
<path fill="none" stroke="#000000" d="M587.0902,-489.9362C602.0667,-480.5876 619.0599,-468.1223 631.3969,-453.6755 667.0601,-411.9133 691.0466,-351.5095 702.8583,-316.7057"/>
<polygon fill="#000000" stroke="#000000" points="706.1884,-317.783 705.9998,-307.1898 699.5412,-315.5885 706.1884,-317.783"/>
</g>
<!-- Glyph Composition Data&#45;&gt;Get Mini Font / Inject Back -->
<g id="edge13" class="edge">
<title>Glyph Composition Data&#45;&gt;Get Mini Font / Inject Back</title>
<path fill="none" stroke="#000000" d="M587.2054,-483.0886C595.9724,-474.7625 604.3577,-464.755 609.3969,-453.6755 629.6508,-409.1439 639.1163,-385.2904 613.3969,-343.6755 604.9225,-329.9637 591.8381,-319.5863 577.6381,-311.7731"/>
<polygon fill="#000000" stroke="#000000" points="584.6266,-480.698 579.4772,-489.9573 589.2769,-485.9301 584.6266,-480.698"/>
<polygon fill="#000000" stroke="#000000" points="579.1856,-308.6335 568.6837,-307.2327 576.0199,-314.8768 579.1856,-308.6335"/>
</g>
<!-- VarFont 1.9 -->
<g id="node16" class="node">
<title>VarFont 1.9</title>
<polygon fill="#ff8c00" stroke="#000000" points="386.3969,-36 299.4955,-18 386.3969,0 473.2983,-18 386.3969,-36"/>
<text text-anchor="middle" x="386.3969" y="-13.8" font-family="Arial" font-size="14.00" fill="#000000">VarFont 1.9</text>
</g>
<!-- CI Build&#45;&gt;VarFont 1.9 -->
<g id="edge21" class="edge">
<title>CI Build&#45;&gt;VarFont 1.9</title>
<path fill="none" stroke="#000000" d="M386.3969,-71.7574C386.3969,-63.0767 386.3969,-54.2161 386.3969,-46.2581"/>
<polygon fill="#000000" stroke="#000000" points="389.897,-46.0672 386.3969,-36.0673 382.897,-46.0673 389.897,-46.0672"/>
</g>
<!-- Deep Component Instances Data&#45;&gt;CI Build -->
<g id="edge20" class="edge">
<title>Deep Component Instances Data&#45;&gt;CI Build</title>
<path fill="none" stroke="#000000" d="M647.2583,-198.0709C587.8002,-179.5555 496.2546,-151.0478 438.9209,-133.1939"/>
<polygon fill="#000000" stroke="#000000" points="439.9152,-129.8378 429.3268,-130.2063 437.8339,-136.5213 439.9152,-129.8378"/>
</g>
<!-- CJK Space Center -->
<g id="node17" class="node">
<title>CJK Space Center</title>
<polygon fill="#ffd700" stroke="#000000" points="118.4397,-709.1755 118.4397,-745.1755 250.3541,-745.1755 250.3541,-709.1755 118.4397,-709.1755"/>
<text text-anchor="middle" x="184.3969" y="-722.9755" font-family="Arial" font-size="14.00" fill="#000000">CJK Space Center</text>
</g>
<!-- CJK Space Center&#45;&gt;RoboCJK Settings -->
<g id="edge22" class="edge">
<title>CJK Space Center&#45;&gt;RoboCJK Settings</title>
<path fill="none" stroke="#000000" d="M229.431,-704.5031C250.0317,-694.1318 274.1041,-682.0125 293.464,-672.2659"/>
<polygon fill="#000000" stroke="#000000" points="227.5976,-701.5076 220.2396,-709.1305 230.7454,-707.7599 227.5976,-701.5076"/>
</g>
<!-- Balance Handles -->
<g id="node18" class="node">
<title>Balance Handles</title>
<polygon fill="#ffd700" stroke="#000000" points="268.493,-709.1755 268.493,-745.1755 390.3008,-745.1755 390.3008,-709.1755 268.493,-709.1755"/>
<text text-anchor="middle" x="329.3969" y="-722.9755" font-family="Arial" font-size="14.00" fill="#000000">Balance Handles</text>
</g>
<!-- Balance Handles&#45;&gt;RoboCJK Settings -->
<g id="edge23" class="edge">
<title>Balance Handles&#45;&gt;RoboCJK Settings</title>
<path fill="none" stroke="#000000" d="M329.3969,-699.0443C329.3969,-690.0524 329.3969,-680.3442 329.3969,-672.2659"/>
<polygon fill="#000000" stroke="#000000" points="325.897,-699.1305 329.3969,-709.1305 332.897,-699.1306 325.897,-699.1305"/>
</g>
<!-- Power Ruler -->
<g id="node19" class="node">
<title>Power Ruler</title>
<polygon fill="#ffd700" stroke="#000000" points="407.8976,-709.1755 407.8976,-745.1755 500.8962,-745.1755 500.8962,-709.1755 407.8976,-709.1755"/>
<text text-anchor="middle" x="454.3969" y="-722.9755" font-family="Arial" font-size="14.00" fill="#000000">Power Ruler</text>
</g>
<!-- Power Ruler&#45;&gt;RoboCJK Settings -->
<g id="edge24" class="edge">
<title>Power Ruler&#45;&gt;RoboCJK Settings</title>
<path fill="none" stroke="#000000" d="M414.6115,-703.9408C397.0687,-693.6958 376.7624,-681.8369 360.3735,-672.2659"/>
<polygon fill="#000000" stroke="#000000" points="413.0977,-707.1098 423.498,-709.1305 416.6278,-701.0651 413.0977,-707.1098"/>
</g>
<!-- Interpolaviour -->
<g id="node20" class="node">
<title>Interpolaviour</title>
<polygon fill="#ffd700" stroke="#000000" points="0,-709.1755 0,-745.1755 100.7938,-745.1755 100.7938,-709.1755 0,-709.1755"/>
<text text-anchor="middle" x="50.3969" y="-722.9755" font-family="Arial" font-size="14.00" fill="#000000">Interpolaviour</text>
</g>
<!-- Interpolaviour&#45;&gt;RoboCJK Settings -->
<g id="edge25" class="edge">
<title>Interpolaviour&#45;&gt;RoboCJK Settings</title>
<path fill="none" stroke="#000000" d="M110.7388,-708.3686C167.5342,-692.5989 222.6288,-679.075 264.1453,-669.2368"/>
<polygon fill="#000000" stroke="#000000" points="109.5557,-705.065 100.867,-711.1277 111.4401,-711.8066 109.5557,-705.065"/>
</g>
<!-- Design Frame -->
<g id="node21" class="node">
<title>Design Frame</title>
<polygon fill="#ffd700" stroke="#000000" points="654.4516,-563.1755 654.4516,-599.1755 758.3422,-599.1755 758.3422,-563.1755 654.4516,-563.1755"/>
<text text-anchor="middle" x="706.3969" y="-576.9755" font-family="Arial" font-size="14.00" fill="#000000">Design Frame</text>
</g>
<!-- Design Frame&#45;&gt;Project Settings -->
<g id="edge26" class="edge">
<title>Design Frame&#45;&gt;Project Settings</title>
<path fill="none" stroke="#000000" d="M748.53,-558.2224C767.453,-547.9136 789.4599,-535.9247 807.1899,-526.2659"/>
<polygon fill="#000000" stroke="#000000" points="746.6276,-555.273 739.5205,-563.1305 749.9764,-561.4201 746.6276,-555.273"/>
</g>
<!-- Reference Viewer -->
<g id="node22" class="node">
<title>Reference Viewer</title>
<polygon fill="#ffd700" stroke="#000000" points="776.7784,-563.1755 776.7784,-599.1755 904.0154,-599.1755 904.0154,-563.1755 776.7784,-563.1755"/>
<text text-anchor="middle" x="840.3969" y="-576.9755" font-family="Arial" font-size="14.00" fill="#000000">Reference Viewer</text>
</g>
<!-- Reference Viewer&#45;&gt;Project Settings -->
<g id="edge27" class="edge">
<title>Reference Viewer&#45;&gt;Project Settings</title>
<path fill="none" stroke="#000000" d="M840.3969,-553.0443C840.3969,-544.0524 840.3969,-534.3442 840.3969,-526.2659"/>
<polygon fill="#000000" stroke="#000000" points="836.897,-553.1305 840.3969,-563.1305 843.897,-553.1306 836.897,-553.1305"/>
</g>
<!-- Calendar -->
<g id="node23" class="node">
<title>Calendar</title>
<polygon fill="#ffd700" stroke="#000000" points="922.0035,-563.1755 922.0035,-599.1755 994.7903,-599.1755 994.7903,-563.1755 922.0035,-563.1755"/>
<text text-anchor="middle" x="958.3969" y="-576.9755" font-family="Arial" font-size="14.00" fill="#000000">Calendar</text>
</g>
<!-- Calendar&#45;&gt;Project Settings -->
<g id="edge28" class="edge">
<title>Calendar&#45;&gt;Project Settings</title>
<path fill="none" stroke="#000000" d="M920.3831,-557.6585C903.9277,-547.4784 884.968,-535.7491 869.6389,-526.2659"/>
<polygon fill="#000000" stroke="#000000" points="918.8828,-560.8459 929.2284,-563.1305 922.5655,-554.893 918.8828,-560.8459"/>
</g>
</g>
</svg>
