<?xml version="1.0" encoding="UTF-8" standalone="no"?>
<!DOCTYPE svg PUBLIC "-//W3C//DTD SVG 1.1//EN"
 "http://www.w3.org/Graphics/SVG/1.1/DTD/svg11.dtd">
<!-- Generated by graphviz version 2.40.1 (20161225.0304)
 -->
<!-- Title: %0 Pages: 1 -->
<svg width="1144pt" height="779pt"
 viewBox="0.00 0.00 1144.39 778.76" xmlns="http://www.w3.org/2000/svg" xmlns:xlink="http://www.w3.org/1999/xlink">
<g id="graph0" class="graph" transform="scale(1 1) rotate(0) translate(4 774.7642)">
<title>%0</title>
<polygon fill="#ffffff" stroke="transparent" points="-4,4 -4,-774.7642 1140.3916,-774.7642 1140.3916,4 -4,4"/>
<!-- RoboCJK UI -->
<g id="node1" class="node">
<title>RoboCJK UI</title>
<polygon fill="none" stroke="#000000" points="802.007,-734.2642 802.007,-770.2642 901.993,-770.2642 901.993,-734.2642 802.007,-734.2642"/>
<text text-anchor="middle" x="852" y="-748.0642" font-family="Courier,monospace" font-size="14.00" fill="#000000">RoboCJK UI</text>
</g>
<!-- Project Editor -->
<g id="node2" class="node">
<title>Project Editor</title>
<polygon fill="#ffc0cb" stroke="#000000" points="597.2098,-661.2642 597.2098,-697.2642 730.7902,-697.2642 730.7902,-661.2642 597.2098,-661.2642"/>
<text text-anchor="middle" x="664" y="-675.0642" font-family="Courier,monospace" font-size="14.00" fill="#000000">Project Editor</text>
</g>
<!-- RoboCJK UI&#45;&gt;Project Editor -->
<g id="edge1" class="edge">
<title>RoboCJK UI&#45;&gt;Project Editor</title>
<path fill="none" stroke="#000000" d="M805.5281,-734.2193C779.6552,-724.1729 747.2631,-711.5951 719.9994,-701.0087"/>
<polygon fill="#000000" stroke="#000000" points="721.1777,-697.7117 710.5889,-697.3546 718.6439,-704.237 721.1777,-697.7117"/>
</g>
<!-- Settings -->
<g id="node3" class="node">
<title>Settings</title>
<polygon fill="#ffc0cb" stroke="#000000" points="918.4056,-661.2642 918.4056,-697.2642 1001.5944,-697.2642 1001.5944,-661.2642 918.4056,-661.2642"/>
<text text-anchor="middle" x="960" y="-675.0642" font-family="Courier,monospace" font-size="14.00" fill="#000000">Settings</text>
</g>
<!-- RoboCJK UI&#45;&gt;Settings -->
<g id="edge2" class="edge">
<title>RoboCJK UI&#45;&gt;Settings</title>
<path fill="none" stroke="#000000" d="M878.6966,-734.2193C892.5862,-724.8309 909.7463,-713.232 924.7164,-703.1134"/>
<polygon fill="#000000" stroke="#000000" points="926.9112,-705.8544 933.2362,-697.3546 922.9912,-700.0549 926.9112,-705.8544"/>
</g>
<!-- Space Center -->
<g id="node4" class="node">
<title>Space Center</title>
<polygon fill="#ffc0cb" stroke="#000000" points="1019.6084,-661.2642 1019.6084,-697.2642 1136.3916,-697.2642 1136.3916,-661.2642 1019.6084,-661.2642"/>
<text text-anchor="middle" x="1078" y="-675.0642" font-family="Courier,monospace" font-size="14.00" fill="#000000">Space Center</text>
</g>
<!-- RoboCJK UI&#45;&gt;Space Center -->
<g id="edge3" class="edge">
<title>RoboCJK UI&#45;&gt;Space Center</title>
<path fill="none" stroke="#000000" d="M902.1567,-736.0632C934.6072,-725.5814 977.1961,-711.8248 1012.3325,-700.4754"/>
<polygon fill="#000000" stroke="#000000" points="1013.5904,-703.7472 1022.0305,-697.3429 1011.4388,-697.0861 1013.5904,-703.7472"/>
</g>
<!-- Variable Component Editor -->
<g id="node5" class="node">
<title>Variable Component Editor</title>
<polygon fill="#ffc0cb" stroke="#000000" points="598.0175,-442.2642 598.0175,-478.2642 823.9825,-478.2642 823.9825,-442.2642 598.0175,-442.2642"/>
<text text-anchor="middle" x="711" y="-456.0642" font-family="Courier,monospace" font-size="14.00" fill="#000000">Variable Component Editor</text>
</g>
<!-- RoboCJK UI&#45;&gt;Variable Component Editor -->
<g id="edge4" class="edge">
<title>RoboCJK UI&#45;&gt;Variable Component Editor</title>
<path fill="none" stroke="#000000" d="M852.0564,-734.0413C851.3156,-691.6111 844.3251,-584.5321 795,-514.7642 789.0924,-506.4082 770.8519,-494.2109 752.8719,-483.4728"/>
<polygon fill="#000000" stroke="#000000" points="754.5182,-480.3809 744.1214,-478.3419 750.9774,-486.4194 754.5182,-480.3809"/>
</g>
<!-- Variable Component Selector -->
<g id="node6" class="node">
<title>Variable Component Selector</title>
<polygon fill="#ffc0cb" stroke="#000000" points="160.6189,-296.2642 160.6189,-332.2642 403.3811,-332.2642 403.3811,-296.2642 160.6189,-296.2642"/>
<text text-anchor="middle" x="282" y="-310.0642" font-family="Courier,monospace" font-size="14.00" fill="#000000">Variable Component Selector</text>
</g>
<!-- RoboCJK UI&#45;&gt;Variable Component Selector -->
<g id="edge5" class="edge">
<title>RoboCJK UI&#45;&gt;Variable Component Selector</title>
<path fill="none" stroke="#000000" d="M801.8843,-749.0179C619.2531,-736.5296 0,-688.1477 0,-606.2642 0,-606.2642 0,-606.2642 0,-460.2642 0,-386.5295 76.9706,-349.989 150.4865,-331.9046"/>
<polygon fill="#000000" stroke="#000000" points="151.4294,-335.2783 160.3605,-329.5786 149.8244,-328.4648 151.4294,-335.2783"/>
</g>
<!-- Get Mini Font / Inject Back -->
<g id="node7" class="node">
<title>Get Mini Font / Inject Back</title>
<polygon fill="#ffc0cb" stroke="#000000" points="458.6189,-296.2642 458.6189,-332.2642 701.3811,-332.2642 701.3811,-296.2642 458.6189,-296.2642"/>
<text text-anchor="middle" x="580" y="-310.0642" font-family="Courier,monospace" font-size="14.00" fill="#000000">Get Mini Font / Inject Back</text>
</g>
<!-- RoboCJK UI&#45;&gt;Get Mini Font / Inject Back -->
<g id="edge6" class="edge">
<title>RoboCJK UI&#45;&gt;Get Mini Font / Inject Back</title>
<path fill="none" stroke="#000000" d="M859.8736,-734.2199C871.0041,-707.0262 890,-653.6712 890,-606.2642 890,-606.2642 890,-606.2642 890,-460.2642 890,-398.0289 839.0119,-397.8661 784,-368.7642 756.0032,-353.9536 723.6675,-342.9323 693.1107,-334.8295"/>
<polygon fill="#000000" stroke="#000000" points="693.8162,-331.3972 683.2599,-332.3002 692.0753,-338.1772 693.8162,-331.3972"/>
</g>
<!-- .roboCJKproject -->
<g id="node11" class="node">
<title>.roboCJKproject</title>
<polygon fill="none" stroke="#000000" points="538.0105,-588.2642 538.0105,-624.2642 679.9895,-624.2642 679.9895,-588.2642 538.0105,-588.2642"/>
<text text-anchor="middle" x="609" y="-602.0642" font-family="Courier,monospace" font-size="14.00" fill="#000000">.roboCJKproject</text>
</g>
<!-- Project Editor&#45;&gt;.roboCJKproject -->
<g id="edge10" class="edge">
<title>Project Editor&#45;&gt;.roboCJKproject</title>
<path fill="none" stroke="#000000" d="M650.4045,-661.2193C643.8599,-652.5329 635.8896,-641.9541 628.696,-632.4062"/>
<polygon fill="#000000" stroke="#000000" points="631.4427,-630.2353 622.6297,-624.3546 625.8518,-634.4476 631.4427,-630.2353"/>
</g>
<!-- UFO&#45;Masters -->
<g id="node8" class="node">
<title>UFO&#45;Masters</title>
<polygon fill="#add8e6" stroke="#000000" points="666.8077,-369.2642 666.8077,-405.2642 775.1923,-405.2642 775.1923,-369.2642 666.8077,-369.2642"/>
<text text-anchor="middle" x="721" y="-383.0642" font-family="Courier,monospace" font-size="14.00" fill="#000000">UFO&#45;Masters</text>
</g>
<!-- Variable Component Editor&#45;&gt;UFO&#45;Masters -->
<g id="edge17" class="edge">
<title>Variable Component Editor&#45;&gt;UFO&#45;Masters</title>
<path fill="none" stroke="#000000" d="M713.4719,-442.2193C714.5777,-434.1471 715.9073,-424.4406 717.1395,-415.446"/>
<polygon fill="#000000" stroke="#000000" points="720.6322,-415.7371 718.5219,-405.3546 713.697,-414.787 720.6322,-415.7371"/>
</g>
<!-- Variable Component Glyphs -->
<g id="node10" class="node">
<title>Variable Component Glyphs</title>
<polygon fill="#add8e6" stroke="#000000" points="316.0175,-369.2642 316.0175,-405.2642 541.9825,-405.2642 541.9825,-369.2642 316.0175,-369.2642"/>
<text text-anchor="middle" x="429" y="-383.0642" font-family="Courier,monospace" font-size="14.00" fill="#000000">Variable Component Glyphs</text>
</g>
<!-- Variable Component Editor&#45;&gt;Variable Component Glyphs -->
<g id="edge9" class="edge">
<title>Variable Component Editor&#45;&gt;Variable Component Glyphs</title>
<path fill="none" stroke="#000000" d="M641.2921,-442.2193C601.127,-431.8219 550.488,-418.7133 508.742,-407.9067"/>
<polygon fill="#000000" stroke="#000000" points="509.4413,-404.4724 498.8833,-405.3546 507.6871,-411.249 509.4413,-404.4724"/>
</g>
<!-- UFO&#45;Subsetted -->
<g id="node9" class="node">
<title>UFO&#45;Subsetted</title>
<polygon fill="#add8e6" stroke="#000000" points="488.4091,-223.2642 488.4091,-259.2642 613.5909,-259.2642 613.5909,-223.2642 488.4091,-223.2642"/>
<text text-anchor="middle" x="551" y="-237.0642" font-family="Courier,monospace" font-size="14.00" fill="#000000">UFO&#45;Subsetted</text>
</g>
<!-- Variable Component Selector&#45;&gt;UFO&#45;Subsetted -->
<g id="edge22" class="edge">
<title>Variable Component Selector&#45;&gt;UFO&#45;Subsetted</title>
<path fill="none" stroke="#000000" d="M358.1802,-293.5908C399.216,-282.4547 449.2341,-268.881 488.0429,-258.3492"/>
<polygon fill="#000000" stroke="#000000" points="357.2287,-290.2224 348.4944,-296.2193 359.062,-296.978 357.2287,-290.2224"/>
</g>
<!-- Variable Component Instances Data -->
<g id="node18" class="node">
<title>Variable Component Instances Data</title>
<polygon fill="#40e0d0" stroke="#000000" points="109.4231,-223.2642 109.4231,-259.2642 402.5769,-259.2642 402.5769,-223.2642 109.4231,-223.2642"/>
<text text-anchor="middle" x="256" y="-237.0642" font-family="Courier,monospace" font-size="14.00" fill="#000000">Variable Component Instances Data</text>
</g>
<!-- Variable Component Selector&#45;&gt;Variable Component Instances Data -->
<g id="edge25" class="edge">
<title>Variable Component Selector&#45;&gt;Variable Component Instances Data</title>
<path fill="none" stroke="#000000" d="M275.573,-296.2193C272.6355,-287.9716 269.0903,-278.0178 265.8288,-268.8604"/>
<polygon fill="#000000" stroke="#000000" points="269.0955,-267.6006 262.4431,-259.3546 262.5013,-269.9493 269.0955,-267.6006"/>
</g>
<!-- Get Mini Font / Inject Back&#45;&gt;UFO&#45;Subsetted -->
<g id="edge8" class="edge">
<title>Get Mini Font / Inject Back&#45;&gt;UFO&#45;Subsetted</title>
<path fill="none" stroke="#000000" d="M569.0572,-286.7185C566.7274,-280.8539 564.267,-274.6606 561.9375,-268.7965"/>
<polygon fill="#000000" stroke="#000000" points="565.8867,-288.218 572.8315,-296.2193 572.3922,-285.6336 565.8867,-288.218"/>
<polygon fill="#000000" stroke="#000000" points="565.1313,-267.3559 558.1866,-259.3546 558.6259,-269.9403 565.1313,-267.3559"/>
</g>
<!-- UFO&#45;Masters&#45;&gt;Get Mini Font / Inject Back -->
<g id="edge7" class="edge">
<title>UFO&#45;Masters&#45;&gt;Get Mini Font / Inject Back</title>
<path fill="none" stroke="#000000" d="M677.2082,-364.5919C660.3059,-355.841 641.0001,-345.8459 624.0715,-337.0814"/>
<polygon fill="#000000" stroke="#000000" points="675.6564,-367.7297 686.1461,-369.2193 678.8748,-361.5134 675.6564,-367.7297"/>
<polygon fill="#000000" stroke="#000000" points="625.4313,-333.8442 614.9417,-332.3546 622.2129,-340.0604 625.4313,-333.8442"/>
</g>
<!-- CI Build -->
<g id="node17" class="node">
<title>CI Build</title>
<ellipse fill="none" stroke="#000000" cx="431" cy="-129.3821" rx="57.2645" ry="57.2645"/>
<text text-anchor="middle" x="431" y="-125.1821" font-family="Courier,monospace" font-size="14.00" fill="#000000">CI Build</text>
</g>
<!-- UFO&#45;Masters&#45;&gt;CI Build -->
<g id="edge23" class="edge">
<title>UFO&#45;Masters&#45;&gt;CI Build</title>
<path fill="none" stroke="#000000" d="M722.599,-369.2468C723.4926,-349.9015 722.4915,-318.8398 710,-295.7642 666.0505,-214.5757 564.2259,-169.1862 496.5135,-147.01"/>
<polygon fill="#000000" stroke="#000000" points="497.3723,-143.6102 486.7816,-143.905 495.2446,-150.279 497.3723,-143.6102"/>
</g>
<!-- Variable Component Glyphs&#45;&gt;Variable Component Selector -->
<g id="edge21" class="edge">
<title>Variable Component Glyphs&#45;&gt;Variable Component Selector</title>
<path fill="none" stroke="#000000" d="M392.6629,-369.2193C372.9625,-359.4361 348.4284,-347.2525 327.4705,-336.8448"/>
<polygon fill="#000000" stroke="#000000" points="328.9417,-333.6676 318.4285,-332.3546 325.8282,-339.9371 328.9417,-333.6676"/>
</g>
<!-- Variable Component Glyphs&#45;&gt;CI Build -->
<g id="edge24" class="edge">
<title>Variable Component Glyphs&#45;&gt;CI Build</title>
<path fill="none" stroke="#000000" d="M429.1406,-369.1305C429.4137,-333.9264 430.028,-254.7158 430.476,-196.9451"/>
<polygon fill="#000000" stroke="#000000" points="433.9771,-196.8122 430.5548,-186.7853 426.9773,-196.7578 433.9771,-196.8122"/>
</g>
<!-- .roboCJKproject&#45;&gt;UFO&#45;Masters -->
<g id="edge12" class="edge">
<title>.roboCJKproject&#45;&gt;UFO&#45;Masters</title>
<path fill="none" stroke="#000000" d="M680.1772,-591.4844C724.7957,-581.0854 777.1277,-566.453 795,-551.7642 823.2578,-528.5398 824.3064,-514.2931 833,-478.7642 836.9085,-462.791 841.7206,-455.7059 833,-441.7642 822.0127,-424.1987 803.5613,-412.1474 784.7719,-403.9433"/>
<polygon fill="#000000" stroke="#000000" points="785.8373,-400.5991 775.2539,-400.1064 783.2201,-407.0915 785.8373,-400.5991"/>
</g>
<!-- Character&#45;Sets -->
<g id="node12" class="node">
<title>Character&#45;Sets</title>
<polygon fill="#c0c0c0" stroke="#000000" points="28.2098,-515.2642 28.2098,-551.2642 161.7902,-551.2642 161.7902,-515.2642 28.2098,-515.2642"/>
<text text-anchor="middle" x="95" y="-529.0642" font-family="Courier,monospace" font-size="14.00" fill="#000000">Character&#45;Sets</text>
</g>
<!-- .roboCJKproject&#45;&gt;Character&#45;Sets -->
<g id="edge11" class="edge">
<title>.roboCJKproject&#45;&gt;Character&#45;Sets</title>
<path fill="none" stroke="#000000" d="M537.6853,-599.9333C452.8067,-591.8284 306.6737,-576.0783 172.1253,-551.8617"/>
<polygon fill="#000000" stroke="#000000" points="172.5121,-548.3747 162.047,-550.0277 171.2588,-555.2616 172.5121,-548.3747"/>
</g>
<!-- Glyph Composition Data -->
<g id="node13" class="node">
<title>Glyph Composition Data</title>
<polygon fill="#c0c0c0" stroke="#000000" points="314.6154,-515.2642 314.6154,-551.2642 515.3846,-551.2642 515.3846,-515.2642 314.6154,-515.2642"/>
<text text-anchor="middle" x="415" y="-529.0642" font-family="Courier,monospace" font-size="14.00" fill="#000000">Glyph Composition Data</text>
</g>
<!-- .roboCJKproject&#45;&gt;Glyph Composition Data -->
<g id="edge13" class="edge">
<title>.roboCJKproject&#45;&gt;Glyph Composition Data</title>
<path fill="none" stroke="#000000" d="M561.0449,-588.2193C534.3463,-578.1729 500.9205,-565.5951 472.7866,-555.0087"/>
<polygon fill="#000000" stroke="#000000" points="473.6677,-551.6007 463.0758,-551.3546 471.2024,-558.1522 473.6677,-551.6007"/>
</g>
<!-- Design Frame -->
<g id="node14" class="node">
<title>Design Frame</title>
<polygon fill="#c0c0c0" stroke="#000000" points="179.6084,-515.2642 179.6084,-551.2642 296.3916,-551.2642 296.3916,-515.2642 179.6084,-515.2642"/>
<text text-anchor="middle" x="238" y="-529.0642" font-family="Courier,monospace" font-size="14.00" fill="#000000">Design Frame</text>
</g>
<!-- .roboCJKproject&#45;&gt;Design Frame -->
<g id="edge14" class="edge">
<title>.roboCJKproject&#45;&gt;Design Frame</title>
<path fill="none" stroke="#000000" d="M537.9341,-595.2896C478.5909,-585.711 391.6061,-570.712 306.3694,-551.7463"/>
<polygon fill="#000000" stroke="#000000" points="307.0477,-548.3116 296.5239,-549.536 305.5143,-555.1416 307.0477,-548.3116"/>
</g>
<!-- Reference Viewer -->
<g id="node15" class="node">
<title>Reference Viewer</title>
<polygon fill="#c0c0c0" stroke="#000000" points="533.8112,-515.2642 533.8112,-551.2642 684.1888,-551.2642 684.1888,-515.2642 533.8112,-515.2642"/>
<text text-anchor="middle" x="609" y="-529.0642" font-family="Courier,monospace" font-size="14.00" fill="#000000">Reference Viewer</text>
</g>
<!-- .roboCJKproject&#45;&gt;Reference Viewer -->
<g id="edge15" class="edge">
<title>.roboCJKproject&#45;&gt;Reference Viewer</title>
<path fill="none" stroke="#000000" d="M609,-588.2193C609,-580.1471 609,-570.4406 609,-561.446"/>
<polygon fill="#000000" stroke="#000000" points="612.5001,-561.3546 609,-551.3546 605.5001,-561.3546 612.5001,-561.3546"/>
</g>
<!-- Calendar -->
<g id="node16" class="node">
<title>Calendar</title>
<polygon fill="#c0c0c0" stroke="#000000" points="702.4056,-515.2642 702.4056,-551.2642 785.5944,-551.2642 785.5944,-515.2642 702.4056,-515.2642"/>
<text text-anchor="middle" x="744" y="-529.0642" font-family="Courier,monospace" font-size="14.00" fill="#000000">Calendar</text>
</g>
<!-- .roboCJKproject&#45;&gt;Calendar -->
<g id="edge16" class="edge">
<title>.roboCJKproject&#45;&gt;Calendar</title>
<path fill="none" stroke="#000000" d="M642.3708,-588.2193C660.3007,-578.5239 682.5905,-566.4708 701.7227,-556.1253"/>
<polygon fill="#000000" stroke="#000000" points="703.4137,-559.1899 710.5452,-551.3546 700.0841,-553.0325 703.4137,-559.1899"/>
</g>
<!-- Glyph Composition Data&#45;&gt;Variable Component Editor -->
<g id="edge18" class="edge">
<title>Glyph Composition Data&#45;&gt;Variable Component Editor</title>
<path fill="none" stroke="#000000" d="M497.9745,-512.8009C538.6059,-502.7804 587.3986,-490.747 628.0294,-480.7266"/>
<polygon fill="#000000" stroke="#000000" points="497.0396,-509.4266 488.1686,-515.2193 498.7157,-516.2229 497.0396,-509.4266"/>
<polygon fill="#000000" stroke="#000000" points="629.0332,-484.084 637.9042,-478.2912 627.357,-477.2876 629.0332,-484.084"/>
</g>
<!-- Glyph Composition Data&#45;&gt;Variable Component Selector -->
<g id="edge20" class="edge">
<title>Glyph Composition Data&#45;&gt;Variable Component Selector</title>
<path fill="none" stroke="#000000" d="M394.8325,-514.946C370.5379,-491.7988 330.1157,-449.6551 307,-405.7642 296.4951,-385.8181 290.0763,-361.0395 286.3774,-342.3004"/>
<polygon fill="#000000" stroke="#000000" points="289.7928,-341.5201 284.5486,-332.3142 282.9073,-342.7811 289.7928,-341.5201"/>
</g>
<!-- Glyph Composition Data&#45;&gt;Get Mini Font / Inject Back -->
<g id="edge19" class="edge">
<title>Glyph Composition Data&#45;&gt;Get Mini Font / Inject Back</title>
<path fill="none" stroke="#000000" d="M449.6267,-508.969C480.3392,-485.7385 524.3463,-448.0625 551,-405.7642 563.2183,-386.3743 570.6784,-361.4096 574.9664,-342.4563"/>
<polygon fill="#000000" stroke="#000000" points="447.2779,-506.354 441.3423,-515.13 451.4552,-511.971 447.2779,-506.354"/>
<polygon fill="#000000" stroke="#000000" points="578.4023,-343.1246 577.0323,-332.6188 571.5518,-341.6859 578.4023,-343.1246"/>
</g>
<!-- VarFont 1.9 -->
<g id="node19" class="node">
<title>VarFont 1.9</title>
<polygon fill="#ffff00" stroke="#000000" points="202,-36 96.0414,-18 202,0 307.9586,-18 202,-36"/>
<text text-anchor="middle" x="202" y="-13.8" font-family="Courier,monospace" font-size="14.00" fill="#000000">VarFont 1.9</text>
</g>
<!-- CI Build&#45;&gt;VarFont 1.9 -->
<g id="edge27" class="edge">
<title>CI Build&#45;&gt;VarFont 1.9</title>
<path fill="none" stroke="#000000" d="M379.3224,-104.2469C336.5155,-83.4263 276.7413,-54.353 238.7022,-35.8514"/>
<polygon fill="#000000" stroke="#000000" points="240.0468,-32.6134 229.5231,-31.3868 236.985,-38.9083 240.0468,-32.6134"/>
</g>
<!-- VarFont 1.8 -->
<g id="node20" class="node">
<title>VarFont 1.8</title>
<polygon fill="#ffff00" stroke="#000000" points="431,-36 325.0414,-18 431,0 536.9586,-18 431,-36"/>
<text text-anchor="middle" x="431" y="-13.8" font-family="Courier,monospace" font-size="14.00" fill="#000000">VarFont 1.8</text>
</g>
<!-- CI Build&#45;&gt;VarFont 1.8 -->
<g id="edge28" class="edge">
<title>CI Build&#45;&gt;VarFont 1.8</title>
<path fill="none" stroke="#000000" d="M431,-71.7335C431,-62.829 431,-53.9913 431,-46.1325"/>
<polygon fill="#000000" stroke="#000000" points="434.5001,-46.1084 431,-36.1084 427.5001,-46.1085 434.5001,-46.1084"/>
</g>
<!-- Static Fonts -->
<g id="node21" class="node">
<title>Static Fonts</title>
<polygon fill="#ffff00" stroke="#000000" points="669,-36 555.1562,-18 669,0 782.8438,-18 669,-36"/>
<text text-anchor="middle" x="669" y="-13.8" font-family="Courier,monospace" font-size="14.00" fill="#000000">Static Fonts</text>
</g>
<!-- CI Build&#45;&gt;Static Fonts -->
<g id="edge29" class="edge">
<title>CI Build&#45;&gt;Static Fonts</title>
<path fill="none" stroke="#000000" d="M483.2301,-104.9388C527.821,-84.0706 590.9053,-54.5477 630.8781,-35.8407"/>
<polygon fill="#000000" stroke="#000000" points="632.4511,-38.969 640.0248,-31.5602 629.484,-32.6289 632.4511,-38.969"/>
</g>
<!-- Variable Component Instances Data&#45;&gt;CI Build -->
<g id="edge26" class="edge">
<title>Variable Component Instances Data&#45;&gt;CI Build</title>
<path fill="none" stroke="#000000" d="M284.5063,-223.0394C308.5714,-207.654 343.7804,-185.1439 373.6493,-166.0479"/>
<polygon fill="#000000" stroke="#000000" points="375.7827,-168.8382 382.3227,-160.5028 372.0121,-162.9405 375.7827,-168.8382"/>
</g>
</g>
</svg>
