<?xml version="1.0" encoding="UTF-8" standalone="no"?>
<!DOCTYPE svg PUBLIC "-//W3C//DTD SVG 1.1//EN"
 "http://www.w3.org/Graphics/SVG/1.1/DTD/svg11.dtd">
<!-- Generated by graphviz version 2.40.1 (20161225.0304)
 -->
<!-- Title: %0 Pages: 1 -->
<svg width="1115pt" height="264pt"
 viewBox="0.00 0.00 1115.27 264.00" xmlns="http://www.w3.org/2000/svg" xmlns:xlink="http://www.w3.org/1999/xlink">
<g id="graph0" class="graph" transform="scale(1 1) rotate(0) translate(4 260)">
<title>%0</title>
<polygon fill="#ffffff" stroke="transparent" points="-4,4 -4,-260 1111.2683,-260 1111.2683,4 -4,4"/>
<!-- Project Editor -->
<g id="node1" class="node">
<title>Project Editor</title>
<polygon fill="none" stroke="#000000" points="331.1259,-219.5 331.1259,-255.5 425.2739,-255.5 425.2739,-219.5 331.1259,-219.5"/>
<text text-anchor="middle" x="378.1999" y="-233.3" font-family="Times,serif" font-size="14.00" fill="#000000">Project Editor</text>
</g>
<!-- .roboCJKproject -->
<g id="node4" class="node">
<title>.roboCJKproject</title>
<polygon fill="none" stroke="#000000" points="323.7402,-146.5 323.7402,-182.5 432.6596,-182.5 432.6596,-146.5 323.7402,-146.5"/>
<text text-anchor="middle" x="378.1999" y="-160.3" font-family="Times,serif" font-size="14.00" fill="#000000">.roboCJKproject</text>
</g>
<!-- Project Editor&#45;&gt;.roboCJKproject -->
<g id="edge1" class="edge">
<title>Project Editor&#45;&gt;.roboCJKproject</title>
<path fill="none" stroke="#000000" d="M378.1999,-219.4551C378.1999,-211.3828 378.1999,-201.6764 378.1999,-192.6817"/>
<polygon fill="#000000" stroke="#000000" points="381.7,-192.5903 378.1999,-182.5904 374.7,-192.5904 381.7,-192.5903"/>
</g>
<!-- Settings -->
<g id="node2" class="node">
<title>Settings</title>
<polygon fill="none" stroke="#000000" points="735.6431,-73.5 735.6431,-109.5 796.7567,-109.5 796.7567,-73.5 735.6431,-73.5"/>
<text text-anchor="middle" x="766.1999" y="-87.3" font-family="Times,serif" font-size="14.00" fill="#000000">Settings</text>
</g>
<!-- WIP -->
<g id="node14" class="node">
<title>WIP</title>
<polygon fill="none" stroke="#000000" stroke-dasharray="1,5" points="739.1999,-.5 739.1999,-36.5 793.1999,-36.5 793.1999,-.5 739.1999,-.5"/>
<text text-anchor="middle" x="766.0288" y="-14.3" font-family="Times,serif" font-size="14.00" fill="#000000">WIP</text>
</g>
<!-- Settings&#45;&gt;WIP -->
<g id="edge10" class="edge">
<title>Settings&#45;&gt;WIP</title>
<path fill="none" stroke="#000000" d="M766.1999,-73.4551C766.1999,-65.3828 766.1999,-55.6764 766.1999,-46.6817"/>
<polygon fill="#000000" stroke="#000000" points="769.7,-46.5903 766.1999,-36.5904 762.7,-46.5904 769.7,-46.5903"/>
</g>
<!-- Space Center -->
<g id="node3" class="node">
<title>Space Center</title>
<polygon fill="none" stroke="#000000" points="815.0782,-73.5 815.0782,-109.5 905.3216,-109.5 905.3216,-73.5 815.0782,-73.5"/>
<text text-anchor="middle" x="860.1999" y="-87.3" font-family="Times,serif" font-size="14.00" fill="#000000">Space Center</text>
</g>
<!-- Space Center&#45;&gt;WIP -->
<g id="edge11" class="edge">
<title>Space Center&#45;&gt;WIP</title>
<path fill="none" stroke="#000000" d="M836.9639,-73.4551C825.1008,-64.2422 810.4966,-52.9006 797.6423,-42.918"/>
<polygon fill="#000000" stroke="#000000" points="799.5392,-39.9597 789.4943,-36.5904 795.2456,-45.4883 799.5392,-39.9597"/>
</g>
<!-- Character&#45;Sets -->
<g id="node5" class="node">
<title>Character&#45;Sets</title>
<polygon fill="#c0c0c0" stroke="#c0c0c0" points="0,-73.5 0,-109.5 98.3998,-109.5 98.3998,-73.5 0,-73.5"/>
<text text-anchor="middle" x="49.1999" y="-87.3" font-family="Times,serif" font-size="14.00" fill="#000000">Character&#45;Sets</text>
</g>
<!-- .roboCJKproject&#45;&gt;Character&#45;Sets -->
<g id="edge2" class="edge">
<title>.roboCJKproject&#45;&gt;Character&#45;Sets</title>
<path fill="none" stroke="#000000" d="M323.5188,-155.1977C270.8456,-145.8471 188.7931,-130.2597 108.4533,-109.9266"/>
<polygon fill="#000000" stroke="#000000" points="109.2218,-106.5105 98.6664,-107.4235 107.4873,-113.2922 109.2218,-106.5105"/>
</g>
<!-- UFO&#45;Masters -->
<g id="node6" class="node">
<title>UFO&#45;Masters</title>
<polygon fill="#c0c0c0" stroke="#c0c0c0" points="116.7146,-73.5 116.7146,-109.5 209.6852,-109.5 209.6852,-73.5 116.7146,-73.5"/>
<text text-anchor="middle" x="163.1999" y="-87.3" font-family="Times,serif" font-size="14.00" fill="#000000">UFO&#45;Masters</text>
</g>
<!-- .roboCJKproject&#45;&gt;UFO&#45;Masters -->
<g id="edge3" class="edge">
<title>.roboCJKproject&#45;&gt;UFO&#45;Masters</title>
<path fill="none" stroke="#000000" d="M325.0538,-146.4551C293.049,-135.5883 252.3216,-121.7599 219.7284,-110.6934"/>
<polygon fill="#000000" stroke="#000000" points="220.4875,-107.2549 209.8931,-107.354 218.2369,-113.8833 220.4875,-107.2549"/>
</g>
<!-- Glyph Composition Data -->
<g id="node7" class="node">
<title>Glyph Composition Data</title>
<polygon fill="#c0c0c0" stroke="#c0c0c0" points="227.8163,-73.5 227.8163,-109.5 384.5835,-109.5 384.5835,-73.5 227.8163,-73.5"/>
<text text-anchor="middle" x="306.1999" y="-87.3" font-family="Times,serif" font-size="14.00" fill="#000000">Glyph Composition Data</text>
</g>
<!-- .roboCJKproject&#45;&gt;Glyph Composition Data -->
<g id="edge4" class="edge">
<title>.roboCJKproject&#45;&gt;Glyph Composition Data</title>
<path fill="none" stroke="#000000" d="M360.4021,-146.4551C351.5751,-137.5054 340.7668,-126.547 331.1306,-116.7769"/>
<polygon fill="#000000" stroke="#000000" points="333.5565,-114.2523 324.0424,-109.5904 328.5727,-119.1678 333.5565,-114.2523"/>
</g>
<!-- Design Frame -->
<g id="node8" class="node">
<title>Design Frame</title>
<polygon fill="#c0c0c0" stroke="#c0c0c0" points="402.7402,-73.5 402.7402,-109.5 497.6596,-109.5 497.6596,-73.5 402.7402,-73.5"/>
<text text-anchor="middle" x="450.1999" y="-87.3" font-family="Times,serif" font-size="14.00" fill="#000000">Design Frame</text>
</g>
<!-- .roboCJKproject&#45;&gt;Design Frame -->
<g id="edge5" class="edge">
<title>.roboCJKproject&#45;&gt;Design Frame</title>
<path fill="none" stroke="#000000" d="M395.9977,-146.4551C404.8247,-137.5054 415.633,-126.547 425.2692,-116.7769"/>
<polygon fill="#000000" stroke="#000000" points="427.8271,-119.1678 432.3574,-109.5904 422.8433,-114.2523 427.8271,-119.1678"/>
</g>
<!-- Reference Viewer -->
<g id="node9" class="node">
<title>Reference Viewer</title>
<polygon fill="#c0c0c0" stroke="#c0c0c0" points="515.4877,-73.5 515.4877,-109.5 632.9121,-109.5 632.9121,-73.5 515.4877,-73.5"/>
<text text-anchor="middle" x="574.1999" y="-87.3" font-family="Times,serif" font-size="14.00" fill="#000000">Reference Viewer</text>
</g>
<!-- .roboCJKproject&#45;&gt;Reference Viewer -->
<g id="edge6" class="edge">
<title>.roboCJKproject&#45;&gt;Reference Viewer</title>
<path fill="none" stroke="#000000" d="M426.6494,-146.4551C453.741,-136.3648 487.6887,-123.721 516.1896,-113.1059"/>
<polygon fill="#000000" stroke="#000000" points="517.479,-116.3606 525.6285,-109.5904 515.0358,-109.8008 517.479,-116.3606"/>
</g>
<!-- Calendar -->
<g id="node10" class="node">
<title>Calendar</title>
<polygon fill="#c0c0c0" stroke="#c0c0c0" points="650.9341,-73.5 650.9341,-109.5 717.4657,-109.5 717.4657,-73.5 650.9341,-73.5"/>
<text text-anchor="middle" x="684.1999" y="-87.3" font-family="Times,serif" font-size="14.00" fill="#000000">Calendar</text>
</g>
<!-- .roboCJKproject&#45;&gt;Calendar -->
<g id="edge7" class="edge">
<title>.roboCJKproject&#45;&gt;Calendar</title>
<path fill="none" stroke="#000000" d="M432.9097,-156.6696C484.6961,-148.4865 564.5476,-133.8725 640.7559,-110.1635"/>
<polygon fill="#000000" stroke="#000000" points="642.0366,-113.4292 650.5116,-107.0713 639.9215,-106.7564 642.0366,-113.4292"/>
</g>
<!-- Calendar&#45;&gt;WIP -->
<g id="edge12" class="edge">
<title>Calendar&#45;&gt;WIP</title>
<path fill="none" stroke="#000000" d="M704.4696,-73.4551C714.6211,-64.4177 727.0737,-53.3319 738.129,-43.4899"/>
<polygon fill="#000000" stroke="#000000" points="740.7374,-45.8539 745.8792,-36.5904 736.0829,-40.6255 740.7374,-45.8539"/>
</g>
<!-- RoboCJK UI -->
<g id="node11" class="node">
<title>RoboCJK UI</title>
<polygon fill="none" stroke="#000000" points="971.4541,-219.5 971.4541,-255.5 1060.9457,-255.5 1060.9457,-219.5 971.4541,-219.5"/>
<text text-anchor="middle" x="1016.1999" y="-233.3" font-family="Times,serif" font-size="14.00" fill="#000000">RoboCJK UI</text>
</g>
<!-- Get Mini Font -->
<g id="node12" class="node">
<title>Get Mini Font</title>
<polygon fill="none" stroke="#000000" points="924.1445,-146.5 924.1445,-182.5 1020.2553,-182.5 1020.2553,-146.5 924.1445,-146.5"/>
<text text-anchor="middle" x="972.1999" y="-160.3" font-family="Times,serif" font-size="14.00" fill="#000000">Get Mini Font</text>
</g>
<!-- RoboCJK UI&#45;&gt;Get Mini Font -->
<g id="edge8" class="edge">
<title>RoboCJK UI&#45;&gt;Get Mini Font</title>
<path fill="none" stroke="#000000" d="M1005.3235,-219.4551C1000.1936,-210.9441 993.9687,-200.6165 988.3063,-191.2219"/>
<polygon fill="#000000" stroke="#000000" points="991.2635,-189.3481 983.1037,-182.5904 985.2683,-192.9617 991.2635,-189.3481"/>
</g>
<!-- Inject Back -->
<g id="node13" class="node">
<title>Inject Back</title>
<polygon fill="none" stroke="#000000" points="1027.1315,-73.5 1027.1315,-109.5 1107.2683,-109.5 1107.2683,-73.5 1027.1315,-73.5"/>
<text text-anchor="middle" x="1067.1999" y="-87.3" font-family="Times,serif" font-size="14.00" fill="#000000">Inject Back</text>
</g>
<!-- RoboCJK UI&#45;&gt;Inject Back -->
<g id="edge9" class="edge">
<title>RoboCJK UI&#45;&gt;Inject Back</title>
<path fill="none" stroke="#000000" d="M1022.556,-219.3042C1031.2982,-194.2775 1047.1147,-148.9988 1057.3836,-119.6017"/>
<polygon fill="#000000" stroke="#000000" points="1060.7701,-120.5199 1060.7637,-109.9251 1054.1617,-118.2115 1060.7701,-120.5199"/>
</g>
<!-- Master UFO -->
<g id="node15" class="node">
<title>Master UFO</title>
<polygon fill="#add8e6" stroke="#add8e6" points="923.0172,-73.5 923.0172,-109.5 1009.3826,-109.5 1009.3826,-73.5 923.0172,-73.5"/>
<text text-anchor="middle" x="966.1999" y="-87.3" font-family="Times,serif" font-size="14.00" fill="#000000">Master UFO</text>
</g>
<!-- Get Mini Font&#45;&gt;Master UFO -->
<g id="edge13" class="edge">
<title>Get Mini Font&#45;&gt;Master UFO</title>
<path fill="none" stroke="#000000" d="M970.7168,-146.4551C970.0533,-138.3828 969.2555,-128.6764 968.5162,-119.6817"/>
<polygon fill="#000000" stroke="#000000" points="971.9943,-119.27 967.6868,-109.5904 965.0178,-119.8435 971.9943,-119.27"/>
</g>
<!-- Subset UFO -->
<g id="node16" class="node">
<title>Subset UFO</title>
<polygon fill="#add8e6" stroke="#add8e6" points="923.7858,-.5 923.7858,-36.5 1008.614,-36.5 1008.614,-.5 923.7858,-.5"/>
<text text-anchor="middle" x="966.1999" y="-14.3" font-family="Times,serif" font-size="14.00" fill="#000000">Subset UFO</text>
</g>
<!-- Inject Back&#45;&gt;Subset UFO -->
<g id="edge15" class="edge">
<title>Inject Back&#45;&gt;Subset UFO</title>
<path fill="none" stroke="#000000" d="M1042.2336,-73.4551C1029.3657,-64.1545 1013.4961,-52.6844 999.5897,-42.6332"/>
<polygon fill="#000000" stroke="#000000" points="1001.384,-39.6116 991.229,-36.5904 997.2835,-45.2849 1001.384,-39.6116"/>
</g>
<!-- Master UFO&#45;&gt;Subset UFO -->
<g id="edge14" class="edge">
<title>Master UFO&#45;&gt;Subset UFO</title>
<path fill="none" stroke="#000000" d="M960.2842,-73.4551C959.4857,-65.3828 959.2604,-55.6764 959.6082,-46.6817"/>
<polygon fill="#000000" stroke="#000000" points="963.1079,-46.8007 960.2797,-36.5904 956.1234,-46.3359 963.1079,-46.8007"/>
</g>
<!-- Subset UFO&#45;&gt;Master UFO -->
<g id="edge16" class="edge">
<title>Subset UFO&#45;&gt;Master UFO</title>
<path fill="none" stroke="#000000" d="M972.1201,-36.5904C972.9164,-44.6687 973.1396,-54.3769 972.7897,-63.3688"/>
<polygon fill="#000000" stroke="#000000" points="969.2903,-63.2439 972.1156,-73.4551 976.2747,-63.7107 969.2903,-63.2439"/>
</g>
</g>
</svg>
