<?xml version="1.0" encoding="UTF-8" standalone="no"?>
<!DOCTYPE svg PUBLIC "-//W3C//DTD SVG 1.1//EN"
 "http://www.w3.org/Graphics/SVG/1.1/DTD/svg11.dtd">
<!-- Generated by graphviz version 2.40.1 (20161225.0304)
 -->
<!-- Title: %0 Pages: 1 -->
<svg width="944pt" height="753pt"
 viewBox="0.00 0.00 944.12 753.14" xmlns="http://www.w3.org/2000/svg" xmlns:xlink="http://www.w3.org/1999/xlink">
<g id="graph0" class="graph" transform="scale(1 1) rotate(0) translate(4 749.1405)">
<title>%0</title>
<polygon fill="#ffffff" stroke="transparent" points="-4,4 -4,-749.1405 940.1217,-749.1405 940.1217,4 -4,4"/>
<!-- RoboCJK UI -->
<g id="node1" class="node">
<title>RoboCJK UI</title>
<polygon fill="none" stroke="#000000" points="655.2542,-708.6405 655.2542,-744.6405 744.7458,-744.6405 744.7458,-708.6405 655.2542,-708.6405"/>
<text text-anchor="middle" x="700" y="-722.4405" font-family="Times,serif" font-size="14.00" fill="#000000">RoboCJK UI</text>
</g>
<!-- Project Editor -->
<g id="node2" class="node">
<title>Project Editor</title>
<polygon fill="#ffc0cb" stroke="#ffc0cb" points="491.926,-635.6405 491.926,-671.6405 586.074,-671.6405 586.074,-635.6405 491.926,-635.6405"/>
<text text-anchor="middle" x="539" y="-649.4405" font-family="Times,serif" font-size="14.00" fill="#000000">Project Editor</text>
</g>
<!-- RoboCJK UI&#45;&gt;Project Editor -->
<g id="edge1" class="edge">
<title>RoboCJK UI&#45;&gt;Project Editor</title>
<path fill="none" stroke="#000000" d="M660.2022,-708.5955C638.4321,-698.7246 611.2725,-686.41 588.1844,-675.9415"/>
<polygon fill="#000000" stroke="#000000" points="589.4508,-672.6728 578.8979,-671.7309 586.5601,-679.0481 589.4508,-672.6728"/>
</g>
<!-- Settings -->
<g id="node3" class="node">
<title>Settings</title>
<polygon fill="#ffc0cb" stroke="#ffc0cb" points="766.4432,-635.6405 766.4432,-671.6405 827.5568,-671.6405 827.5568,-635.6405 766.4432,-635.6405"/>
<text text-anchor="middle" x="797" y="-649.4405" font-family="Times,serif" font-size="14.00" fill="#000000">Settings</text>
</g>
<!-- RoboCJK UI&#45;&gt;Settings -->
<g id="edge2" class="edge">
<title>RoboCJK UI&#45;&gt;Settings</title>
<path fill="none" stroke="#000000" d="M723.9775,-708.5955C736.3359,-699.295 751.5769,-687.8249 764.9326,-677.7737"/>
<polygon fill="#000000" stroke="#000000" points="767.0766,-680.5406 772.9621,-671.7309 762.8674,-674.9475 767.0766,-680.5406"/>
</g>
<!-- Space Center -->
<g id="node4" class="node">
<title>Space Center</title>
<polygon fill="#ffc0cb" stroke="#ffc0cb" points="845.8783,-635.6405 845.8783,-671.6405 936.1217,-671.6405 936.1217,-635.6405 845.8783,-635.6405"/>
<text text-anchor="middle" x="891" y="-649.4405" font-family="Times,serif" font-size="14.00" fill="#000000">Space Center</text>
</g>
<!-- RoboCJK UI&#45;&gt;Space Center -->
<g id="edge3" class="edge">
<title>RoboCJK UI&#45;&gt;Space Center</title>
<path fill="none" stroke="#000000" d="M744.781,-709.5252C772.1224,-699.0754 807.2773,-685.6392 836.2641,-674.5605"/>
<polygon fill="#000000" stroke="#000000" points="837.7463,-677.741 845.8378,-670.9015 835.2472,-671.2023 837.7463,-677.741"/>
</g>
<!-- Variable Component Editor -->
<g id="node5" class="node">
<title>Variable Component Editor</title>
<polygon fill="#ffc0cb" stroke="#ffc0cb" points="500.2405,-416.6405 500.2405,-452.6405 671.7595,-452.6405 671.7595,-416.6405 500.2405,-416.6405"/>
<text text-anchor="middle" x="586" y="-430.4405" font-family="Times,serif" font-size="14.00" fill="#000000">Variable Component Editor</text>
</g>
<!-- RoboCJK UI&#45;&gt;Variable Component Editor -->
<g id="edge4" class="edge">
<title>RoboCJK UI&#45;&gt;Variable Component Editor</title>
<path fill="none" stroke="#000000" d="M699.0985,-708.3858C696.3348,-666.7849 685.3682,-562.8506 643,-489.1405 636.7101,-478.1977 627.5587,-468.0686 618.4223,-459.5863"/>
<polygon fill="#000000" stroke="#000000" points="620.6265,-456.8634 610.8144,-452.8667 615.9925,-462.11 620.6265,-456.8634"/>
</g>
<!-- Variable Component Selector -->
<g id="node6" class="node">
<title>Variable Component Selector</title>
<polygon fill="#ffc0cb" stroke="#ffc0cb" points="147.8036,-270.6405 147.8036,-306.6405 330.1964,-306.6405 330.1964,-270.6405 147.8036,-270.6405"/>
<text text-anchor="middle" x="239" y="-284.4405" font-family="Times,serif" font-size="14.00" fill="#000000">Variable Component Selector</text>
</g>
<!-- RoboCJK UI&#45;&gt;Variable Component Selector -->
<g id="edge5" class="edge">
<title>RoboCJK UI&#45;&gt;Variable Component Selector</title>
<path fill="none" stroke="#000000" d="M655.147,-722.0845C500.6496,-705.7969 0,-647.8329 0,-580.6405 0,-580.6405 0,-580.6405 0,-434.6405 0,-366.0772 72.5146,-328.7491 137.658,-309.0485"/>
<polygon fill="#000000" stroke="#000000" points="138.9959,-312.3046 147.6213,-306.1521 137.0418,-305.5828 138.9959,-312.3046"/>
</g>
<!-- Get Mini Font / Inject Back -->
<g id="node7" class="node">
<title>Get Mini Font / Inject Back</title>
<polygon fill="#ffc0cb" stroke="#ffc0cb" points="386.4309,-270.6405 386.4309,-306.6405 557.5691,-306.6405 557.5691,-270.6405 386.4309,-270.6405"/>
<text text-anchor="middle" x="472" y="-284.4405" font-family="Times,serif" font-size="14.00" fill="#000000">Get Mini Font / Inject Back</text>
</g>
<!-- RoboCJK UI&#45;&gt;Get Mini Font / Inject Back -->
<g id="edge6" class="edge">
<title>RoboCJK UI&#45;&gt;Get Mini Font / Inject Back</title>
<path fill="none" stroke="#000000" d="M707.8736,-708.5961C719.0041,-681.4024 738,-628.0475 738,-580.6405 738,-580.6405 738,-580.6405 738,-434.6405 738,-354.4792 644.0172,-318.0301 567.7796,-301.6501"/>
<polygon fill="#000000" stroke="#000000" points="568.1283,-298.1487 557.6283,-299.5631 566.7185,-305.0053 568.1283,-298.1487"/>
</g>
<!-- .roboCJKproject -->
<g id="node11" class="node">
<title>.roboCJKproject</title>
<polygon fill="none" stroke="#000000" points="436.5403,-562.6405 436.5403,-598.6405 545.4597,-598.6405 545.4597,-562.6405 436.5403,-562.6405"/>
<text text-anchor="middle" x="491" y="-576.4405" font-family="Times,serif" font-size="14.00" fill="#000000">.roboCJKproject</text>
</g>
<!-- Project Editor&#45;&gt;.roboCJKproject -->
<g id="edge10" class="edge">
<title>Project Editor&#45;&gt;.roboCJKproject</title>
<path fill="none" stroke="#000000" d="M527.1348,-635.5955C521.5386,-627.0846 514.7478,-616.757 508.5706,-607.3624"/>
<polygon fill="#000000" stroke="#000000" points="511.3136,-605.1635 502.895,-598.7309 505.4647,-609.0094 511.3136,-605.1635"/>
</g>
<!-- UFO&#45;Masters -->
<g id="node8" class="node">
<title>UFO&#45;Masters</title>
<polygon fill="#add8e6" stroke="#add8e6" points="539.5147,-343.6405 539.5147,-379.6405 632.4853,-379.6405 632.4853,-343.6405 539.5147,-343.6405"/>
<text text-anchor="middle" x="586" y="-357.4405" font-family="Times,serif" font-size="14.00" fill="#000000">UFO&#45;Masters</text>
</g>
<!-- Variable Component Editor&#45;&gt;UFO&#45;Masters -->
<g id="edge17" class="edge">
<title>Variable Component Editor&#45;&gt;UFO&#45;Masters</title>
<path fill="none" stroke="#000000" d="M586,-416.5955C586,-408.5233 586,-398.8169 586,-389.8222"/>
<polygon fill="#000000" stroke="#000000" points="589.5001,-389.7308 586,-379.7309 582.5001,-389.7309 589.5001,-389.7308"/>
</g>
<!-- Variable Component Glyphs -->
<g id="node10" class="node">
<title>Variable Component Glyphs</title>
<polygon fill="#add8e6" stroke="#add8e6" points="267.5168,-343.6405 267.5168,-379.6405 444.4832,-379.6405 444.4832,-343.6405 267.5168,-343.6405"/>
<text text-anchor="middle" x="356" y="-357.4405" font-family="Times,serif" font-size="14.00" fill="#000000">Variable Component Glyphs</text>
</g>
<!-- Variable Component Editor&#45;&gt;Variable Component Glyphs -->
<g id="edge9" class="edge">
<title>Variable Component Editor&#45;&gt;Variable Component Glyphs</title>
<path fill="none" stroke="#000000" d="M529.1461,-416.5955C496.9401,-406.3737 456.4777,-393.5312 422.7679,-382.832"/>
<polygon fill="#000000" stroke="#000000" points="423.5873,-379.4201 412.997,-379.7309 421.4696,-386.0921 423.5873,-379.4201"/>
</g>
<!-- UFO&#45;Subsetted -->
<g id="node9" class="node">
<title>UFO&#45;Subsetted</title>
<polygon fill="#add8e6" stroke="#add8e6" points="403.453,-197.6405 403.453,-233.6405 506.547,-233.6405 506.547,-197.6405 403.453,-197.6405"/>
<text text-anchor="middle" x="455" y="-211.4405" font-family="Times,serif" font-size="14.00" fill="#000000">UFO&#45;Subsetted</text>
</g>
<!-- Variable Component Selector&#45;&gt;UFO&#45;Subsetted -->
<g id="edge22" class="edge">
<title>Variable Component Selector&#45;&gt;UFO&#45;Subsetted</title>
<path fill="none" stroke="#000000" d="M302.1551,-267.2964C334.3304,-256.4224 372.9627,-243.3661 403.3377,-233.1004"/>
<polygon fill="#000000" stroke="#000000" points="300.7462,-264.078 292.3933,-270.5955 302.9875,-270.7095 300.7462,-264.078"/>
</g>
<!-- Variable Component Instances Data -->
<g id="node18" class="node">
<title>Variable Component Instances Data</title>
<polygon fill="#40e0d0" stroke="#40e0d0" points="111.7324,-197.6405 111.7324,-233.6405 330.2676,-233.6405 330.2676,-197.6405 111.7324,-197.6405"/>
<text text-anchor="middle" x="221" y="-211.4405" font-family="Times,serif" font-size="14.00" fill="#000000">Variable Component Instances Data</text>
</g>
<!-- Variable Component Selector&#45;&gt;Variable Component Instances Data -->
<g id="edge25" class="edge">
<title>Variable Component Selector&#45;&gt;Variable Component Instances Data</title>
<path fill="none" stroke="#000000" d="M234.5506,-270.5955C232.5385,-262.4356 230.1147,-252.6057 227.8767,-243.5292"/>
<polygon fill="#000000" stroke="#000000" points="231.253,-242.6021 225.4606,-233.7309 224.4565,-244.278 231.253,-242.6021"/>
</g>
<!-- Get Mini Font / Inject Back&#45;&gt;UFO&#45;Subsetted -->
<g id="edge8" class="edge">
<title>Get Mini Font / Inject Back&#45;&gt;UFO&#45;Subsetted</title>
<path fill="none" stroke="#000000" d="M465.5171,-260.8023C464.1965,-255.1312 462.8069,-249.1641 461.4861,-243.4926"/>
<polygon fill="#000000" stroke="#000000" points="462.1208,-261.65 467.7978,-270.5955 468.9384,-260.0623 462.1208,-261.65"/>
<polygon fill="#000000" stroke="#000000" points="464.8898,-242.6764 459.2128,-233.7309 458.0722,-244.2641 464.8898,-242.6764"/>
</g>
<!-- UFO&#45;Masters&#45;&gt;Get Mini Font / Inject Back -->
<g id="edge7" class="edge">
<title>UFO&#45;Masters&#45;&gt;Get Mini Font / Inject Back</title>
<path fill="none" stroke="#000000" d="M549.2748,-338.1235C536.358,-329.8522 521.844,-320.5581 508.9119,-312.2771"/>
<polygon fill="#000000" stroke="#000000" points="547.5114,-341.1504 557.8202,-343.5955 551.2863,-335.2554 547.5114,-341.1504"/>
<polygon fill="#000000" stroke="#000000" points="510.5595,-309.176 500.2507,-306.7309 506.7846,-315.071 510.5595,-309.176"/>
</g>
<!-- CI Build -->
<g id="node17" class="node">
<title>CI Build</title>
<ellipse fill="none" stroke="#000000" cx="358" cy="-116.5702" rx="44.6406" ry="44.6406"/>
<text text-anchor="middle" x="358" y="-112.3702" font-family="Times,serif" font-size="14.00" fill="#000000">CI Build</text>
</g>
<!-- UFO&#45;Masters&#45;&gt;CI Build -->
<g id="edge23" class="edge">
<title>UFO&#45;Masters&#45;&gt;CI Build</title>
<path fill="none" stroke="#000000" d="M584.4072,-343.4518C582.2542,-324.5048 577.411,-294.274 567,-270.1405 551.3229,-233.7998 545.8519,-223.1267 516,-197.1405 484.716,-169.9076 442.6089,-149.0263 409.7302,-135.3523"/>
<polygon fill="#000000" stroke="#000000" points="410.8646,-132.0355 400.2826,-131.5145 408.23,-138.5208 410.8646,-132.0355"/>
</g>
<!-- Variable Component Glyphs&#45;&gt;Variable Component Selector -->
<g id="edge21" class="edge">
<title>Variable Component Glyphs&#45;&gt;Variable Component Selector</title>
<path fill="none" stroke="#000000" d="M327.0786,-343.5955C311.891,-334.1195 293.0937,-322.3913 276.7699,-312.2063"/>
<polygon fill="#000000" stroke="#000000" points="278.3309,-309.0549 267.9941,-306.7309 274.6255,-314.9938 278.3309,-309.0549"/>
</g>
<!-- Variable Component Glyphs&#45;&gt;CI Build -->
<g id="edge24" class="edge">
<title>Variable Component Glyphs&#45;&gt;CI Build</title>
<path fill="none" stroke="#000000" d="M356.1471,-343.6199C356.4386,-307.8968 357.1003,-226.812 357.5488,-171.862"/>
<polygon fill="#000000" stroke="#000000" points="361.0508,-171.6106 357.6327,-161.5823 354.0511,-171.5534 361.0508,-171.6106"/>
</g>
<!-- .roboCJKproject&#45;&gt;UFO&#45;Masters -->
<g id="edge12" class="edge">
<title>.roboCJKproject&#45;&gt;UFO&#45;Masters</title>
<path fill="none" stroke="#000000" d="M545.6282,-571.356C577.0729,-563.6785 615.6482,-550.0121 643,-526.1405 670.5576,-502.0894 672.3064,-488.6693 681,-453.1405 684.9085,-437.1673 689.2418,-430.3705 681,-416.1405 672.1573,-400.8731 657.2442,-389.5134 641.8229,-381.2343"/>
<polygon fill="#000000" stroke="#000000" points="643.2386,-378.0294 632.7263,-376.7094 640.121,-384.2969 643.2386,-378.0294"/>
</g>
<!-- Character&#45;Sets -->
<g id="node12" class="node">
<title>Character&#45;Sets</title>
<polygon fill="#c0c0c0" stroke="#c0c0c0" points="27.8001,-489.6405 27.8001,-525.6405 126.1999,-525.6405 126.1999,-489.6405 27.8001,-489.6405"/>
<text text-anchor="middle" x="77" y="-503.4405" font-family="Times,serif" font-size="14.00" fill="#000000">Character&#45;Sets</text>
</g>
<!-- .roboCJKproject&#45;&gt;Character&#45;Sets -->
<g id="edge11" class="edge">
<title>.roboCJKproject&#45;&gt;Character&#45;Sets</title>
<path fill="none" stroke="#000000" d="M436.384,-574.8607C368.2443,-567.0732 248.1246,-551.4498 136.1895,-525.9868"/>
<polygon fill="#000000" stroke="#000000" points="136.9553,-522.5716 126.4246,-523.7353 135.3825,-529.3927 136.9553,-522.5716"/>
</g>
<!-- Glyph Composition Data -->
<g id="node13" class="node">
<title>Glyph Composition Data</title>
<polygon fill="#c0c0c0" stroke="#c0c0c0" points="257.6164,-489.6405 257.6164,-525.6405 414.3836,-525.6405 414.3836,-489.6405 257.6164,-489.6405"/>
<text text-anchor="middle" x="336" y="-503.4405" font-family="Times,serif" font-size="14.00" fill="#000000">Glyph Composition Data</text>
</g>
<!-- .roboCJKproject&#45;&gt;Glyph Composition Data -->
<g id="edge13" class="edge">
<title>.roboCJKproject&#45;&gt;Glyph Composition Data</title>
<path fill="none" stroke="#000000" d="M452.6854,-562.5955C431.8197,-552.7685 405.8115,-540.5194 383.648,-530.0812"/>
<polygon fill="#000000" stroke="#000000" points="384.9492,-526.8253 374.411,-525.7309 381.9666,-533.1581 384.9492,-526.8253"/>
</g>
<!-- Design Frame -->
<g id="node14" class="node">
<title>Design Frame</title>
<polygon fill="#c0c0c0" stroke="#c0c0c0" points="144.5403,-489.6405 144.5403,-525.6405 239.4597,-525.6405 239.4597,-489.6405 144.5403,-489.6405"/>
<text text-anchor="middle" x="192" y="-503.4405" font-family="Times,serif" font-size="14.00" fill="#000000">Design Frame</text>
</g>
<!-- .roboCJKproject&#45;&gt;Design Frame -->
<g id="edge14" class="edge">
<title>.roboCJKproject&#45;&gt;Design Frame</title>
<path fill="none" stroke="#000000" d="M436.3408,-569.8347C389.2722,-560.1898 319.3778,-545.0603 249.3645,-526.1141"/>
<polygon fill="#000000" stroke="#000000" points="250.0557,-522.6747 239.4868,-523.4155 248.2109,-529.4273 250.0557,-522.6747"/>
</g>
<!-- Reference Viewer -->
<g id="node15" class="node">
<title>Reference Viewer</title>
<polygon fill="#c0c0c0" stroke="#c0c0c0" points="432.2878,-489.6405 432.2878,-525.6405 549.7122,-525.6405 549.7122,-489.6405 432.2878,-489.6405"/>
<text text-anchor="middle" x="491" y="-503.4405" font-family="Times,serif" font-size="14.00" fill="#000000">Reference Viewer</text>
</g>
<!-- .roboCJKproject&#45;&gt;Reference Viewer -->
<g id="edge15" class="edge">
<title>.roboCJKproject&#45;&gt;Reference Viewer</title>
<path fill="none" stroke="#000000" d="M491,-562.5955C491,-554.5233 491,-544.8169 491,-535.8222"/>
<polygon fill="#000000" stroke="#000000" points="494.5001,-535.7308 491,-525.7309 487.5001,-535.7309 494.5001,-535.7308"/>
</g>
<!-- Calendar -->
<g id="node16" class="node">
<title>Calendar</title>
<polygon fill="#c0c0c0" stroke="#c0c0c0" points="567.7342,-489.6405 567.7342,-525.6405 634.2658,-525.6405 634.2658,-489.6405 567.7342,-489.6405"/>
<text text-anchor="middle" x="601" y="-503.4405" font-family="Times,serif" font-size="14.00" fill="#000000">Calendar</text>
</g>
<!-- .roboCJKproject&#45;&gt;Calendar -->
<g id="edge16" class="edge">
<title>.roboCJKproject&#45;&gt;Calendar</title>
<path fill="none" stroke="#000000" d="M518.191,-562.5955C532.3378,-553.2072 549.8157,-541.6083 565.063,-531.4896"/>
<polygon fill="#000000" stroke="#000000" points="567.3437,-534.1767 573.7406,-525.7309 563.4731,-528.3442 567.3437,-534.1767"/>
</g>
<!-- Glyph Composition Data&#45;&gt;Variable Component Editor -->
<g id="edge18" class="edge">
<title>Glyph Composition Data&#45;&gt;Variable Component Editor</title>
<path fill="none" stroke="#000000" d="M407.4698,-486.7713C440.968,-476.9898 480.7896,-465.3619 514.3148,-455.5726"/>
<polygon fill="#000000" stroke="#000000" points="406.4159,-483.4328 397.7978,-489.5955 408.378,-490.1522 406.4159,-483.4328"/>
<polygon fill="#000000" stroke="#000000" points="515.4286,-458.8936 524.0467,-452.7309 513.4665,-452.1742 515.4286,-458.8936"/>
</g>
<!-- Glyph Composition Data&#45;&gt;Variable Component Selector -->
<g id="edge20" class="edge">
<title>Glyph Composition Data&#45;&gt;Variable Component Selector</title>
<path fill="none" stroke="#000000" d="M322.1892,-489.2288C304.9039,-465.3144 275.5621,-421.6976 259,-380.1405 250.8477,-359.6849 245.7237,-335.2664 242.7055,-316.8017"/>
<polygon fill="#000000" stroke="#000000" points="246.1316,-316.0514 241.1647,-306.693 239.2115,-317.1062 246.1316,-316.0514"/>
</g>
<!-- Glyph Composition Data&#45;&gt;Get Mini Font / Inject Back -->
<g id="edge19" class="edge">
<title>Glyph Composition Data&#45;&gt;Get Mini Font / Inject Back</title>
<path fill="none" stroke="#000000" d="M366.4899,-482.9889C393.4852,-459.4463 431.7984,-421.5082 453,-380.1405 463.1301,-360.3751 467.8592,-335.584 470.067,-316.7941"/>
<polygon fill="#000000" stroke="#000000" points="364.1719,-480.366 358.8538,-489.5294 368.7255,-485.6824 364.1719,-480.366"/>
<polygon fill="#000000" stroke="#000000" points="473.5562,-317.0758 471.0749,-306.7757 466.5914,-316.3751 473.5562,-317.0758"/>
</g>
<!-- VarFont 1.9 -->
<g id="node19" class="node">
<title>VarFont 1.9</title>
<polygon fill="#ffff00" stroke="#ffff00" points="177,-36 95.2892,-18 177,0 258.7108,-18 177,-36"/>
<text text-anchor="middle" x="177" y="-13.8" font-family="Times,serif" font-size="14.00" fill="#000000">VarFont 1.9</text>
</g>
<!-- CI Build&#45;&gt;VarFont 1.9 -->
<g id="edge27" class="edge">
<title>CI Build&#45;&gt;VarFont 1.9</title>
<path fill="none" stroke="#000000" d="M318.7257,-95.182C286.124,-77.4275 240.2981,-52.4713 209.6734,-35.7935"/>
<polygon fill="#000000" stroke="#000000" points="211.1448,-32.6095 200.6887,-30.9006 207.797,-38.757 211.1448,-32.6095"/>
</g>
<!-- VarFont 1.8 -->
<g id="node20" class="node">
<title>VarFont 1.8</title>
<polygon fill="#ffff00" stroke="#ffff00" points="358,-36 276.2892,-18 358,0 439.7108,-18 358,-36"/>
<text text-anchor="middle" x="358" y="-13.8" font-family="Times,serif" font-size="14.00" fill="#000000">VarFont 1.8</text>
</g>
<!-- CI Build&#45;&gt;VarFont 1.8 -->
<g id="edge28" class="edge">
<title>CI Build&#45;&gt;VarFont 1.8</title>
<path fill="none" stroke="#000000" d="M358,-71.8996C358,-63.2146 358,-54.3368 358,-46.3577"/>
<polygon fill="#000000" stroke="#000000" points="361.5001,-46.1367 358,-36.1367 354.5001,-46.1367 361.5001,-46.1367"/>
</g>
<!-- Static Fonts -->
<g id="node21" class="node">
<title>Static Fonts</title>
<polygon fill="#ffff00" stroke="#ffff00" points="538,-36 457.54,-18 538,0 618.46,-18 538,-36"/>
<text text-anchor="middle" x="538" y="-13.8" font-family="Times,serif" font-size="14.00" fill="#000000">Static Fonts</text>
</g>
<!-- CI Build&#45;&gt;Static Fonts -->
<g id="edge29" class="edge">
<title>CI Build&#45;&gt;Static Fonts</title>
<path fill="none" stroke="#000000" d="M397.5018,-94.9386C429.9518,-77.1686 475.3515,-52.3071 505.6685,-35.7052"/>
<polygon fill="#000000" stroke="#000000" points="507.472,-38.708 514.5619,-30.835 504.1098,-32.5683 507.472,-38.708"/>
</g>
<!-- Variable Component Instances Data&#45;&gt;CI Build -->
<g id="edge26" class="edge">
<title>Variable Component Instances Data&#45;&gt;CI Build</title>
<path fill="none" stroke="#000000" d="M246.1279,-197.4695C264.896,-183.8975 291.0435,-164.9892 313.3406,-148.8653"/>
<polygon fill="#000000" stroke="#000000" points="315.6219,-151.5348 321.6743,-142.8389 311.52,-145.8626 315.6219,-151.5348"/>
</g>
</g>
</svg>
