<?xml version="1.0" encoding="UTF-8" standalone="no"?>
<!DOCTYPE svg PUBLIC "-//W3C//DTD SVG 1.1//EN"
 "http://www.w3.org/Graphics/SVG/1.1/DTD/svg11.dtd">
<!-- Generated by graphviz version 2.40.1 (20161225.0304)
 -->
<!-- Title: %0 Pages: 1 -->
<svg width="1007pt" height="754pt"
 viewBox="0.00 0.00 1006.79 753.68" xmlns="http://www.w3.org/2000/svg" xmlns:xlink="http://www.w3.org/1999/xlink">
<g id="graph0" class="graph" transform="scale(1 1) rotate(0) translate(4 749.6755)">
<title>%0</title>
<polygon fill="#ffffff" stroke="transparent" points="-4,4 -4,-749.6755 1002.7903,-749.6755 1002.7903,4 -4,4"/>
<!-- RoboCJK UI -->
<g id="node1" class="node">
<title>RoboCJK UI</title>
<polygon fill="none" stroke="#000000" points="700.1073,-709.1755 700.1073,-745.1755 793.8927,-745.1755 793.8927,-709.1755 700.1073,-709.1755"/>
<text text-anchor="middle" x="747" y="-722.9755" font-family="Arial" font-size="14.00" fill="#000000">RoboCJK UI</text>
</g>
<!-- Project Editor -->
<g id="node2" class="node">
<title>Project Editor</title>
<polygon fill="#ffc0cb" stroke="#000000" points="528.9951,-636.1755 528.9951,-672.1755 629.0049,-672.1755 629.0049,-636.1755 528.9951,-636.1755"/>
<text text-anchor="middle" x="579" y="-649.9755" font-family="Arial" font-size="14.00" fill="#000000">Project Editor</text>
</g>
<!-- RoboCJK UI&#45;&gt;Project Editor -->
<g id="edge1" class="edge">
<title>RoboCJK UI&#45;&gt;Project Editor</title>
<path fill="none" stroke="#000000" d="M705.4719,-709.1305C682.6543,-699.2158 654.1628,-686.8355 630.0019,-676.337"/>
<polygon fill="#000000" stroke="#000000" points="631.199,-673.0411 620.6326,-672.2659 628.4093,-679.4612 631.199,-673.0411"/>
</g>
<!-- Settings -->
<g id="node3" class="node">
<title>Settings</title>
<polygon fill="#ffc0cb" stroke="#000000" points="812.7139,-636.1755 812.7139,-672.1755 879.2861,-672.1755 879.2861,-636.1755 812.7139,-636.1755"/>
<text text-anchor="middle" x="846" y="-649.9755" font-family="Arial" font-size="14.00" fill="#000000">Settings</text>
</g>
<!-- RoboCJK UI&#45;&gt;Settings -->
<g id="edge2" class="edge">
<title>RoboCJK UI&#45;&gt;Settings</title>
<path fill="none" stroke="#000000" d="M771.4719,-709.1305C784.0851,-699.8299 799.6403,-688.3599 813.2714,-678.3087"/>
<polygon fill="#000000" stroke="#000000" points="815.4951,-681.0176 821.4665,-672.2659 811.3408,-675.3837 815.4951,-681.0176"/>
</g>
<!-- Space Center -->
<g id="node4" class="node">
<title>Space Center</title>
<polygon fill="#ffc0cb" stroke="#000000" points="897.2097,-636.1755 897.2097,-672.1755 998.7903,-672.1755 998.7903,-636.1755 897.2097,-636.1755"/>
<text text-anchor="middle" x="948" y="-649.9755" font-family="Arial" font-size="14.00" fill="#000000">Space Center</text>
</g>
<!-- RoboCJK UI&#45;&gt;Space Center -->
<g id="edge3" class="edge">
<title>RoboCJK UI&#45;&gt;Space Center</title>
<path fill="none" stroke="#000000" d="M794.1256,-710.0602C822.3953,-699.7931 858.6026,-686.6432 888.7923,-675.6788"/>
<polygon fill="#000000" stroke="#000000" points="890.1605,-678.9056 898.365,-672.2021 887.7709,-672.3261 890.1605,-678.9056"/>
</g>
<!-- Variable Component Editor -->
<g id="node5" class="node">
<title>Variable Component Editor</title>
<polygon fill="#ffc0cb" stroke="#000000" points="534.9825,-417.1755 534.9825,-453.1755 719.0175,-453.1755 719.0175,-417.1755 534.9825,-417.1755"/>
<text text-anchor="middle" x="627" y="-430.9755" font-family="Arial" font-size="14.00" fill="#000000">Variable Component Editor</text>
</g>
<!-- RoboCJK UI&#45;&gt;Variable Component Editor -->
<g id="edge4" class="edge">
<title>RoboCJK UI&#45;&gt;Variable Component Editor</title>
<path fill="none" stroke="#000000" d="M746.3719,-709.0812C744.1741,-667.3743 734.3003,-562.489 690,-489.6755 683.1196,-478.3667 673.1055,-468.1775 663.0782,-459.753"/>
<polygon fill="#000000" stroke="#000000" points="665.0944,-456.8843 655.0933,-453.3874 660.7309,-462.3578 665.0944,-456.8843"/>
</g>
<!-- Variable Component Selector -->
<g id="node6" class="node">
<title>Variable Component Selector</title>
<polygon fill="#ffc0cb" stroke="#000000" points="159.5912,-271.1755 159.5912,-307.1755 358.4088,-307.1755 358.4088,-271.1755 159.5912,-271.1755"/>
<text text-anchor="middle" x="259" y="-284.9755" font-family="Arial" font-size="14.00" fill="#000000">Variable Component Selector</text>
</g>
<!-- RoboCJK UI&#45;&gt;Variable Component Selector -->
<g id="edge5" class="edge">
<title>RoboCJK UI&#45;&gt;Variable Component Selector</title>
<path fill="none" stroke="#000000" d="M699.9888,-723.0076C536.1171,-707.8582 0,-652.8209 0,-581.1755 0,-581.1755 0,-581.1755 0,-435.1755 0,-362.3367 78.696,-325.4371 149.3301,-306.9876"/>
<polygon fill="#000000" stroke="#000000" points="150.3855,-310.3314 159.2343,-304.5049 148.6834,-303.5414 150.3855,-310.3314"/>
</g>
<!-- Get Mini Font / Inject Back -->
<g id="node7" class="node">
<title>Get Mini Font / Inject Back</title>
<polygon fill="#ffc0cb" stroke="#000000" points="418.9278,-271.1755 418.9278,-307.1755 599.0722,-307.1755 599.0722,-271.1755 418.9278,-271.1755"/>
<text text-anchor="middle" x="509" y="-284.9755" font-family="Arial" font-size="14.00" fill="#000000">Get Mini Font / Inject Back</text>
</g>
<!-- RoboCJK UI&#45;&gt;Get Mini Font / Inject Back -->
<g id="edge6" class="edge">
<title>RoboCJK UI&#45;&gt;Get Mini Font / Inject Back</title>
<path fill="none" stroke="#000000" d="M754.8736,-709.1311C766.0041,-681.9374 785,-628.5825 785,-581.1755 785,-581.1755 785,-581.1755 785,-435.1755 785,-353.04 688.3134,-316.9863 609.3926,-301.2384"/>
<polygon fill="#000000" stroke="#000000" points="609.8514,-297.7629 599.3727,-299.3272 608.5398,-304.6389 609.8514,-297.7629"/>
</g>
<!-- .roboCJKproject -->
<g id="node11" class="node">
<title>.roboCJKproject</title>
<polygon fill="none" stroke="#000000" points="468.8261,-563.1755 468.8261,-599.1755 585.1739,-599.1755 585.1739,-563.1755 468.8261,-563.1755"/>
<text text-anchor="middle" x="527" y="-576.9755" font-family="Arial" font-size="14.00" fill="#000000">.roboCJKproject</text>
</g>
<!-- Project Editor&#45;&gt;.roboCJKproject -->
<g id="edge10" class="edge">
<title>Project Editor&#45;&gt;.roboCJKproject</title>
<path fill="none" stroke="#000000" d="M566.1461,-636.1305C560.021,-627.5319 552.575,-617.0789 545.828,-607.6071"/>
<polygon fill="#000000" stroke="#000000" points="548.5389,-605.3801 539.8863,-599.2659 542.8374,-609.4414 548.5389,-605.3801"/>
</g>
<!-- UFO&#45;Masters -->
<g id="node8" class="node">
<title>UFO&#45;Masters</title>
<polygon fill="#add8e6" stroke="#000000" points="577.0063,-344.1755 577.0063,-380.1755 676.9937,-380.1755 676.9937,-344.1755 577.0063,-344.1755"/>
<text text-anchor="middle" x="627" y="-357.9755" font-family="Arial" font-size="14.00" fill="#000000">UFO&#45;Masters</text>
</g>
<!-- Variable Component Editor&#45;&gt;UFO&#45;Masters -->
<g id="edge17" class="edge">
<title>Variable Component Editor&#45;&gt;UFO&#45;Masters</title>
<path fill="none" stroke="#000000" d="M627,-417.1305C627,-409.0583 627,-399.3519 627,-390.3572"/>
<polygon fill="#000000" stroke="#000000" points="630.5001,-390.2658 627,-380.2659 623.5001,-390.2659 630.5001,-390.2658"/>
</g>
<!-- Variable Component Glyphs -->
<g id="node10" class="node">
<title>Variable Component Glyphs</title>
<polygon fill="#add8e6" stroke="#000000" points="287.4811,-344.1755 287.4811,-380.1755 478.5189,-380.1755 478.5189,-344.1755 287.4811,-344.1755"/>
<text text-anchor="middle" x="383" y="-357.9755" font-family="Arial" font-size="14.00" fill="#000000">Variable Component Glyphs</text>
</g>
<!-- Variable Component Editor&#45;&gt;Variable Component Glyphs -->
<g id="edge9" class="edge">
<title>Variable Component Editor&#45;&gt;Variable Component Glyphs</title>
<path fill="none" stroke="#000000" d="M566.6854,-417.1305C532.3724,-406.8648 489.2251,-393.9559 453.372,-383.2294"/>
<polygon fill="#000000" stroke="#000000" points="454.0501,-379.779 443.4664,-380.2659 452.0436,-386.4853 454.0501,-379.779"/>
</g>
<!-- UFO&#45;Subsetted -->
<g id="node9" class="node">
<title>UFO&#45;Subsetted</title>
<polygon fill="#add8e6" stroke="#000000" points="436.3794,-198.1755 436.3794,-234.1755 549.6206,-234.1755 549.6206,-198.1755 436.3794,-198.1755"/>
<text text-anchor="middle" x="493" y="-211.9755" font-family="Arial" font-size="14.00" fill="#000000">UFO&#45;Subsetted</text>
</g>
<!-- Variable Component Selector&#45;&gt;UFO&#45;Subsetted -->
<g id="edge22" class="edge">
<title>Variable Component Selector&#45;&gt;UFO&#45;Subsetted</title>
<path fill="none" stroke="#000000" d="M326.4452,-268.1349C361.2108,-257.2892 403.1371,-244.2097 436.2268,-233.8868"/>
<polygon fill="#000000" stroke="#000000" points="325.3466,-264.8112 316.8427,-271.1305 327.4313,-271.4936 325.3466,-264.8112"/>
</g>
<!-- Variable Component Instances Data -->
<g id="node18" class="node">
<title>Variable Component Instances Data</title>
<polygon fill="#40e0d0" stroke="#000000" points="122.58,-198.1755 122.58,-234.1755 363.42,-234.1755 363.42,-198.1755 122.58,-198.1755"/>
<text text-anchor="middle" x="243" y="-211.9755" font-family="Arial" font-size="14.00" fill="#000000">Variable Component Instances Data</text>
</g>
<!-- Variable Component Selector&#45;&gt;Variable Component Instances Data -->
<g id="edge25" class="edge">
<title>Variable Component Selector&#45;&gt;Variable Component Instances Data</title>
<path fill="none" stroke="#000000" d="M255.0449,-271.1305C253.2565,-262.9706 251.102,-253.1407 249.1126,-244.0642"/>
<polygon fill="#000000" stroke="#000000" points="252.5249,-243.2846 246.965,-234.2659 245.6872,-244.7833 252.5249,-243.2846"/>
</g>
<!-- Get Mini Font / Inject Back&#45;&gt;UFO&#45;Subsetted -->
<g id="edge8" class="edge">
<title>Get Mini Font / Inject Back&#45;&gt;UFO&#45;Subsetted</title>
<path fill="none" stroke="#000000" d="M502.8985,-261.3373C501.6866,-255.808 500.413,-249.9973 499.1979,-244.4535"/>
<polygon fill="#000000" stroke="#000000" points="499.4851,-262.1118 505.0449,-271.1305 506.3228,-260.6131 499.4851,-262.1118"/>
<polygon fill="#000000" stroke="#000000" points="502.5249,-243.2846 496.965,-234.2659 495.6872,-244.7833 502.5249,-243.2846"/>
</g>
<!-- UFO&#45;Masters&#45;&gt;Get Mini Font / Inject Back -->
<g id="edge7" class="edge">
<title>UFO&#45;Masters&#45;&gt;Get Mini Font / Inject Back</title>
<path fill="none" stroke="#000000" d="M588.9862,-338.6585C575.4876,-330.3076 560.3038,-320.9143 546.8214,-312.5735"/>
<polygon fill="#000000" stroke="#000000" points="587.4859,-341.8459 597.8315,-344.1305 591.1686,-335.893 587.4859,-341.8459"/>
<polygon fill="#000000" stroke="#000000" points="548.5875,-309.5505 538.242,-307.2659 544.9048,-315.5034 548.5875,-309.5505"/>
</g>
<!-- CI Build -->
<g id="node17" class="node">
<title>CI Build</title>
<ellipse fill="none" stroke="#000000" cx="391" cy="-116.8377" rx="44.6761" ry="44.6761"/>
<text text-anchor="middle" x="391" y="-112.6377" font-family="Arial" font-size="14.00" fill="#000000">CI Build</text>
</g>
<!-- UFO&#45;Masters&#45;&gt;CI Build -->
<g id="edge23" class="edge">
<title>UFO&#45;Masters&#45;&gt;CI Build</title>
<path fill="none" stroke="#000000" d="M625.316,-344.0256C623.0886,-325.1104 618.1855,-294.905 608,-270.6755 592.857,-234.6532 588.53,-223.2664 559,-197.6755 525.2388,-168.4177 479.0471,-147.2104 443.6428,-133.8774"/>
<polygon fill="#000000" stroke="#000000" points="444.556,-130.4844 433.9624,-130.3255 442.1447,-137.056 444.556,-130.4844"/>
</g>
<!-- Variable Component Glyphs&#45;&gt;Variable Component Selector -->
<g id="edge21" class="edge">
<title>Variable Component Glyphs&#45;&gt;Variable Component Selector</title>
<path fill="none" stroke="#000000" d="M352.3483,-344.1305C336.1029,-334.5667 315.9609,-322.7089 298.5497,-312.4588"/>
<polygon fill="#000000" stroke="#000000" points="300.122,-309.323 289.7288,-307.2659 296.5707,-315.3553 300.122,-309.323"/>
</g>
<!-- Variable Component Glyphs&#45;&gt;CI Build -->
<g id="edge24" class="edge">
<title>Variable Component Glyphs&#45;&gt;CI Build</title>
<path fill="none" stroke="#000000" d="M383.5883,-344.1352C384.7544,-308.3731 387.4013,-227.1998 389.1951,-172.1898"/>
<polygon fill="#000000" stroke="#000000" points="392.7028,-172.0077 389.5306,-161.899 385.7065,-171.7795 392.7028,-172.0077"/>
</g>
<!-- .roboCJKproject&#45;&gt;UFO&#45;Masters -->
<g id="edge12" class="edge">
<title>.roboCJKproject&#45;&gt;UFO&#45;Masters</title>
<path fill="none" stroke="#000000" d="M585.542,-572.7852C619.2484,-565.4199 660.6147,-551.7678 690,-526.6755 717.8157,-502.9234 719.3064,-489.2043 728,-453.6755 731.9085,-437.7023 736.4262,-430.797 728,-416.6755 718.5243,-400.7951 702.6438,-389.266 686.2481,-381.0204"/>
<polygon fill="#000000" stroke="#000000" points="687.6665,-377.8201 677.1238,-376.7705 684.7109,-384.1655 687.6665,-377.8201"/>
</g>
<!-- Character&#45;Sets -->
<g id="node12" class="node">
<title>Character&#45;Sets</title>
<polygon fill="#c0c0c0" stroke="#000000" points="27.9404,-490.1755 27.9404,-526.1755 138.0596,-526.1755 138.0596,-490.1755 27.9404,-490.1755"/>
<text text-anchor="middle" x="83" y="-503.9755" font-family="Arial" font-size="14.00" fill="#000000">Character&#45;Sets</text>
</g>
<!-- .roboCJKproject&#45;&gt;Character&#45;Sets -->
<g id="edge11" class="edge">
<title>.roboCJKproject&#45;&gt;Character&#45;Sets</title>
<path fill="none" stroke="#000000" d="M468.6141,-575.3515C395.681,-567.5109 266.9995,-551.8161 148.3634,-526.8248"/>
<polygon fill="#000000" stroke="#000000" points="148.8934,-523.3592 138.3832,-524.695 147.4325,-530.2051 148.8934,-523.3592"/>
</g>
<!-- Glyph Composition Data -->
<g id="node13" class="node">
<title>Glyph Composition Data</title>
<polygon fill="#c0c0c0" stroke="#000000" points="278.155,-490.1755 278.155,-526.1755 445.845,-526.1755 445.845,-490.1755 278.155,-490.1755"/>
<text text-anchor="middle" x="362" y="-503.9755" font-family="Arial" font-size="14.00" fill="#000000">Glyph Composition Data</text>
</g>
<!-- .roboCJKproject&#45;&gt;Glyph Composition Data -->
<g id="edge13" class="edge">
<title>.roboCJKproject&#45;&gt;Glyph Composition Data</title>
<path fill="none" stroke="#000000" d="M486.2135,-563.1305C463.8033,-553.2158 435.8206,-540.8355 412.0911,-530.337"/>
<polygon fill="#000000" stroke="#000000" points="413.4502,-527.1111 402.8892,-526.2659 410.618,-533.5126 413.4502,-527.1111"/>
</g>
<!-- Design Frame -->
<g id="node14" class="node">
<title>Design Frame</title>
<polygon fill="#c0c0c0" stroke="#000000" points="156.0547,-490.1755 156.0547,-526.1755 259.9453,-526.1755 259.9453,-490.1755 156.0547,-490.1755"/>
<text text-anchor="middle" x="208" y="-503.9755" font-family="Arial" font-size="14.00" fill="#000000">Design Frame</text>
</g>
<!-- .roboCJKproject&#45;&gt;Design Frame -->
<g id="edge14" class="edge">
<title>.roboCJKproject&#45;&gt;Design Frame</title>
<path fill="none" stroke="#000000" d="M468.7738,-570.3655C418.5204,-560.6981 343.8218,-545.5247 270.0839,-526.8536"/>
<polygon fill="#000000" stroke="#000000" points="270.7152,-523.4025 260.16,-524.3178 268.9822,-530.1846 270.7152,-523.4025"/>
</g>
<!-- Reference Viewer -->
<g id="node15" class="node">
<title>Reference Viewer</title>
<polygon fill="#c0c0c0" stroke="#000000" points="463.3815,-490.1755 463.3815,-526.1755 590.6185,-526.1755 590.6185,-490.1755 463.3815,-490.1755"/>
<text text-anchor="middle" x="527" y="-503.9755" font-family="Arial" font-size="14.00" fill="#000000">Reference Viewer</text>
</g>
<!-- .roboCJKproject&#45;&gt;Reference Viewer -->
<g id="edge15" class="edge">
<title>.roboCJKproject&#45;&gt;Reference Viewer</title>
<path fill="none" stroke="#000000" d="M527,-563.1305C527,-555.0583 527,-545.3519 527,-536.3572"/>
<polygon fill="#000000" stroke="#000000" points="530.5001,-536.2658 527,-526.2659 523.5001,-536.2659 530.5001,-536.2658"/>
</g>
<!-- Calendar -->
<g id="node16" class="node">
<title>Calendar</title>
<polygon fill="#c0c0c0" stroke="#000000" points="608.6066,-490.1755 608.6066,-526.1755 681.3934,-526.1755 681.3934,-490.1755 608.6066,-490.1755"/>
<text text-anchor="middle" x="645" y="-503.9755" font-family="Arial" font-size="14.00" fill="#000000">Calendar</text>
</g>
<!-- .roboCJKproject&#45;&gt;Calendar -->
<g id="edge16" class="edge">
<title>.roboCJKproject&#45;&gt;Calendar</title>
<path fill="none" stroke="#000000" d="M556.1685,-563.1305C571.486,-553.6545 590.4439,-541.9263 606.9073,-531.7413"/>
<polygon fill="#000000" stroke="#000000" points="609.0952,-534.5034 615.758,-526.2659 605.4125,-528.5505 609.0952,-534.5034"/>
</g>
<!-- Glyph Composition Data&#45;&gt;Variable Component Editor -->
<g id="edge18" class="edge">
<title>Glyph Composition Data&#45;&gt;Variable Component Editor</title>
<path fill="none" stroke="#000000" d="M437.2604,-487.4434C473.0091,-477.5956 515.6396,-465.8521 551.4281,-455.9934"/>
<polygon fill="#000000" stroke="#000000" points="436.217,-484.1004 427.5056,-490.1305 438.0761,-490.849 436.217,-484.1004"/>
<polygon fill="#000000" stroke="#000000" points="552.6182,-459.296 561.3295,-453.2659 550.7591,-452.5474 552.6182,-459.296"/>
</g>
<!-- Glyph Composition Data&#45;&gt;Variable Component Selector -->
<g id="edge20" class="edge">
<title>Glyph Composition Data&#45;&gt;Variable Component Selector</title>
<path fill="none" stroke="#000000" d="M346.7828,-490.0141C327.7667,-466.364 295.5893,-423.0262 278,-380.6755 269.5727,-360.3847 264.7446,-335.9566 262.0659,-317.4464"/>
<polygon fill="#000000" stroke="#000000" points="265.5061,-316.763 260.7262,-307.3077 258.5665,-317.6801 265.5061,-316.763"/>
</g>
<!-- Glyph Composition Data&#45;&gt;Get Mini Font / Inject Back -->
<g id="edge19" class="edge">
<title>Glyph Composition Data&#45;&gt;Get Mini Font / Inject Back</title>
<path fill="none" stroke="#000000" d="M395.1785,-483.5017C424.1062,-460.1942 464.9439,-422.6257 488,-380.6755 498.7465,-361.1224 504.0047,-336.3166 506.5713,-317.467"/>
<polygon fill="#000000" stroke="#000000" points="392.6618,-481.0297 386.9886,-489.9776 397.0036,-486.5205 392.6618,-481.0297"/>
<polygon fill="#000000" stroke="#000000" points="510.0618,-317.7538 507.7654,-307.4108 503.1106,-316.9283 510.0618,-317.7538"/>
</g>
<!-- VarFont 1.9 -->
<g id="node19" class="node">
<title>VarFont 1.9</title>
<polygon fill="#ffff00" stroke="#000000" points="199,-36 112.0986,-18 199,0 285.9014,-18 199,-36"/>
<text text-anchor="middle" x="199" y="-13.8" font-family="Arial" font-size="14.00" fill="#000000">VarFont 1.9</text>
</g>
<!-- CI Build&#45;&gt;VarFont 1.9 -->
<g id="edge27" class="edge">
<title>CI Build&#45;&gt;VarFont 1.9</title>
<path fill="none" stroke="#000000" d="M350.7505,-96.1181C315.9218,-78.189 266.1108,-52.5473 233.183,-35.5967"/>
<polygon fill="#000000" stroke="#000000" points="234.4491,-32.312 223.956,-30.8469 231.2452,-38.5358 234.4491,-32.312"/>
</g>
<!-- VarFont 1.8 -->
<g id="node20" class="node">
<title>VarFont 1.8</title>
<polygon fill="#ffff00" stroke="#000000" points="391,-36 304.0986,-18 391,0 477.9014,-18 391,-36"/>
<text text-anchor="middle" x="391" y="-13.8" font-family="Arial" font-size="14.00" fill="#000000">VarFont 1.8</text>
</g>
<!-- CI Build&#45;&gt;VarFont 1.8 -->
<g id="edge28" class="edge">
<title>CI Build&#45;&gt;VarFont 1.8</title>
<path fill="none" stroke="#000000" d="M391,-71.7574C391,-63.0767 391,-54.2161 391,-46.2581"/>
<polygon fill="#000000" stroke="#000000" points="394.5001,-46.0672 391,-36.0673 387.5001,-46.0673 394.5001,-46.0672"/>
</g>
<!-- Static Fonts -->
<g id="node21" class="node">
<title>Static Fonts</title>
<polygon fill="#ffff00" stroke="#000000" points="584,-36 496.0932,-18 584,0 671.9068,-18 584,-36"/>
<text text-anchor="middle" x="584" y="-13.8" font-family="Arial" font-size="14.00" fill="#000000">Static Fonts</text>
</g>
<!-- CI Build&#45;&gt;Static Fonts -->
<g id="edge29" class="edge">
<title>CI Build&#45;&gt;Static Fonts</title>
<path fill="none" stroke="#000000" d="M430.9897,-96.3585C465.961,-78.4493 516.2202,-52.7109 549.4692,-35.6836"/>
<polygon fill="#000000" stroke="#000000" points="551.4818,-38.5853 558.7872,-30.9118 548.2911,-32.3548 551.4818,-38.5853"/>
</g>
<!-- Variable Component Instances Data&#45;&gt;CI Build -->
<g id="edge26" class="edge">
<title>Variable Component Instances Data&#45;&gt;CI Build</title>
<path fill="none" stroke="#000000" d="M270.1455,-197.9554C291.1217,-183.8761 320.6307,-164.0697 345.2384,-147.5529"/>
<polygon fill="#000000" stroke="#000000" points="347.3635,-150.3419 353.7161,-141.8628 343.4624,-144.5298 347.3635,-150.3419"/>
</g>
</g>
</svg>
