<?xml version="1.0" encoding="UTF-8" standalone="no"?>
<!DOCTYPE svg PUBLIC "-//W3C//DTD SVG 1.1//EN"
 "http://www.w3.org/Graphics/SVG/1.1/DTD/svg11.dtd">
<!-- Generated by graphviz version 2.40.1 (20161225.0304)
 -->
<!-- Title: %0 Pages: 1 -->
<svg width="838pt" height="416pt"
 viewBox="0.00 0.00 837.72 415.60" xmlns="http://www.w3.org/2000/svg" xmlns:xlink="http://www.w3.org/1999/xlink">
<g id="graph0" class="graph" transform="scale(1 1) rotate(0) translate(4 411.6)">
<title>%0</title>
<polygon fill="#ffffff" stroke="transparent" points="-4,4 -4,-411.6 833.7162,-411.6 833.7162,4 -4,4"/>
<!-- Get Mini Font -->
<g id="node1" class="node">
<title>Get Mini Font</title>
<polygon fill="none" stroke="#000000" points="337.9119,-371.1 337.9119,-407.1 437.9217,-407.1 437.9217,-371.1 337.9119,-371.1"/>
<text text-anchor="middle" x="387.9168" y="-384.9" font-family="Arial" font-size="14.00" fill="#000000">Get Mini Font</text>
</g>
<!-- Deep Components Editor -->
<g id="node2" class="node">
<title>Deep Components Editor</title>
<polygon fill="none" stroke="#000000" points="198.3425,-298.1 198.3425,-334.1 371.4911,-334.1 371.4911,-298.1 198.3425,-298.1"/>
<text text-anchor="middle" x="284.9168" y="-311.9" font-family="Arial" font-size="14.00" fill="#000000">Deep Components Editor</text>
</g>
<!-- Get Mini Font&#45;&gt;Deep Components Editor -->
<g id="edge1" class="edge">
<title>Get Mini Font&#45;&gt;Deep Components Editor</title>
<path fill="none" stroke="#000000" d="M362.4561,-371.0551C349.3334,-361.7545 333.1496,-350.2844 318.9678,-340.2332"/>
<polygon fill="#000000" stroke="#000000" points="320.6241,-337.1172 310.4416,-334.1904 316.5764,-342.8283 320.6241,-337.1172"/>
</g>
<!-- Deep Components Instantiator -->
<g id="node3" class="node">
<title>Deep Components Instantiator</title>
<polygon fill="none" stroke="#000000" points="400.001,-298.1 400.001,-334.1 605.8326,-334.1 605.8326,-298.1 400.001,-298.1"/>
<text text-anchor="middle" x="502.9168" y="-311.9" font-family="Arial" font-size="14.00" fill="#000000">Deep Components Instantiator</text>
</g>
<!-- Get Mini Font&#45;&gt;Deep Components Instantiator -->
<g id="edge2" class="edge">
<title>Get Mini Font&#45;&gt;Deep Components Instantiator</title>
<path fill="none" stroke="#000000" d="M416.3438,-371.0551C431.2719,-361.579 449.7478,-349.8508 465.7926,-339.6658"/>
<polygon fill="#000000" stroke="#000000" points="467.8514,-342.5046 474.4183,-334.1904 464.0999,-336.5947 467.8514,-342.5046"/>
</g>
<!-- Data Base: Deep Component Structure -->
<g id="node5" class="node">
<title>Data Base: Deep Component Structure</title>
<polygon fill="#ffff00" stroke="#000000" points="133.1609,-225.1 133.1609,-261.1 392.6727,-261.1 392.6727,-225.1 133.1609,-225.1"/>
<text text-anchor="middle" x="262.9168" y="-238.9" font-family="Arial" font-size="14.00" fill="#000000">Data Base: Deep Component Structure</text>
</g>
<!-- Deep Components Editor&#45;&gt;Data Base: Deep Component Structure -->
<g id="edge5" class="edge">
<title>Deep Components Editor&#45;&gt;Data Base: Deep Component Structure</title>
<path fill="none" stroke="#000000" d="M279.4786,-298.0551C277.0194,-289.8951 274.057,-280.0652 271.3216,-270.9887"/>
<polygon fill="#000000" stroke="#000000" points="274.6054,-269.7551 268.3687,-261.1904 267.9032,-271.775 274.6054,-269.7551"/>
</g>
<!-- Data Base: Glyph Composition -->
<g id="node4" class="node">
<title>Data Base: Glyph Composition</title>
<polygon fill="#ffff00" stroke="#000000" points="410.2303,-225.1 410.2303,-261.1 617.6033,-261.1 617.6033,-225.1 410.2303,-225.1"/>
<text text-anchor="middle" x="513.9168" y="-238.9" font-family="Arial" font-size="14.00" fill="#000000">Data Base: Glyph Composition</text>
</g>
<!-- Deep Components Instantiator&#45;&gt;Data Base: Glyph Composition -->
<g id="edge3" class="edge">
<title>Deep Components Instantiator&#45;&gt;Data Base: Glyph Composition</title>
<path fill="none" stroke="#000000" d="M505.6359,-298.0551C506.8523,-289.9828 508.3149,-280.2764 509.6703,-271.2817"/>
<polygon fill="#000000" stroke="#000000" points="513.1617,-271.6003 511.1909,-261.1904 506.2398,-270.5572 513.1617,-271.6003"/>
</g>
<!-- Glyphs to keys -->
<g id="node6" class="node">
<title>Glyphs to keys</title>
<ellipse fill="#d3d3d3" stroke="#000000" cx="486.9168" cy="-170.1" rx="74.2164" ry="18"/>
<text text-anchor="middle" x="486.9168" y="-165.9" font-family="Arial" font-size="14.00" fill="#000000">Glyphs to keys</text>
</g>
<!-- Data Base: Glyph Composition&#45;&gt;Glyphs to keys -->
<g id="edge4" class="edge">
<title>Data Base: Glyph Composition&#45;&gt;Glyphs to keys</title>
<path fill="none" stroke="#000000" d="M507.2427,-225.0551C504.1921,-216.8074 500.5106,-206.8536 497.1236,-197.6962"/>
<polygon fill="#000000" stroke="#000000" points="500.3595,-196.3552 493.6078,-188.1904 493.7941,-198.7836 500.3595,-196.3552"/>
</g>
<!-- Selected Char/Key -->
<g id="node8" class="node">
<title>Selected Char/Key</title>
<polygon fill="none" stroke="#000000" points="579.5683,-152.1 579.5683,-188.1 712.2653,-188.1 712.2653,-152.1 579.5683,-152.1"/>
<text text-anchor="middle" x="645.9168" y="-165.9" font-family="Arial" font-size="14.00" fill="#000000">Selected Char/Key</text>
</g>
<!-- Data Base: Glyph Composition&#45;&gt;Selected Char/Key -->
<g id="edge7" class="edge">
<title>Data Base: Glyph Composition&#45;&gt;Selected Char/Key</title>
<path fill="none" stroke="#000000" d="M546.546,-225.0551C563.9982,-215.4035 585.6748,-203.4156 604.3249,-193.1016"/>
<polygon fill="#000000" stroke="#000000" points="606.1484,-196.0928 613.2055,-188.1904 602.7607,-189.9671 606.1484,-196.0928"/>
</g>
<!-- key to extremes Glyphs -->
<g id="node7" class="node">
<title>key to extremes Glyphs</title>
<ellipse fill="#d3d3d3" stroke="#000000" cx="111.9168" cy="-170.1" rx="111.8337" ry="18"/>
<text text-anchor="middle" x="111.9168" y="-165.9" font-family="Arial" font-size="14.00" fill="#000000">key to extremes Glyphs</text>
</g>
<!-- Data Base: Deep Component Structure&#45;&gt;key to extremes Glyphs -->
<g id="edge6" class="edge">
<title>Data Base: Deep Component Structure&#45;&gt;key to extremes Glyphs</title>
<path fill="none" stroke="#000000" d="M225.591,-225.0551C204.6524,-214.9325 178.3981,-202.24 156.3975,-191.6039"/>
<polygon fill="#000000" stroke="#000000" points="157.7835,-188.3865 147.257,-187.185 154.7368,-194.6886 157.7835,-188.3865"/>
</g>
<!-- Selected Key -->
<g id="node9" class="node">
<title>Selected Key</title>
<polygon fill="none" stroke="#000000" points="241.6798,-152.1 241.6798,-188.1 340.1538,-188.1 340.1538,-152.1 241.6798,-152.1"/>
<text text-anchor="middle" x="290.9168" y="-165.9" font-family="Arial" font-size="14.00" fill="#000000">Selected Key</text>
</g>
<!-- Data Base: Deep Component Structure&#45;&gt;Selected Key -->
<g id="edge8" class="edge">
<title>Data Base: Deep Component Structure&#45;&gt;Selected Key</title>
<path fill="none" stroke="#000000" d="M269.8382,-225.0551C273.0017,-216.8074 276.8195,-206.8536 280.332,-197.6962"/>
<polygon fill="#000000" stroke="#000000" points="283.6646,-198.7806 283.978,-188.1904 277.1289,-196.2737 283.6646,-198.7806"/>
</g>
<!-- Temp UFO with all the glyphs 
		that contains a part from the selected glyph -->
<g id="node12" class="node">
<title>Temp UFO with all the glyphs 
		that contains a part from the selected glyph</title>
<polygon fill="none" stroke="#000000" points="500.2065,-73.5 500.2065,-115.1 791.6271,-115.1 791.6271,-73.5 500.2065,-73.5"/>
<text text-anchor="middle" x="645.9168" y="-98.5" font-family="Arial" font-size="14.00" fill="#000000">Temp UFO with all the glyphs </text>
<text text-anchor="middle" x="645.9168" y="-81.7" font-family="Arial" font-size="14.00" fill="#000000">		that contains a part from the selected glyph</text>
</g>
<!-- Selected Char/Key&#45;&gt;Temp UFO with all the glyphs 
		that contains a part from the selected glyph -->
<g id="edge11" class="edge">
<title>Selected Char/Key&#45;&gt;Temp UFO with all the glyphs 
		that contains a part from the selected glyph</title>
<path fill="none" stroke="#000000" d="M645.9168,-151.7509C645.9168,-143.815 645.9168,-134.3041 645.9168,-125.3258"/>
<polygon fill="#000000" stroke="#000000" points="649.4169,-125.1568 645.9168,-115.1568 642.4169,-125.1569 649.4169,-125.1568"/>
</g>
<!-- Temp UFO with extremes glyphs -->
<g id="node10" class="node">
<title>Temp UFO with extremes glyphs</title>
<polygon fill="none" stroke="#000000" points="181.0213,-76.3 181.0213,-112.3 400.8123,-112.3 400.8123,-76.3 181.0213,-76.3"/>
<text text-anchor="middle" x="290.9168" y="-90.1" font-family="Arial" font-size="14.00" fill="#000000">Temp UFO with extremes glyphs</text>
</g>
<!-- Selected Key&#45;&gt;Temp UFO with extremes glyphs -->
<g id="edge9" class="edge">
<title>Selected Key&#45;&gt;Temp UFO with extremes glyphs</title>
<path fill="none" stroke="#000000" d="M290.9168,-151.7509C290.9168,-142.9989 290.9168,-132.3314 290.9168,-122.5752"/>
<polygon fill="#000000" stroke="#000000" points="294.4169,-122.4801 290.9168,-112.4801 287.4169,-122.4801 294.4169,-122.4801"/>
</g>
<!-- Temp storage UFO empty -->
<g id="node11" class="node">
<title>Temp storage UFO empty</title>
<polygon fill="none" stroke="#000000" points="202.0178,-.5 202.0178,-36.5 379.8158,-36.5 379.8158,-.5 202.0178,-.5"/>
<text text-anchor="middle" x="290.9168" y="-14.3" font-family="Arial" font-size="14.00" fill="#000000">Temp storage UFO empty</text>
</g>
<!-- Temp UFO with extremes glyphs&#45;&gt;Temp storage UFO empty -->
<g id="edge10" class="edge">
<title>Temp UFO with extremes glyphs&#45;&gt;Temp storage UFO empty</title>
<path fill="none" stroke="#000000" d="M290.9168,-75.9509C290.9168,-67.1989 290.9168,-56.5314 290.9168,-46.7752"/>
<polygon fill="#000000" stroke="#000000" points="294.4169,-46.6801 290.9168,-36.6801 287.4169,-46.6801 294.4169,-46.6801"/>
</g>
<!-- Temp storage UFO with parts from the temp UFO glyphs -->
<g id="node13" class="node">
<title>Temp storage UFO with parts from the temp UFO glyphs</title>
<polygon fill="none" stroke="#000000" points="462.1174,-.5 462.1174,-36.5 829.7162,-36.5 829.7162,-.5 462.1174,-.5"/>
<text text-anchor="middle" x="645.9168" y="-14.3" font-family="Arial" font-size="14.00" fill="#000000">Temp storage UFO with parts from the temp UFO glyphs</text>
</g>
<!-- Temp UFO with all the glyphs 
		that contains a part from the selected glyph&#45;&gt;Temp storage UFO with parts from the temp UFO glyphs -->
<g id="edge12" class="edge">
<title>Temp UFO with all the glyphs 
		that contains a part from the selected glyph&#45;&gt;Temp storage UFO with parts from the temp UFO glyphs</title>
<path fill="none" stroke="#000000" d="M645.9168,-73.1855C645.9168,-65.0259 645.9168,-55.5656 645.9168,-46.8309"/>
<polygon fill="#000000" stroke="#000000" points="649.4169,-46.6725 645.9168,-36.6726 642.4169,-46.6726 649.4169,-46.6725"/>
</g>
</g>
</svg>
